SplineFontDB: 3.2
FontName: Reijima-ExtraBold
FullName: Reijima ExtraBold
FamilyName: Reijima ExtraBold
Weight: Heavy
Copyright: Copyright (c) 2019 by Coji Morishita. All rights reserved.
Version: 1.000
ItalicAngle: 0
UnderlinePosition: -100
UnderlineWidth: 50
Ascent: 860
Descent: 140
InvalidEm: 0
sfntRevision: 0x00010000
LayerCount: 2
Layer: 0 1 "Back" 1
Layer: 1 1 "Fore" 0
XUID: [1021 531 -1996577725 12684423]
StyleMap: 0x0040
FSType: 8
OS2Version: 4
OS2_WeightWidthSlopeOnly: 0
OS2_UseTypoMetrics: 1
CreationTime: 1575364793
ModificationTime: 1707274455
PfmFamily: 81
TTFWeight: 800
TTFWidth: 5
LineGap: 0
VLineGap: 1000
Panose: 0 0 9 0 0 0 0 0 0 0
OS2TypoAscent: 960
OS2TypoAOffset: 0
OS2TypoDescent: -230
OS2TypoDOffset: 0
OS2TypoLinegap: 200
OS2WinAscent: 1060
OS2WinAOffset: 0
OS2WinDescent: 330
OS2WinDOffset: 0
HheadAscent: 1060
HheadAOffset: 0
HheadDescent: -330
HheadDOffset: 0
OS2SubXSize: 650
OS2SubYSize: 600
OS2SubXOff: 0
OS2SubYOff: 75
OS2SupXSize: 650
OS2SupYSize: 600
OS2SupXOff: 0
OS2SupYOff: 350
OS2StrikeYSize: 50
OS2StrikeYPos: 312
OS2CapHeight: 730
OS2XHeight: 520
OS2Vendor: 'M+  '
OS2CodePages: 20020193.00000000
OS2UnicodeRanges: 20000007.00060000.00000000.00000000
Lookup: 1 0 0 "'aalt' Access All Alternates in Latin lookup 0" { "'aalt' Access All Alternates in Latin lookup 0 subtable"  } ['aalt' ('DFLT' <'dflt' > 'latn' <'AZE ' 'CAT ' 'CRT ' 'KAZ ' 'MOL ' 'ROM ' 'TAT ' 'TRK ' 'dflt' > ) ]
Lookup: 3 0 0 "'aalt' Access All Alternates in Latin lookup 1" { "'aalt' Access All Alternates in Latin lookup 1 subtable"  } ['aalt' ('DFLT' <'dflt' > 'latn' <'AZE ' 'CAT ' 'CRT ' 'KAZ ' 'MOL ' 'ROM ' 'TAT ' 'TRK ' 'dflt' > ) ]
Lookup: 6 0 0 "'ccmp' Glyph Composition/Decomposition in Latin lookup 2" { "'ccmp' Glyph Composition/Decomposition in Latin lookup 2 contextual 0"  "'ccmp' Glyph Composition/Decomposition in Latin lookup 2 contextual 1"  } ['ccmp' ('DFLT' <'dflt' > 'latn' <'AZE ' 'CAT ' 'CRT ' 'KAZ ' 'MOL ' 'ROM ' 'TAT ' 'TRK ' 'dflt' > ) ]

StartChar: .notdef
Encoding: 65536 -1 0
Width: 477
Flags: W
LayerCount: 2
Fore
SplineSet
328 -140 m 1,0,-1
 17 -140 l 1,1,-1
 176 860 l 1,2,-1
 487 860 l 1,3,-1
 328 -140 l 1,0,-1
239 793 m 1,4,-1
 234 760 l 1,5,-1
 297 760 l 1,6,-1
 291 723 l 1,7,-1
 227 723 l 1,8,-1
 221 690 l 1,9,-1
 384 690 l 1,10,-1
 389 723 l 1,11,-1
 325 723 l 1,12,-1
 331 760 l 1,13,-1
 395 760 l 1,14,-1
 400 793 l 1,15,-1
 239 793 l 1,4,-1
217 664 m 1,16,-1
 201 560 l 1,17,-1
 364 560 l 1,18,-1
 369 594 l 1,19,-1
 304 594 l 1,20,-1
 315 664 l 1,21,-1
 217 664 l 1,16,-1
271 594 m 1,22,-1
 239 594 l 1,23,-1
 244 630 l 1,24,-1
 277 630 l 1,25,-1
 271 594 l 1,22,-1
197 533 m 1,26,-1
 191 500 l 1,27,-1
 256 500 l 1,28,-1
 250 463 l 1,29,-1
 185 463 l 1,30,-1
 180 430 l 1,31,-1
 278 430 l 1,32,-1
 289 500 l 1,33,-1
 354 500 l 1,34,-1
 359 533 l 1,35,-1
 197 533 l 1,26,-1
317 473 m 1,36,-1
 307 407 l 1,37,-1
 177 407 l 1,38,-1
 171 373 l 1,39,-1
 334 373 l 1,40,-1
 350 473 l 1,41,-1
 317 473 l 1,36,-1
232 351 m 1,42,-1
 224 295 l 1,43,-1
 257 295 l 1,44,-1
 261 318 l 1,45,-1
 293 318 l 1,46,-1
 285 271 l 1,47,-1
 187 271 l 1,48,-1
 200 351 l 1,49,-1
 168 351 l 1,50,-1
 150 238 l 1,51,-1
 313 238 l 1,52,-1
 330 351 l 1,53,-1
 232 351 l 1,42,-1
140 178 m 1,54,-1
 122 65 l 1,55,-1
 285 65 l 1,56,-1
 303 178 l 1,57,-1
 140 178 l 1,54,-1
258 98 m 1,58,-1
 160 98 l 1,59,-1
 167 145 l 1,60,-1
 265 145 l 1,61,-1
 258 98 l 1,58,-1
119 42 m 1,62,-1
 114 9 l 1,63,-1
 182 9 l 1,64,-1
 106 -38 l 1,65,-1
 101 -71 l 1,66,-1
 264 -71 l 1,67,-1
 269 -38 l 1,68,-1
 169 -38 l 1,69,-1
 245 9 l 1,70,-1
 276 9 l 1,71,-1
 281 42 l 1,72,-1
 119 42 l 1,62,-1
EndSplineSet
EndChar

StartChar: A
Encoding: 65 65 2
Width: 678
GlyphClass: 2
Flags: W
AnchorPoint: "Anchor-6" 302 730 basechar 0
AnchorPoint: "Anchor-5" 640 0 basechar 0
AnchorPoint: "Anchor-4" 302 0 basechar 0
LayerCount: 2
Fore
SplineSet
442 0 m 1,0,-1
 428 151 l 1,1,-1
 209 151 l 1,2,-1
 146 0 l 1,3,-1
 -37 0 l 1,4,-1
 297 730 l 1,5,-1
 523 730 l 1,6,-1
 626 0 l 1,7,-1
 442 0 l 1,0,-1
267 294 m 1,8,-1
 415 294 l 1,9,-1
 388 585 l 1,10,-1
 386 585 l 1,11,-1
 267 294 l 1,8,-1
EndSplineSet
Substitution2: "Single Substitution lookup 21 subtable" ordfeminine
Substitution2: "'aalt' Access All Alternates in Latin lookup 0 subtable" ordfeminine
EndChar

StartChar: uni1EAE
Encoding: 7854 7854 5
Width: 678
GlyphClass: 2
Flags: W
AnchorPoint: "Anchor-6" 302 730 basechar 0
AnchorPoint: "Anchor-5" 640 0 basechar 0
AnchorPoint: "Anchor-4" 302 0 basechar 0
LayerCount: 2
Fore
SplineSet
302.5 794 m 128,-1,1
 255 820 255 820 232.5 866 c 128,-1,2
 210 912 210 912 218 971 c 1,3,-1
 345 971 l 1,4,-1
 443 1170 l 1,5,-1
 639 1170 l 1,6,-1
 487 960 l 1,7,-1
 368 960 l 1,8,9
 368 883 368 883 434 883 c 0,10,11
 470 883 470 883 493.5 904.5 c 128,-1,12
 517 926 517 926 530 971 c 1,13,-1
 679 971 l 1,14,15
 669 912 669 912 631.5 866 c 128,-1,16
 594 820 594 820 538 794 c 128,-1,17
 482 768 482 768 416 768 c 256,18,0
 350 768 350 768 302.5 794 c 128,-1,1
442 0 m 1,19,-1
 428 151 l 1,20,-1
 209 151 l 1,21,-1
 146 0 l 1,22,-1
 -37 0 l 1,23,-1
 297 730 l 1,24,-1
 523 730 l 1,25,-1
 626 0 l 1,26,-1
 442 0 l 1,19,-1
267 294 m 1,27,-1
 415 294 l 1,28,-1
 388 585 l 1,29,-1
 386 585 l 1,30,-1
 267 294 l 1,27,-1
EndSplineSet
EndChar

StartChar: uni1EB0
Encoding: 7856 7856 7
Width: 678
GlyphClass: 2
Flags: W
AnchorPoint: "Anchor-6" 302 730 basechar 0
AnchorPoint: "Anchor-5" 640 0 basechar 0
AnchorPoint: "Anchor-4" 302 0 basechar 0
LayerCount: 2
Fore
SplineSet
490.5 902 m 128,-1,1
 513 921 513 921 526 960 c 1,2,-1
 406 960 l 1,3,-1
 320 1170 l 1,4,-1
 516 1170 l 1,5,-1
 551 971 l 1,6,-1
 679 971 l 1,7,8
 669 912 669 912 631.5 866 c 128,-1,9
 594 820 594 820 538 794 c 128,-1,10
 482 768 482 768 416 768 c 256,11,12
 350 768 350 768 302.5 794 c 128,-1,13
 255 820 255 820 232.5 866 c 128,-1,14
 210 912 210 912 218 971 c 1,15,-1
 368 971 l 1,16,17
 366 926 366 926 382 904.5 c 128,-1,18
 398 883 398 883 434 883 c 0,19,0
 468 883 468 883 490.5 902 c 128,-1,1
442 0 m 1,20,-1
 428 151 l 1,21,-1
 209 151 l 1,22,-1
 146 0 l 1,23,-1
 -37 0 l 1,24,-1
 297 730 l 1,25,-1
 523 730 l 1,26,-1
 626 0 l 1,27,-1
 442 0 l 1,20,-1
267 294 m 1,28,-1
 415 294 l 1,29,-1
 388 585 l 1,30,-1
 386 585 l 1,31,-1
 267 294 l 1,28,-1
EndSplineSet
EndChar

StartChar: uni1EB2
Encoding: 7858 7858 8
Width: 678
GlyphClass: 2
Flags: W
AnchorPoint: "Anchor-6" 302 1171 basechar 0
AnchorPoint: "Anchor-5" 640 0 basechar 0
AnchorPoint: "Anchor-4" 302 0 basechar 0
LayerCount: 2
Fore
SplineSet
491 902 m 128,-1,1
 513 921 513 921 526 961 c 1,2,-1
 462 961 l 1,3,4
 478 994 478 994 483 1023 c 0,5,6
 486 1042 486 1042 476 1048.5 c 128,-1,7
 466 1055 466 1055 437 1055 c 0,8,9
 368 1055 368 1055 291 1032 c 1,10,-1
 297 1151 l 1,11,12
 339 1160 339 1160 388 1165.5 c 128,-1,13
 437 1171 437 1171 480 1171 c 0,14,15
 551 1171 551 1171 587.5 1163 c 128,-1,16
 624 1155 624 1155 637.5 1135.5 c 128,-1,17
 651 1116 651 1116 645 1080 c 0,18,19
 641 1055 641 1055 631.5 1025 c 128,-1,20
 622 995 622 995 609 971 c 1,21,-1
 679 971 l 1,22,23
 669 912 669 912 631.5 866 c 128,-1,24
 594 820 594 820 538 794 c 128,-1,25
 482 768 482 768 416 768 c 256,26,27
 350 768 350 768 302.5 794 c 128,-1,28
 255 820 255 820 232.5 866 c 128,-1,29
 210 912 210 912 218 971 c 1,30,-1
 368 971 l 1,31,32
 366 926 366 926 382 904.5 c 128,-1,33
 398 883 398 883 434 883 c 0,34,0
 469 883 469 883 491 902 c 128,-1,1
442 0 m 1,35,-1
 428 151 l 1,36,-1
 209 151 l 1,37,-1
 146 0 l 1,38,-1
 -37 0 l 1,39,-1
 297 730 l 1,40,-1
 523 730 l 1,41,-1
 626 0 l 1,42,-1
 442 0 l 1,35,-1
267 294 m 1,43,-1
 415 294 l 1,44,-1
 388 585 l 1,45,-1
 386 585 l 1,46,-1
 267 294 l 1,43,-1
EndSplineSet
EndChar

StartChar: uni1EA4
Encoding: 7844 7844 11
Width: 681
GlyphClass: 2
Flags: W
AnchorPoint: "Anchor-6" 302 730 basechar 0
AnchorPoint: "Anchor-5" 640 0 basechar 0
AnchorPoint: "Anchor-4" 302 0 basechar 0
LayerCount: 2
Fore
SplineSet
439 917 m 1,0,-1
 348 770 l 1,1,-1
 167 770 l 1,2,-1
 320 980 l 1,3,-1
 563 980 l 1,4,-1
 653 1160 l 1,5,-1
 849 1160 l 1,6,-1
 696 950 l 1,7,-1
 591 950 l 1,8,-1
 665 770 l 1,9,-1
 485 770 l 1,10,-1
 441 917 l 1,11,-1
 439 917 l 1,0,-1
297 730 m 1,12,-1
 523 730 l 1,13,-1
 626 0 l 1,14,-1
 442 0 l 1,15,-1
 428 151 l 1,16,-1
 209 151 l 1,17,-1
 146 0 l 1,18,-1
 -37 0 l 1,19,-1
 297 730 l 1,12,-1
267 294 m 1,20,-1
 415 294 l 1,21,-1
 388 585 l 1,22,-1
 386 585 l 1,23,-1
 267 294 l 1,20,-1
EndSplineSet
EndChar

StartChar: uni1EA6
Encoding: 7846 7846 13
Width: 681
GlyphClass: 2
Flags: W
AnchorPoint: "Anchor-6" 302 730 basechar 0
AnchorPoint: "Anchor-5" 640 0 basechar 0
AnchorPoint: "Anchor-4" 302 0 basechar 0
LayerCount: 2
Fore
SplineSet
302 950 m 1,0,-1
 197 950 l 1,1,-1
 111 1160 l 1,2,-1
 307 1160 l 1,3,-1
 339 980 l 1,4,-1
 582 980 l 1,5,-1
 668 770 l 1,6,-1
 488 770 l 1,7,-1
 443 917 l 1,8,-1
 441 917 l 1,9,-1
 351 770 l 1,10,-1
 170 770 l 1,11,-1
 302 950 l 1,0,-1
445 0 m 1,12,-1
 431 151 l 1,13,-1
 211 151 l 1,14,-1
 149 0 l 1,15,-1
 -34 0 l 1,16,-1
 300 730 l 1,17,-1
 526 730 l 1,18,-1
 628 0 l 1,19,-1
 445 0 l 1,12,-1
269 294 m 1,20,-1
 418 294 l 1,21,-1
 391 585 l 1,22,-1
 389 585 l 1,23,-1
 269 294 l 1,20,-1
EndSplineSet
EndChar

StartChar: uni1EA8
Encoding: 7848 7848 14
Width: 678
GlyphClass: 2
Flags: W
AnchorPoint: "Anchor-6" 395 1160 basechar 0
AnchorPoint: "Anchor-5" 640 0 basechar 0
AnchorPoint: "Anchor-4" 302 0 basechar 0
LayerCount: 2
Fore
SplineSet
348 770 m 1,0,-1
 167 770 l 1,1,-1
 320 980 l 1,2,-1
 564 980 l 1,3,4
 570 998 570 998 572 1012 c 0,5,6
 575 1031 575 1031 565.5 1037.5 c 128,-1,7
 556 1044 556 1044 526 1044 c 0,8,9
 457 1044 457 1044 381 1021 c 1,10,-1
 387 1140 l 1,11,12
 429 1149 429 1149 477.5 1154.5 c 128,-1,13
 526 1160 526 1160 569 1160 c 0,14,15
 640 1160 640 1160 677 1152 c 128,-1,16
 714 1144 714 1144 727 1124.5 c 128,-1,17
 740 1105 740 1105 734 1069 c 0,18,19
 730 1042 730 1042 718.5 1008.5 c 128,-1,20
 707 975 707 975 693 950 c 1,21,-1
 591 950 l 1,22,-1
 665 770 l 1,23,-1
 485 770 l 1,24,-1
 441 917 l 1,25,-1
 439 917 l 1,26,-1
 348 770 l 1,0,-1
442 0 m 1,27,-1
 428 151 l 1,28,-1
 209 151 l 1,29,-1
 146 0 l 1,30,-1
 -37 0 l 1,31,-1
 297 730 l 1,32,-1
 523 730 l 1,33,-1
 626 0 l 1,34,-1
 442 0 l 1,27,-1
267 294 m 1,35,-1
 415 294 l 1,36,-1
 388 585 l 1,37,-1
 386 585 l 1,38,-1
 267 294 l 1,35,-1
EndSplineSet
EndChar

StartChar: Aogonek
Encoding: 260 260 23
Width: 685
GlyphClass: 2
Flags: W
AnchorPoint: "Anchor-6" 302 730 basechar 0
AnchorPoint: "Anchor-5" 640 0 basechar 0
AnchorPoint: "Anchor-4" 302 0 basechar 0
LayerCount: 2
Fore
SplineSet
683 -199 m 1,0,1
 628 -219 628 -219 561 -219 c 0,2,3
 469 -219 469 -219 423.5 -186 c 128,-1,4
 378 -153 378 -153 388 -92 c 0,5,6
 396 -43 396 -43 442 4 c 1,7,-1
 428 151 l 1,8,-1
 209 151 l 1,9,-1
 146 0 l 1,10,-1
 -37 0 l 1,11,-1
 297 730 l 1,12,-1
 523 730 l 1,13,-1
 626 0 l 1,14,15
 546 -34 546 -34 540 -69 c 0,16,17
 538 -84 538 -84 551 -92 c 128,-1,18
 564 -100 564 -100 590 -100 c 0,19,20
 639 -100 639 -100 686 -80 c 1,21,-1
 683 -199 l 1,0,1
267 294 m 1,22,-1
 415 294 l 1,23,-1
 388 585 l 1,24,-1
 386 585 l 1,25,-1
 267 294 l 1,22,-1
EndSplineSet
EndChar

StartChar: Aring
Encoding: 197 197 24
Width: 678
GlyphClass: 2
Flags: W
AnchorPoint: "Anchor-6" 302 913 basechar 0
AnchorPoint: "Anchor-5" 640 0 basechar 0
AnchorPoint: "Anchor-4" 302 0 basechar 0
LayerCount: 2
Fore
SplineSet
428 151 m 1,0,-1
 209 151 l 1,1,-1
 146 0 l 1,2,-1
 -37 0 l 1,3,-1
 294 722 l 1,4,5
 276 744 276 744 269 773 c 128,-1,6
 262 802 262 802 267 835 c 0,7,8
 274 879 274 879 301.5 916.5 c 128,-1,9
 329 954 329 954 369 976 c 128,-1,10
 409 998 409 998 453 998 c 0,11,12
 496 998 496 998 529.5 976 c 128,-1,13
 563 954 563 954 578.5 916.5 c 128,-1,14
 594 879 594 879 587 835 c 0,15,16
 582 803 582 803 565.5 773.5 c 128,-1,17
 549 744 549 744 524 721 c 1,18,-1
 626 0 l 1,19,-1
 442 0 l 1,20,-1
 428 151 l 1,0,-1
393 878 m 128,-1,22
 373 861 373 861 369 835 c 0,23,24
 365 810 365 810 379.5 792.5 c 128,-1,25
 394 775 394 775 418 775 c 256,26,27
 442 775 442 775 462.5 792.5 c 128,-1,28
 483 810 483 810 486 835 c 256,29,30
 490 860 490 860 476 877.5 c 128,-1,31
 462 895 462 895 437 895 c 256,32,21
 413 895 413 895 393 878 c 128,-1,22
267 294 m 1,33,-1
 415 294 l 1,34,-1
 388 585 l 1,35,-1
 386 585 l 1,36,-1
 267 294 l 1,33,-1
EndSplineSet
EndChar

StartChar: Aringacute
Encoding: 506 506 25
Width: 678
GlyphClass: 2
Flags: W
AnchorPoint: "Anchor-6" 302 913 basechar 0
AnchorPoint: "Anchor-5" 640 0 basechar 0
AnchorPoint: "Anchor-4" 302 0 basechar 0
LayerCount: 2
Fore
SplineSet
428 151 m 1,0,-1
 209 151 l 1,1,-1
 146 0 l 1,2,-1
 -37 0 l 1,3,-1
 294 722 l 1,4,5
 276 744 276 744 269 773 c 128,-1,6
 262 802 262 802 267 835 c 0,7,8
 273 871 273 871 292 902.5 c 128,-1,9
 311 934 311 934 340 957 c 1,10,-1
 442 1163 l 1,11,-1
 638 1163 l 1,12,-1
 511 987 l 1,13,14
 553 969 553 969 574 927.5 c 128,-1,15
 595 886 595 886 587 835 c 0,16,17
 582 803 582 803 565.5 773.5 c 128,-1,18
 549 744 549 744 524 721 c 1,19,-1
 626 0 l 1,20,-1
 442 0 l 1,21,-1
 428 151 l 1,0,-1
463 792.5 m 128,-1,23
 483 810 483 810 486 835 c 256,24,25
 490 860 490 860 476 877.5 c 128,-1,26
 462 895 462 895 437 895 c 256,27,28
 413 895 413 895 393 878 c 128,-1,29
 373 861 373 861 369 835 c 0,30,31
 365 810 365 810 379.5 792.5 c 128,-1,32
 394 775 394 775 418 775 c 256,33,22
 443 775 443 775 463 792.5 c 128,-1,23
267 294 m 1,34,-1
 415 294 l 1,35,-1
 388 585 l 1,36,-1
 386 585 l 1,37,-1
 267 294 l 1,34,-1
EndSplineSet
EndChar

StartChar: AE
Encoding: 198 198 27
Width: 871
GlyphClass: 2
Flags: W
AnchorPoint: "Anchor-6" 428 730 basechar 0
AnchorPoint: "Anchor-4" 428 0 basechar 0
LayerCount: 2
Fore
SplineSet
867 591 m 1,0,-1
 614 591 l 1,1,-1
 591 445 l 1,2,-1
 825 445 l 1,3,-1
 803 310 l 1,4,-1
 570 310 l 1,5,-1
 543 139 l 1,6,-1
 796 139 l 1,7,-1
 774 0 l 1,8,-1
 354 0 l 1,9,-1
 378 151 l 1,10,-1
 216 151 l 1,11,-1
 146 0 l 1,12,-1
 -37 0 l 1,13,-1
 334 730 l 1,14,-1
 889 730 l 1,15,-1
 867 591 l 1,0,-1
282 294 m 1,16,-1
 401 294 l 1,17,-1
 448 593 l 1,18,-1
 420 593 l 1,19,-1
 282 294 l 1,16,-1
EndSplineSet
EndChar

StartChar: B
Encoding: 66 66 29
Width: 646
Flags: W
LayerCount: 2
Fore
SplineSet
580 329 m 128,-1,1
 615 284 615 284 603 208 c 0,2,3
 587 105 587 105 500.5 52.5 c 128,-1,4
 414 0 414 0 261 0 c 2,5,-1
 19 0 l 1,6,-1
 134 730 l 1,7,-1
 368 730 l 2,8,9
 515 730 515 730 582 685 c 128,-1,10
 649 640 649 640 635 551 c 0,11,12
 625 485 625 485 580 441.5 c 128,-1,13
 535 398 535 398 466 387 c 1,14,-1
 466 385 l 1,15,0
 545 374 545 374 580 329 c 128,-1,1
279 594 m 1,16,-1
 255 443 l 1,17,-1
 331 443 l 2,18,19
 396 443 396 443 426.5 460.5 c 128,-1,20
 457 478 457 478 464 519 c 0,21,22
 470 559 470 559 445 576.5 c 128,-1,23
 420 594 420 594 355 594 c 2,24,-1
 279 594 l 1,16,-1
391.5 157 m 128,-1,26
 428 178 428 178 435 224 c 256,27,28
 442 270 442 270 412.5 291 c 128,-1,29
 383 312 383 312 310 312 c 2,30,-1
 235 312 l 1,31,-1
 207 136 l 1,32,-1
 282 136 l 2,33,25
 355 136 355 136 391.5 157 c 128,-1,26
EndSplineSet
EndChar

StartChar: C
Encoding: 67 67 30
Width: 674
GlyphClass: 2
Flags: W
AnchorPoint: "Anchor-6" 335 730 basechar 0
AnchorPoint: "Anchor-4" 335 0 basechar 0
LayerCount: 2
Fore
SplineSet
94.5 88 m 128,-1,1
 16 186 16 186 45 365 c 256,2,3
 73 544 73 544 182.5 642 c 128,-1,4
 292 740 292 740 464 740 c 0,5,6
 603 740 603 740 698 674 c 1,7,-1
 611 541 l 1,8,9
 532 593 532 593 449 593 c 0,10,11
 354 593 354 593 293 533.5 c 128,-1,12
 232 474 232 474 215 365 c 256,13,14
 198 256 198 256 240 196.5 c 128,-1,15
 282 137 282 137 377 137 c 0,16,17
 459 137 459 137 555 189 c 1,18,-1
 600 56 l 1,19,20
 484 -10 484 -10 345 -10 c 0,21,0
 173 -10 173 -10 94.5 88 c 128,-1,1
EndSplineSet
EndChar

StartChar: Ccedilla
Encoding: 199 199 33
Width: 674
GlyphClass: 2
Flags: W
AnchorPoint: "Anchor-6" 335 730 basechar 0
AnchorPoint: "Anchor-4" 335 0 basechar 0
LayerCount: 2
Fore
SplineSet
600 56 m 1,0,1
 531 16 531 16 445 -1 c 1,2,3
 473 -44 473 -44 466 -92 c 0,4,5
 456 -153 456 -153 400.5 -186 c 128,-1,6
 345 -219 345 -219 253 -219 c 0,7,8
 184 -219 184 -219 138 -199 c 1,9,-1
 171 -80 l 1,10,11
 213 -100 213 -100 261 -100 c 0,12,13
 288 -100 288 -100 303.5 -92 c 128,-1,14
 319 -84 319 -84 322 -69 c 0,15,16
 327 -37 327 -37 266 -4 c 1,17,18
 134 18 134 18 77 113 c 128,-1,19
 20 208 20 208 45 365 c 0,20,21
 73 544 73 544 182.5 642 c 128,-1,22
 292 740 292 740 464 740 c 0,23,24
 603 740 603 740 698 674 c 1,25,-1
 611 541 l 1,26,27
 532 593 532 593 449 593 c 0,28,29
 354 593 354 593 293 533.5 c 128,-1,30
 232 474 232 474 215 365 c 256,31,32
 198 256 198 256 240 196.5 c 128,-1,33
 282 137 282 137 377 137 c 0,34,35
 459 137 459 137 555 189 c 1,36,-1
 600 56 l 1,0,1
EndSplineSet
EndChar

StartChar: D
Encoding: 68 68 36
Width: 671
GlyphClass: 2
Flags: W
AnchorPoint: "Anchor-6" 302 730 basechar 0
AnchorPoint: "Anchor-4" 302 0 basechar 0
LayerCount: 2
Fore
SplineSet
348 730 m 2,0,1
 537 730 537 730 610 642.5 c 128,-1,2
 683 555 683 555 653 365 c 256,3,4
 623 175 623 175 522 87.5 c 128,-1,5
 421 0 421 0 232 0 c 2,6,-1
 19 0 l 1,7,-1
 134 730 l 1,8,-1
 348 730 l 2,0,1
376.5 161.5 m 128,-1,10
 419 183 419 183 444 231.5 c 128,-1,11
 469 280 469 280 482 365 c 256,12,13
 495 450 495 450 486 498.5 c 128,-1,14
 477 547 477 547 441 568.5 c 128,-1,15
 405 590 405 590 337 590 c 2,16,-1
 279 590 l 1,17,-1
 207 140 l 1,18,-1
 265 140 l 2,19,9
 334 140 334 140 376.5 161.5 c 128,-1,10
EndSplineSet
EndChar

StartChar: Eth
Encoding: 208 208 38
Width: 732
GlyphClass: 2
Flags: W
CounterMasks: 1 e0
AnchorPoint: "Anchor-6" 361 730 basechar 0
AnchorPoint: "Anchor-4" 361 0 basechar 0
LayerCount: 2
Fore
SplineSet
671.5 642.5 m 128,-1,1
 745 555 745 555 715 365 c 256,2,3
 685 175 685 175 584 87.5 c 128,-1,4
 483 0 483 0 294 0 c 2,5,-1
 80 0 l 1,6,-1
 128 303 l 1,7,-1
 24 303 l 1,8,-1
 44 427 l 1,9,-1
 147 427 l 1,10,-1
 195 730 l 1,11,-1
 410 730 l 2,12,0
 598 730 598 730 671.5 642.5 c 128,-1,1
438 161.5 m 128,-1,14
 480 183 480 183 505.5 231.5 c 128,-1,15
 531 280 531 280 544 365 c 256,16,17
 557 450 557 450 547.5 498.5 c 128,-1,18
 538 547 538 547 502.5 568.5 c 128,-1,19
 467 590 467 590 399 590 c 2,20,-1
 340 590 l 1,21,-1
 314 427 l 1,22,-1
 459 427 l 1,23,-1
 439 303 l 1,24,-1
 294 303 l 1,25,-1
 269 140 l 1,26,-1
 327 140 l 2,27,13
 396 140 396 140 438 161.5 c 128,-1,14
EndSplineSet
EndChar

StartChar: E
Encoding: 69 69 42
Width: 584
GlyphClass: 2
Flags: W
AnchorPoint: "Anchor-6" 265 730 basechar 0
AnchorPoint: "Anchor-5" 503 0 basechar 0
AnchorPoint: "Anchor-4" 265 0 basechar 0
LayerCount: 2
Fore
SplineSet
134 730 m 1,0,-1
 603 730 l 1,1,-1
 581 591 l 1,2,-1
 279 591 l 1,3,-1
 256 445 l 1,4,-1
 538 445 l 1,5,-1
 517 310 l 1,6,-1
 234 310 l 1,7,-1
 207 139 l 1,8,-1
 509 139 l 1,9,-1
 487 0 l 1,10,-1
 19 0 l 1,11,-1
 134 730 l 1,0,-1
EndSplineSet
EndChar

StartChar: uni1EBE
Encoding: 7870 7870 47
Width: 595
GlyphClass: 2
Flags: W
AnchorPoint: "Anchor-6" 265 730 basechar 0
AnchorPoint: "Anchor-5" 503 0 basechar 0
AnchorPoint: "Anchor-4" 265 0 basechar 0
LayerCount: 2
Fore
SplineSet
809 1160 m 1,0,-1
 656 950 l 1,1,-1
 551 950 l 1,2,-1
 626 770 l 1,3,-1
 445 770 l 1,4,-1
 401 917 l 1,5,-1
 399 917 l 1,6,-1
 308 770 l 1,7,-1
 128 770 l 1,8,-1
 281 980 l 1,9,-1
 524 980 l 1,10,-1
 613 1160 l 1,11,-1
 809 1160 l 1,0,-1
20 0 m 1,12,-1
 135 730 l 1,13,-1
 604 730 l 1,14,-1
 582 591 l 1,15,-1
 280 591 l 1,16,-1
 257 445 l 1,17,-1
 539 445 l 1,18,-1
 518 310 l 1,19,-1
 235 310 l 1,20,-1
 208 139 l 1,21,-1
 510 139 l 1,22,-1
 488 0 l 1,23,-1
 20 0 l 1,12,-1
EndSplineSet
EndChar

StartChar: uni1EC0
Encoding: 7872 7872 49
Width: 595
GlyphClass: 2
Flags: W
AnchorPoint: "Anchor-6" 265 730 basechar 0
AnchorPoint: "Anchor-5" 503 0 basechar 0
AnchorPoint: "Anchor-4" 265 0 basechar 0
LayerCount: 2
Fore
SplineSet
317 770 m 1,0,-1
 137 770 l 1,1,-1
 268 950 l 1,2,-1
 163 950 l 1,3,-1
 77 1160 l 1,4,-1
 273 1160 l 1,5,-1
 305 980 l 1,6,-1
 548 980 l 1,7,-1
 634 770 l 1,8,-1
 454 770 l 1,9,-1
 410 917 l 1,10,-1
 408 917 l 1,11,-1
 317 770 l 1,0,-1
28 0 m 1,12,-1
 144 730 l 1,13,-1
 612 730 l 1,14,-1
 590 591 l 1,15,-1
 289 591 l 1,16,-1
 265 445 l 1,17,-1
 548 445 l 1,18,-1
 526 310 l 1,19,-1
 244 310 l 1,20,-1
 217 139 l 1,21,-1
 519 139 l 1,22,-1
 497 0 l 1,23,-1
 28 0 l 1,12,-1
EndSplineSet
EndChar

StartChar: uni1EC2
Encoding: 7874 7874 50
Width: 588
GlyphClass: 2
Flags: W
AnchorPoint: "Anchor-6" 358 1160 basechar 0
AnchorPoint: "Anchor-5" 503 0 basechar 0
AnchorPoint: "Anchor-4" 265 0 basechar 0
LayerCount: 2
Fore
SplineSet
551 950 m 1,0,-1
 626 770 l 1,1,-1
 445 770 l 1,2,-1
 401 917 l 1,3,-1
 399 917 l 1,4,-1
 308 770 l 1,5,-1
 128 770 l 1,6,-1
 281 980 l 1,7,-1
 525 980 l 1,8,9
 531 998 531 998 533 1012 c 0,10,11
 536 1031 536 1031 526 1037.5 c 128,-1,12
 516 1044 516 1044 487 1044 c 0,13,14
 418 1044 418 1044 341 1021 c 1,15,-1
 347 1140 l 1,16,17
 389 1149 389 1149 438 1154.5 c 128,-1,18
 487 1160 487 1160 530 1160 c 0,19,20
 601 1160 601 1160 637.5 1152 c 128,-1,21
 674 1144 674 1144 687 1124.5 c 128,-1,22
 700 1105 700 1105 695 1069 c 0,23,24
 691 1042 691 1042 679 1008.5 c 128,-1,25
 667 975 667 975 653 950 c 1,26,-1
 551 950 l 1,0,-1
20 0 m 1,27,-1
 135 730 l 1,28,-1
 604 730 l 1,29,-1
 582 591 l 1,30,-1
 280 591 l 1,31,-1
 257 445 l 1,32,-1
 539 445 l 1,33,-1
 518 310 l 1,34,-1
 235 310 l 1,35,-1
 208 139 l 1,36,-1
 510 139 l 1,37,-1
 488 0 l 1,38,-1
 20 0 l 1,27,-1
EndSplineSet
EndChar

StartChar: Eogonek
Encoding: 280 280 60
Width: 591
GlyphClass: 2
Flags: W
AnchorPoint: "Anchor-6" 265 730 basechar 0
AnchorPoint: "Anchor-5" 503 0 basechar 0
AnchorPoint: "Anchor-4" 265 0 basechar 0
LayerCount: 2
Fore
SplineSet
545 -199 m 1,0,1
 490 -219 490 -219 422 -219 c 0,2,3
 330 -219 330 -219 284.5 -186 c 128,-1,4
 239 -153 239 -153 249 -92 c 0,5,6
 257 -44 257 -44 300 0 c 1,7,-1
 19 0 l 1,8,-1
 134 730 l 1,9,-1
 603 730 l 1,10,-1
 581 591 l 1,11,-1
 279 591 l 1,12,-1
 256 445 l 1,13,-1
 538 445 l 1,14,-1
 517 310 l 1,15,-1
 234 310 l 1,16,-1
 207 139 l 1,17,-1
 509 139 l 1,18,-1
 487 0 l 1,19,20
 407 -34 407 -34 402 -69 c 0,21,22
 400 -84 400 -84 412.5 -92 c 128,-1,23
 425 -100 425 -100 452 -100 c 0,24,25
 501 -100 501 -100 548 -80 c 1,26,-1
 545 -199 l 1,0,1
EndSplineSet
EndChar

StartChar: F
Encoding: 70 70 62
Width: 577
Flags: W
LayerCount: 2
Fore
SplineSet
134 730 m 1,0,-1
 603 730 l 1,1,-1
 580 587 l 1,2,-1
 278 587 l 1,3,-1
 253 425 l 1,4,-1
 535 425 l 1,5,-1
 513 286 l 1,6,-1
 231 286 l 1,7,-1
 185 0 l 1,8,-1
 19 0 l 1,9,-1
 134 730 l 1,0,-1
EndSplineSet
EndChar

StartChar: G
Encoding: 71 71 63
Width: 747
GlyphClass: 2
Flags: W
AnchorPoint: "Anchor-6" 357 730 basechar 0
AnchorPoint: "Anchor-4" 357 0 basechar 0
LayerCount: 2
Fore
SplineSet
719 444 m 1,0,-1
 656 49 l 1,1,2
 597 21 597 21 524 5.5 c 128,-1,3
 451 -10 451 -10 374 -10 c 0,4,5
 252 -10 252 -10 171.5 34.5 c 128,-1,6
 91 79 91 79 58.5 163.5 c 128,-1,7
 26 248 26 248 45 365 c 256,8,9
 64 482 64 482 123 566.5 c 128,-1,10
 182 651 182 651 277 695.5 c 128,-1,11
 372 740 372 740 493 740 c 0,12,13
 644 740 644 740 730 675 c 1,14,-1
 647 546 l 1,15,16
 570 597 570 597 470 597 c 0,17,18
 362 597 362 597 297.5 538 c 128,-1,19
 233 479 233 479 215 365 c 256,20,21
 197 251 197 251 243 192 c 128,-1,22
 289 133 289 133 397 133 c 0,23,24
 451 133 451 133 506 150 c 1,25,-1
 530 302 l 1,26,-1
 359 302 l 1,27,-1
 382 444 l 1,28,-1
 719 444 l 1,0,-1
EndSplineSet
EndChar

StartChar: H
Encoding: 72 72 69
Width: 700
GlyphClass: 2
Flags: W
AnchorPoint: "Anchor-6" 318 730 basechar 0
AnchorPoint: "Anchor-4" 318 0 basechar 0
LayerCount: 2
Fore
SplineSet
541 730 m 1,0,-1
 708 730 l 1,1,-1
 592 0 l 1,2,-1
 425 0 l 1,3,-1
 474 308 l 1,4,-1
 234 308 l 1,5,-1
 185 0 l 1,6,-1
 19 0 l 1,7,-1
 134 730 l 1,8,-1
 301 730 l 1,9,-1
 257 455 l 1,10,-1
 497 455 l 1,11,-1
 541 730 l 1,0,-1
EndSplineSet
EndChar

StartChar: Hbar
Encoding: 294 294 70
Width: 793
GlyphClass: 2
Flags: W
AnchorPoint: "Anchor-6" 362 730 basechar 0
AnchorPoint: "Anchor-4" 362 0 basechar 0
LayerCount: 2
Fore
SplineSet
832 658 m 1,0,-1
 812 534 l 1,1,-1
 723 534 l 1,2,-1
 638 0 l 1,3,-1
 472 0 l 1,4,-1
 521 308 l 1,5,-1
 280 308 l 1,6,-1
 232 0 l 1,7,-1
 65 0 l 1,8,-1
 150 534 l 1,9,-1
 61 534 l 1,10,-1
 80 658 l 1,11,-1
 169 658 l 1,12,-1
 181 730 l 1,13,-1
 347 730 l 1,14,-1
 336 658 l 1,15,-1
 576 658 l 1,16,-1
 587 730 l 1,17,-1
 754 730 l 1,18,-1
 743 658 l 1,19,-1
 832 658 l 1,0,-1
544 455 m 1,20,-1
 556 534 l 1,21,-1
 316 534 l 1,22,-1
 304 455 l 1,23,-1
 544 455 l 1,20,-1
EndSplineSet
EndChar

StartChar: I
Encoding: 73 73 72
Width: 315
GlyphClass: 2
Flags: W
AnchorPoint: "Anchor-6" 121 730 basechar 0
AnchorPoint: "Anchor-5" 210 0 basechar 0
AnchorPoint: "Anchor-4" 121 0 basechar 0
LayerCount: 2
Fore
SplineSet
141 730 m 1,0,-1
 315 730 l 1,1,-1
 200 0 l 1,2,-1
 25 0 l 1,3,-1
 141 730 l 1,0,-1
EndSplineSet
EndChar

StartChar: Iogonek
Encoding: 302 302 84
Width: 325
GlyphClass: 2
Flags: W
AnchorPoint: "Anchor-6" 121 730 basechar 0
AnchorPoint: "Anchor-5" 210 0 basechar 0
AnchorPoint: "Anchor-4" 121 0 basechar 0
LayerCount: 2
Fore
SplineSet
261 -199 m 1,0,1
 206 -219 206 -219 138 -219 c 0,2,3
 46 -219 46 -219 0.5 -186 c 128,-1,4
 -45 -153 -45 -153 -35 -92 c 0,5,6
 -31 -64 -31 -64 -15 -38 c 128,-1,7
 1 -12 1 -12 31 15 c 1,8,-1
 144 730 l 1,9,-1
 319 730 l 1,10,-1
 203 0 l 1,11,12
 123 -34 123 -34 118 -69 c 0,13,14
 116 -84 116 -84 128.5 -92 c 128,-1,15
 141 -100 141 -100 168 -100 c 0,16,17
 217 -100 217 -100 264 -80 c 1,18,-1
 261 -199 l 1,0,1
EndSplineSet
EndChar

StartChar: J
Encoding: 74 74 86
Width: 562
GlyphClass: 2
Flags: W
AnchorPoint: "Anchor-6" 245 730 basechar 0
AnchorPoint: "Anchor-4" 245 0 basechar 0
LayerCount: 2
Fore
SplineSet
70 3 m 128,-1,1
 12 16 12 16 -34 41 c 1,2,-1
 30 185 l 1,3,4
 125 140 125 140 193 140 c 0,5,6
 254 140 254 140 288 174 c 128,-1,7
 322 208 322 208 333 280 c 2,8,-1
 404 730 l 1,9,-1
 576 730 l 1,10,-1
 505 280 l 2,11,12
 481 129 481 129 404.5 59.5 c 128,-1,13
 328 -10 328 -10 186 -10 c 0,14,0
 128 -10 128 -10 70 3 c 128,-1,1
EndSplineSet
EndChar

StartChar: K
Encoding: 75 75 88
Width: 670
GlyphClass: 2
Flags: W
AnchorPoint: "Anchor-6" 285 730 basechar 0
AnchorPoint: "Anchor-4" 285 0 basechar 0
LayerCount: 2
Fore
SplineSet
134 730 m 1,0,-1
 301 730 l 1,1,-1
 252 420 l 1,2,-1
 254 420 l 1,3,-1
 522 730 l 1,4,-1
 717 730 l 1,5,-1
 404 382 l 1,6,-1
 612 0 l 1,7,-1
 417 0 l 1,8,-1
 242 343 l 1,9,-1
 240 343 l 1,10,-1
 185 0 l 1,11,-1
 19 0 l 1,12,-1
 134 730 l 1,0,-1
EndSplineSet
EndChar

StartChar: L
Encoding: 76 76 90
Width: 570
GlyphClass: 2
Flags: W
AnchorPoint: "Anchor-7" 524 730 basechar 0
AnchorPoint: "Anchor-6" 250 730 basechar 0
AnchorPoint: "Anchor-4" 250 0 basechar 0
LayerCount: 2
Fore
SplineSet
134 730 m 1,0,-1
 305 730 l 1,1,-1
 213 147 l 1,2,-1
 522 147 l 1,3,-1
 499 0 l 1,4,-1
 19 0 l 1,5,-1
 134 730 l 1,0,-1
EndSplineSet
EndChar

StartChar: Lslash
Encoding: 321 321 97
Width: 668
GlyphClass: 2
Flags: W
AnchorPoint: "Anchor-7" 620 730 basechar 0
AnchorPoint: "Anchor-6" 346 730 basechar 0
AnchorPoint: "Anchor-4" 346 0 basechar 0
LayerCount: 2
Fore
SplineSet
311 147 m 1,0,-1
 621 147 l 1,1,-1
 597 0 l 1,2,-1
 117 0 l 1,3,-1
 159 262 l 1,4,-1
 44 218 l 1,5,-1
 15 332 l 1,6,-1
 180 396 l 1,7,-1
 233 730 l 1,8,-1
 403 730 l 1,9,-1
 361 466 l 1,10,-1
 480 512 l 1,11,-1
 509 398 l 1,12,-1
 340 333 l 1,13,-1
 311 147 l 1,0,-1
EndSplineSet
EndChar

StartChar: M
Encoding: 77 77 98
Width: 855
Flags: W
LayerCount: 2
Fore
SplineSet
134 730 m 1,0,-1
 342 730 l 1,1,-1
 433 321 l 1,2,-1
 435 321 l 1,3,-1
 655 730 l 1,4,-1
 862 730 l 1,5,-1
 747 0 l 1,6,-1
 580 0 l 1,7,-1
 654 465 l 1,8,-1
 652 465 l 1,9,-1
 483 155 l 1,10,-1
 331 155 l 1,11,-1
 261 465 l 1,12,-1
 259 465 l 1,13,-1
 185 0 l 1,14,-1
 19 0 l 1,15,-1
 134 730 l 1,0,-1
EndSplineSet
EndChar

StartChar: N
Encoding: 78 78 99
Width: 710
GlyphClass: 2
Flags: W
AnchorPoint: "Anchor-6" 323 730 basechar 0
AnchorPoint: "Anchor-4" 323 0 basechar 0
LayerCount: 2
Fore
SplineSet
134 730 m 1,0,-1
 305 730 l 1,1,-1
 478 280 l 1,2,-1
 480 280 l 1,3,-1
 551 730 l 1,4,-1
 717 730 l 1,5,-1
 602 0 l 1,6,-1
 431 0 l 1,7,-1
 259 450 l 1,8,-1
 257 450 l 1,9,-1
 185 0 l 1,10,-1
 19 0 l 1,11,-1
 134 730 l 1,0,-1
EndSplineSet
EndChar

StartChar: Eng
Encoding: 330 330 104
Width: 710
GlyphClass: 2
Flags: W
AnchorPoint: "Anchor-6" 323 730 basechar 0
AnchorPoint: "Anchor-4" 323 0 basechar 0
LayerCount: 2
Fore
SplineSet
717 730 m 1,0,-1
 601 -2 l 2,1,2
 588 -84 588 -84 561.5 -133 c 128,-1,3
 535 -182 535 -182 489 -204 c 128,-1,4
 443 -226 443 -226 370 -226 c 0,5,6
 302 -226 302 -226 240 -211 c 1,7,-1
 280 -77 l 1,8,9
 316 -89 316 -89 356 -89 c 0,10,11
 392 -89 392 -89 409.5 -71.5 c 128,-1,12
 427 -54 427 -54 435 -8 c 1,13,-1
 256 433 l 1,14,-1
 254 433 l 1,15,-1
 185 0 l 1,16,-1
 19 0 l 1,17,-1
 134 730 l 1,18,-1
 305 730 l 1,19,-1
 480 297 l 1,20,-1
 482 297 l 1,21,-1
 551 730 l 1,22,-1
 717 730 l 1,0,-1
EndSplineSet
EndChar

StartChar: O
Encoding: 79 79 107
Width: 789
GlyphClass: 2
Flags: W
AnchorPoint: "Anchor-7" 556 690 basechar 0
AnchorPoint: "Anchor-6" 361 730 basechar 0
AnchorPoint: "Anchor-5" 429 0 basechar 0
AnchorPoint: "Anchor-4" 361 0 basechar 0
LayerCount: 2
Fore
SplineSet
161.5 35 m 128,-1,1
 87 80 87 80 56.5 164.5 c 128,-1,2
 26 249 26 249 45 365 c 256,3,4
 63 481 63 481 120 565.5 c 128,-1,5
 177 650 177 650 266 695 c 128,-1,6
 355 740 355 740 468 740 c 256,7,8
 581 740 581 740 655.5 695 c 128,-1,9
 730 650 730 650 760 565.5 c 128,-1,10
 790 481 790 481 772 365 c 256,11,12
 754 249 754 249 696.5 164.5 c 128,-1,13
 639 80 639 80 550.5 35 c 128,-1,14
 462 -10 462 -10 349 -10 c 256,15,0
 236 -10 236 -10 161.5 35 c 128,-1,1
524 195.5 m 128,-1,17
 583 254 583 254 600 365 c 256,18,19
 618 476 618 476 577.5 534.5 c 128,-1,20
 537 593 537 593 444 593 c 0,21,22
 350 593 350 593 291.5 534.5 c 128,-1,23
 233 476 233 476 215 365 c 256,24,25
 197 254 197 254 237.5 195.5 c 128,-1,26
 278 137 278 137 372 137 c 0,27,16
 465 137 465 137 524 195.5 c 128,-1,17
EndSplineSet
Substitution2: "Single Substitution lookup 21 subtable" ordmasculine
Substitution2: "'aalt' Access All Alternates in Latin lookup 0 subtable" ordmasculine
EndChar

StartChar: uni1ED0
Encoding: 7888 7888 111
Width: 790
GlyphClass: 2
Flags: W
AnchorPoint: "Anchor-7" 556 690 basechar 0
AnchorPoint: "Anchor-6" 361 730 basechar 0
AnchorPoint: "Anchor-5" 429 0 basechar 0
AnchorPoint: "Anchor-4" 361 0 basechar 0
LayerCount: 2
Fore
SplineSet
495 917 m 1,0,-1
 404 770 l 1,1,-1
 223 770 l 1,2,-1
 376 980 l 1,3,-1
 619 980 l 1,4,-1
 709 1160 l 1,5,-1
 905 1160 l 1,6,-1
 752 950 l 1,7,-1
 647 950 l 1,8,-1
 721 770 l 1,9,-1
 541 770 l 1,10,-1
 497 917 l 1,11,-1
 495 917 l 1,0,-1
655 695 m 128,-1,13
 730 650 730 650 760 565.5 c 128,-1,14
 790 481 790 481 772 365 c 256,15,16
 754 249 754 249 696.5 164.5 c 128,-1,17
 639 80 639 80 550.5 35 c 128,-1,18
 462 -10 462 -10 349 -10 c 256,19,20
 236 -10 236 -10 161.5 35 c 128,-1,21
 87 80 87 80 56.5 164.5 c 128,-1,22
 26 249 26 249 45 365 c 256,23,24
 63 481 63 481 120 565.5 c 128,-1,25
 177 650 177 650 266 695 c 128,-1,26
 355 740 355 740 468 740 c 256,27,12
 580 740 580 740 655 695 c 128,-1,13
524 195.5 m 128,-1,29
 583 254 583 254 600 365 c 256,30,31
 618 476 618 476 577.5 534.5 c 128,-1,32
 537 593 537 593 444 593 c 0,33,34
 350 593 350 593 291.5 534.5 c 128,-1,35
 233 476 233 476 215 365 c 256,36,37
 197 254 197 254 237.5 195.5 c 128,-1,38
 278 137 278 137 372 137 c 0,39,28
 465 137 465 137 524 195.5 c 128,-1,29
EndSplineSet
EndChar

StartChar: uni1ED2
Encoding: 7890 7890 113
Width: 790
GlyphClass: 2
Flags: W
AnchorPoint: "Anchor-7" 556 690 basechar 0
AnchorPoint: "Anchor-6" 361 730 basechar 0
AnchorPoint: "Anchor-5" 429 0 basechar 0
AnchorPoint: "Anchor-4" 361 0 basechar 0
LayerCount: 2
Fore
SplineSet
355 950 m 1,0,-1
 250 950 l 1,1,-1
 163 1160 l 1,2,-1
 359 1160 l 1,3,-1
 392 980 l 1,4,-1
 636 980 l 1,5,-1
 722 770 l 1,6,-1
 542 770 l 1,7,-1
 497 917 l 1,8,-1
 495 917 l 1,9,-1
 404 770 l 1,10,-1
 224 770 l 1,11,-1
 355 950 l 1,0,-1
655.5 695 m 128,-1,13
 730 650 730 650 760.5 565.5 c 128,-1,14
 791 481 791 481 772 365 c 256,15,16
 754 249 754 249 697 164.5 c 128,-1,17
 640 80 640 80 551 35 c 128,-1,18
 462 -10 462 -10 349 -10 c 256,19,20
 236 -10 236 -10 161.5 35 c 128,-1,21
 87 80 87 80 57 164.5 c 128,-1,22
 27 249 27 249 45 365 c 256,23,24
 63 481 63 481 120.5 565.5 c 128,-1,25
 178 650 178 650 266.5 695 c 128,-1,26
 355 740 355 740 468 740 c 256,27,12
 581 740 581 740 655.5 695 c 128,-1,13
524.5 195.5 m 128,-1,29
 583 254 583 254 601 365 c 256,30,31
 619 476 619 476 578.5 534.5 c 128,-1,32
 538 593 538 593 445 593 c 0,33,34
 351 593 351 593 292 534.5 c 128,-1,35
 233 476 233 476 216 365 c 256,36,37
 198 254 198 254 238.5 195.5 c 128,-1,38
 279 137 279 137 373 137 c 0,39,28
 466 137 466 137 524.5 195.5 c 128,-1,29
EndSplineSet
EndChar

StartChar: uni1ED4
Encoding: 7892 7892 114
Width: 789
GlyphClass: 2
Flags: W
AnchorPoint: "Anchor-7" 556 690 basechar 0
AnchorPoint: "Anchor-6" 453 1160 basechar 0
AnchorPoint: "Anchor-5" 429 0 basechar 0
AnchorPoint: "Anchor-4" 361 0 basechar 0
LayerCount: 2
Fore
SplineSet
404 770 m 1,0,-1
 223 770 l 1,1,-1
 376 980 l 1,2,-1
 619 980 l 1,3,4
 625 998 625 998 627 1012 c 0,5,6
 630 1031 630 1031 620.5 1037.5 c 128,-1,7
 611 1044 611 1044 581 1044 c 0,8,9
 512 1044 512 1044 436 1021 c 1,10,-1
 442 1140 l 1,11,12
 484 1149 484 1149 532.5 1154.5 c 128,-1,13
 581 1160 581 1160 624 1160 c 0,14,15
 695 1160 695 1160 732 1152 c 128,-1,16
 769 1144 769 1144 782 1124.5 c 128,-1,17
 795 1105 795 1105 789 1069 c 0,18,19
 785 1042 785 1042 773.5 1008.5 c 128,-1,20
 762 975 762 975 748 950 c 1,21,-1
 647 950 l 1,22,-1
 721 770 l 1,23,-1
 541 770 l 1,24,-1
 497 917 l 1,25,-1
 495 917 l 1,26,-1
 404 770 l 1,0,-1
655 695 m 128,-1,28
 730 650 730 650 760 565.5 c 128,-1,29
 790 481 790 481 772 365 c 256,30,31
 754 249 754 249 696.5 164.5 c 128,-1,32
 639 80 639 80 550.5 35 c 128,-1,33
 462 -10 462 -10 349 -10 c 256,34,35
 236 -10 236 -10 161.5 35 c 128,-1,36
 87 80 87 80 56.5 164.5 c 128,-1,37
 26 249 26 249 45 365 c 256,38,39
 63 481 63 481 120 565.5 c 128,-1,40
 177 650 177 650 266 695 c 128,-1,41
 355 740 355 740 468 740 c 256,42,27
 580 740 580 740 655 695 c 128,-1,28
524 195.5 m 128,-1,44
 583 254 583 254 600 365 c 256,45,46
 618 476 618 476 577.5 534.5 c 128,-1,47
 537 593 537 593 444 593 c 0,48,49
 350 593 350 593 291.5 534.5 c 128,-1,50
 233 476 233 476 215 365 c 256,51,52
 197 254 197 254 237.5 195.5 c 128,-1,53
 278 137 278 137 372 137 c 0,54,43
 465 137 465 137 524 195.5 c 128,-1,44
EndSplineSet
EndChar

StartChar: Ohorn
Encoding: 416 416 123
Width: 819
GlyphClass: 2
Flags: W
AnchorPoint: "Anchor-7" 809 837 basechar 0
AnchorPoint: "Anchor-6" 361 730 basechar 0
AnchorPoint: "Anchor-5" 429 0 basechar 0
AnchorPoint: "Anchor-4" 361 0 basechar 0
LayerCount: 2
Fore
SplineSet
851.5 595 m 128,-1,1
 819 553 819 553 768 540 c 1,2,3
 787 464 787 464 772 365 c 0,4,5
 754 249 754 249 696.5 164.5 c 128,-1,6
 639 80 639 80 550.5 35 c 128,-1,7
 462 -10 462 -10 349 -10 c 256,8,9
 236 -10 236 -10 161.5 35 c 128,-1,10
 87 80 87 80 56.5 164.5 c 128,-1,11
 26 249 26 249 45 365 c 256,12,13
 63 481 63 481 120 565.5 c 128,-1,14
 177 650 177 650 266 695 c 128,-1,15
 355 740 355 740 468 740 c 0,16,17
 615 740 615 740 697 664 c 1,18,19
 717 666 717 666 729.5 681.5 c 128,-1,20
 742 697 742 697 746 722 c 0,21,22
 749 744 749 744 747.5 779 c 128,-1,23
 746 814 746 814 741 837 c 1,24,-1
 896 837 l 1,25,26
 906 772 906 772 895 705 c 0,27,0
 884 637 884 637 851.5 595 c 128,-1,1
524 195.5 m 128,-1,29
 583 254 583 254 600 365 c 256,30,31
 618 476 618 476 577.5 534.5 c 128,-1,32
 537 593 537 593 444 593 c 0,33,34
 350 593 350 593 291.5 534.5 c 128,-1,35
 233 476 233 476 215 365 c 256,36,37
 197 254 197 254 237.5 195.5 c 128,-1,38
 278 137 278 137 372 137 c 0,39,28
 465 137 465 137 524 195.5 c 128,-1,29
EndSplineSet
EndChar

StartChar: uni01EA
Encoding: 490 490 132
Width: 789
GlyphClass: 2
Flags: W
AnchorPoint: "Anchor-7" 556 690 basechar 0
AnchorPoint: "Anchor-6" 361 730 basechar 0
AnchorPoint: "Anchor-5" 429 0 basechar 0
AnchorPoint: "Anchor-4" 361 0 basechar 0
LayerCount: 2
Fore
SplineSet
332 -69 m 0,1,2
 330 -84 330 -84 342.5 -92 c 128,-1,3
 355 -100 355 -100 382 -100 c 0,4,5
 431 -100 431 -100 478 -80 c 1,6,-1
 475 -199 l 1,7,8
 420 -219 420 -219 352 -219 c 0,9,10
 260 -219 260 -219 214.5 -186 c 128,-1,11
 169 -153 169 -153 179 -92 c 0,12,13
 187 -41 187 -41 234 4 c 1,14,15
 120 36 120 36 71 129 c 128,-1,16
 22 222 22 222 45 365 c 0,17,18
 63 481 63 481 120 565.5 c 128,-1,19
 177 650 177 650 266 695 c 128,-1,20
 355 740 355 740 468 740 c 256,21,22
 581 740 581 740 655.5 695 c 128,-1,23
 730 650 730 650 760 565.5 c 128,-1,24
 790 481 790 481 772 365 c 0,25,26
 746 204 746 204 648 106 c 128,-1,27
 550 8 550 8 400 -7 c 1,28,0
 337 -39 337 -39 332 -69 c 0,1,2
238 195.5 m 128,-1,30
 278 137 278 137 372 137 c 0,31,32
 465 137 465 137 524 195.5 c 128,-1,33
 583 254 583 254 600 365 c 256,34,35
 618 476 618 476 577.5 534.5 c 128,-1,36
 537 593 537 593 444 593 c 0,37,38
 350 593 350 593 291.5 534.5 c 128,-1,39
 233 476 233 476 215 365 c 256,40,29
 198 254 198 254 238 195.5 c 128,-1,30
EndSplineSet
EndChar

StartChar: Oslash
Encoding: 216 216 133
Width: 789
GlyphClass: 2
Flags: W
AnchorPoint: "Anchor-7" 556 690 basechar 0
AnchorPoint: "Anchor-6" 361 730 basechar 0
AnchorPoint: "Anchor-5" 429 0 basechar 0
AnchorPoint: "Anchor-4" 361 0 basechar 0
LayerCount: 2
Fore
SplineSet
773 516 m 128,-1,1
 785 448 785 448 772 365 c 0,2,3
 754 249 754 249 696.5 164.5 c 128,-1,4
 639 80 639 80 550.5 35 c 128,-1,5
 462 -10 462 -10 349 -10 c 0,6,7
 252 -10 252 -10 184 23 c 1,8,-1
 119 -49 l 1,9,-1
 30 29 l 1,10,-1
 92 98 l 1,11,12
 56 146 56 146 44 214 c 128,-1,13
 32 282 32 282 45 365 c 0,14,15
 63 481 63 481 120 565.5 c 128,-1,16
 177 650 177 650 266 695 c 128,-1,17
 355 740 355 740 468 740 c 0,18,19
 565 740 565 740 633 707 c 1,20,-1
 697 779 l 1,21,-1
 787 701 l 1,22,-1
 725 632 l 1,23,0
 761 584 761 584 773 516 c 128,-1,1
218 240 m 1,25,-1
 520 580 l 1,26,27
 490 593 490 593 444 593 c 0,28,29
 350 593 350 593 291.5 534.5 c 128,-1,30
 233 476 233 476 215 365 c 0,31,24
 204 292 204 292 218 240 c 1,25,-1
524 195.5 m 128,-1,33
 583 254 583 254 600 365 c 0,34,35
 611 436 611 436 598 489 c 1,36,-1
 296 150 l 1,37,38
 328 137 328 137 372 137 c 0,39,32
 465 137 465 137 524 195.5 c 128,-1,33
EndSplineSet
EndChar

StartChar: OE
Encoding: 338 338 137
Width: 1015
GlyphClass: 2
Flags: W
AnchorPoint: "Anchor-6" 701 730 basechar 0
AnchorPoint: "Anchor-5" 940 0 basechar 0
AnchorPoint: "Anchor-4" 701 0 basechar 0
LayerCount: 2
Fore
SplineSet
709 591 m 1,0,-1
 686 445 l 1,1,-1
 969 445 l 1,2,-1
 947 310 l 1,3,-1
 664 310 l 1,4,-1
 637 139 l 1,5,-1
 940 139 l 1,6,-1
 918 0 l 1,7,-1
 448 0 l 1,8,9
 403 -10 403 -10 349 -10 c 0,10,11
 236 -10 236 -10 161.5 35 c 128,-1,12
 87 80 87 80 56.5 164.5 c 128,-1,13
 26 249 26 249 45 365 c 256,14,15
 63 481 63 481 120 565.5 c 128,-1,16
 177 650 177 650 266 695 c 128,-1,17
 355 740 355 740 468 740 c 0,18,19
 523 740 523 740 564 730 c 1,20,-1
 1033 730 l 1,21,-1
 1011 591 l 1,22,-1
 709 591 l 1,0,-1
474 162 m 1,24,-1
 538 568 l 1,25,26
 503 593 503 593 444 593 c 0,27,28
 350 593 350 593 291.5 534.5 c 128,-1,29
 233 476 233 476 215 365 c 256,30,31
 197 254 197 254 237.5 195.5 c 128,-1,32
 278 137 278 137 372 137 c 0,33,23
 431 137 431 137 474 162 c 1,24,-1
EndSplineSet
EndChar

StartChar: P
Encoding: 80 80 138
Width: 625
Flags: W
LayerCount: 2
Fore
SplineSet
582 669 m 128,-1,1
 652 608 652 608 632 482 c 0,2,3
 613 360 613 360 529 297.5 c 128,-1,4
 445 235 445 235 301 235 c 2,5,-1
 223 235 l 1,6,-1
 185 0 l 1,7,-1
 19 0 l 1,8,-1
 134 730 l 1,9,-1
 347 730 l 2,10,0
 512 730 512 730 582 669 c 128,-1,1
413.5 400 m 128,-1,12
 453 426 453 426 462 482 c 256,13,14
 471 538 471 538 439.5 564 c 128,-1,15
 408 590 408 590 333 590 c 2,16,-1
 279 590 l 1,17,-1
 245 374 l 1,18,-1
 298 374 l 2,19,11
 374 374 374 374 413.5 400 c 128,-1,12
EndSplineSet
EndChar

StartChar: Thorn
Encoding: 222 222 139
Width: 625
Flags: W
LayerCount: 2
Fore
SplineSet
565 562 m 128,-1,1
 635 501 635 501 615 375 c 0,2,3
 596 253 596 253 512 190 c 128,-1,4
 428 127 428 127 284 127 c 2,5,-1
 205 127 l 1,6,-1
 185 0 l 1,7,-1
 19 0 l 1,8,-1
 134 730 l 1,9,-1
 301 730 l 1,10,-1
 284 623 l 1,11,-1
 330 623 l 2,12,0
 495 623 495 623 565 562 c 128,-1,1
396.5 293 m 128,-1,14
 436 319 436 319 445 375 c 256,15,16
 454 431 454 431 422.5 457 c 128,-1,17
 391 483 391 483 316 483 c 2,18,-1
 262 483 l 1,19,-1
 228 267 l 1,20,-1
 281 267 l 2,21,13
 357 267 357 267 396.5 293 c 128,-1,14
EndSplineSet
EndChar

StartChar: Q
Encoding: 81 81 140
Width: 793
Flags: W
LayerCount: 2
Fore
SplineSet
720 -50 m 1,1,-1
 573 -144 l 1,2,3
 537 -70 537 -70 485.5 -40 c 128,-1,4
 434 -10 434 -10 349 -10 c 0,5,6
 236 -10 236 -10 161.5 35 c 128,-1,7
 87 80 87 80 56.5 164.5 c 128,-1,8
 26 249 26 249 45 365 c 256,9,10
 63 481 63 481 120 565.5 c 128,-1,11
 177 650 177 650 266 695 c 128,-1,12
 355 740 355 740 468 740 c 256,13,14
 581 740 581 740 655.5 695 c 128,-1,15
 730 650 730 650 760 565.5 c 128,-1,16
 790 481 790 481 772 365 c 0,17,18
 756 264 756 264 708.5 187.5 c 128,-1,19
 661 111 661 111 587 64 c 1,20,0
 676 20 676 20 720 -50 c 1,1,-1
524.5 195.5 m 128,-1,22
 584 254 584 254 600 365 c 0,23,24
 619 476 619 476 578.5 534.5 c 128,-1,25
 538 593 538 593 444 593 c 0,26,27
 351 593 351 593 292.5 534.5 c 128,-1,28
 234 476 234 476 215 365 c 0,29,30
 198 254 198 254 238.5 195.5 c 128,-1,31
 279 137 279 137 372 137 c 256,32,21
 465 137 465 137 524.5 195.5 c 128,-1,22
EndSplineSet
EndChar

StartChar: R
Encoding: 82 82 141
Width: 654
GlyphClass: 2
Flags: W
AnchorPoint: "Anchor-6" 279 730 basechar 0
AnchorPoint: "Anchor-4" 279 0 basechar 0
LayerCount: 2
Fore
SplineSet
231 270 m 1,0,-1
 228 270 l 1,1,-1
 185 0 l 1,2,-1
 19 0 l 1,3,-1
 134 730 l 1,4,-1
 350 730 l 2,5,6
 514 730 514 730 584.5 674 c 128,-1,7
 655 618 655 618 636 502 c 0,8,9
 621 410 621 410 564.5 353.5 c 128,-1,10
 508 297 508 297 410 279 c 1,11,-1
 584 0 l 1,12,-1
 398 0 l 1,13,-1
 231 270 l 1,0,-1
279 590 m 1,14,-1
 249 400 l 1,15,-1
 306 400 l 2,16,17
 380 400 380 400 418 422.5 c 128,-1,18
 456 445 456 445 463 494 c 0,19,20
 471 544 471 544 440.5 567 c 128,-1,21
 410 590 410 590 337 590 c 2,22,-1
 279 590 l 1,14,-1
EndSplineSet
EndChar

StartChar: S
Encoding: 83 83 147
Width: 612
GlyphClass: 2
Flags: W
AnchorPoint: "Anchor-6" 269 730 basechar 0
AnchorPoint: "Anchor-4" 269 0 basechar 0
LayerCount: 2
Fore
SplineSet
107.5 6 m 128,-1,1
 45 22 45 22 3 53 c 1,2,-1
 76 190 l 1,3,4
 119 163 119 163 170 148 c 128,-1,5
 221 133 221 133 269 133 c 0,6,7
 320 133 320 133 350 151.5 c 128,-1,8
 380 170 380 170 385 206 c 0,9,10
 390 237 390 237 370.5 254 c 128,-1,11
 351 271 351 271 298 290 c 0,12,13
 212 321 212 321 162 353.5 c 128,-1,14
 112 386 112 386 93 428.5 c 128,-1,15
 74 471 74 471 83 531 c 0,16,17
 99 632 99 632 178 686 c 128,-1,18
 257 740 257 740 390 740 c 0,19,20
 455 740 455 740 517 727 c 128,-1,21
 579 714 579 714 620 692 c 1,22,-1
 547 555 l 1,23,24
 509 575 509 575 463.5 586 c 128,-1,25
 418 597 418 597 375 597 c 0,26,27
 322 597 322 597 292 579.5 c 128,-1,28
 262 562 262 562 257 529 c 0,29,30
 253 501 253 501 273.5 484 c 128,-1,31
 294 467 294 467 348 447 c 0,32,33
 433 415 433 415 482 382 c 128,-1,34
 531 349 531 349 550 307 c 128,-1,35
 569 265 569 265 560 206 c 0,36,37
 545 103 545 103 463 46.5 c 128,-1,38
 381 -10 381 -10 246 -10 c 0,39,0
 170 -10 170 -10 107.5 6 c 128,-1,1
EndSplineSet
EndChar

StartChar: Scedilla
Encoding: 350 350 150
Width: 612
GlyphClass: 2
Flags: W
AnchorPoint: "Anchor-6" 269 730 basechar 0
AnchorPoint: "Anchor-4" 269 0 basechar 0
LayerCount: 2
Fore
SplineSet
502.5 80.5 m 128,-1,1
 456 30 456 30 378 7 c 1,2,3
 412 -42 412 -42 405 -92 c 0,4,5
 395 -153 395 -153 339.5 -186 c 128,-1,6
 284 -219 284 -219 192 -219 c 0,7,8
 124 -219 124 -219 75 -199 c 1,9,-1
 110 -80 l 1,10,11
 151 -100 151 -100 200 -100 c 0,12,13
 226 -100 226 -100 241.5 -92 c 128,-1,14
 257 -84 257 -84 260 -69 c 0,15,16
 265 -39 265 -39 213 -9 c 1,17,18
 81 -3 81 -3 3 53 c 1,19,-1
 76 190 l 1,20,21
 119 163 119 163 170 148 c 128,-1,22
 221 133 221 133 269 133 c 0,23,24
 320 133 320 133 350 151.5 c 128,-1,25
 380 170 380 170 385 206 c 0,26,27
 390 237 390 237 370.5 254 c 128,-1,28
 351 271 351 271 298 290 c 0,29,30
 212 321 212 321 162 353.5 c 128,-1,31
 112 386 112 386 93 428.5 c 128,-1,32
 74 471 74 471 83 531 c 0,33,34
 99 632 99 632 178 686 c 128,-1,35
 257 740 257 740 390 740 c 0,36,37
 455 740 455 740 517 727 c 128,-1,38
 579 714 579 714 620 692 c 1,39,-1
 547 555 l 1,40,41
 509 575 509 575 463.5 586 c 128,-1,42
 418 597 418 597 375 597 c 0,43,44
 322 597 322 597 292 579.5 c 128,-1,45
 262 562 262 562 257 529 c 0,46,47
 253 501 253 501 273.5 484 c 128,-1,48
 294 467 294 467 348 447 c 0,49,50
 433 415 433 415 482 382 c 128,-1,51
 531 349 531 349 550 307 c 128,-1,52
 569 265 569 265 560 206 c 0,53,0
 549 131 549 131 502.5 80.5 c 128,-1,1
EndSplineSet
Substitution2: "'locl' Localized Forms in Latin lookup 4 subtable" uni0218
Substitution2: "'aalt' Access All Alternates in Latin lookup 0 subtable" uni0218
EndChar

StartChar: uni1E9E
Encoding: 7838 7838 153
Width: 684
Flags: W
LayerCount: 2
Fore
SplineSet
249 14 m 1,1,-1
 293 156 l 1,2,3
 337 137 337 137 378 137 c 0,4,5
 423 137 423 137 449.5 156 c 128,-1,6
 476 175 476 175 482 212 c 0,7,8
 488 253 488 253 459 270 c 128,-1,9
 430 287 430 287 350 287 c 2,10,-1
 346 287 l 1,11,-1
 364 400 l 1,12,-1
 471 520 l 1,13,14
 477 558 477 558 455.5 575.5 c 128,-1,15
 434 593 434 593 383 593 c 0,16,17
 327 593 327 593 299.5 571.5 c 128,-1,18
 272 550 272 550 265 501 c 2,19,-1
 185 0 l 1,20,-1
 19 0 l 1,21,-1
 98 501 l 2,22,23
 117 621 117 621 193.5 680.5 c 128,-1,24
 270 740 270 740 406 740 c 0,25,26
 672 740 672 740 636 511 c 1,27,-1
 525 393 l 1,28,-1
 525 391 l 1,29,30
 600 379 600 379 631.5 331.5 c 128,-1,31
 663 284 663 284 651 205 c 0,32,33
 635 101 635 101 564.5 45.5 c 128,-1,34
 494 -10 494 -10 380 -10 c 0,35,0
 307 -10 307 -10 249 14 c 1,1,-1
EndSplineSet
EndChar

StartChar: uni018F
Encoding: 399 399 154
Width: 741
Flags: W
LayerCount: 2
Fore
SplineSet
664.5 643 m 128,-1,1
 751 546 751 546 722 365 c 0,2,3
 704 249 704 249 649 164.5 c 128,-1,4
 594 80 594 80 509 35 c 128,-1,5
 424 -10 424 -10 318 -10 c 0,6,7
 213 -10 213 -10 144.5 33 c 128,-1,8
 76 76 76 76 49.5 157.5 c 128,-1,9
 23 239 23 239 41 353 c 0,10,11
 51 419 51 419 58 436 c 1,12,-1
 567 436 l 1,13,14
 575 518 575 518 529.5 555.5 c 128,-1,15
 484 593 484 593 375 593 c 0,16,17
 262 593 262 593 149 555 c 1,18,-1
 142 697 l 1,19,20
 193 717 193 717 258.5 728.5 c 128,-1,21
 324 740 324 740 387 740 c 0,22,0
 578 740 578 740 664.5 643 c 128,-1,1
471.5 176.5 m 128,-1,24
 520 216 520 216 542 298 c 1,25,-1
 202 298 l 1,26,27
 198 216 198 216 233 176.5 c 128,-1,28
 268 137 268 137 346 137 c 256,29,23
 423 137 423 137 471.5 176.5 c 128,-1,24
EndSplineSet
EndChar

StartChar: T
Encoding: 84 84 155
Width: 627
GlyphClass: 2
Flags: W
AnchorPoint: "Anchor-8" 190 0 basechar 0
AnchorPoint: "Anchor-6" 278 730 basechar 0
AnchorPoint: "Anchor-4" 278 0 basechar 0
LayerCount: 2
Fore
SplineSet
276 583 m 1,0,-1
 72 583 l 1,1,-1
 95 730 l 1,2,-1
 674 730 l 1,3,-1
 651 583 l 1,4,-1
 446 583 l 1,5,-1
 354 0 l 1,6,-1
 183 0 l 1,7,-1
 276 583 l 1,0,-1
EndSplineSet
EndChar

StartChar: Tbar
Encoding: 358 358 156
Width: 676
GlyphClass: 2
Flags: W
AnchorPoint: "Anchor-8" 217 0 basechar 0
AnchorPoint: "Anchor-6" 304 730 basechar 0
AnchorPoint: "Anchor-4" 304 0 basechar 0
LayerCount: 2
Fore
SplineSet
675 583 m 1,0,-1
 471 583 l 1,1,-1
 438 377 l 1,2,-1
 592 377 l 1,3,-1
 573 253 l 1,4,-1
 419 253 l 1,5,-1
 379 0 l 1,6,-1
 208 0 l 1,7,-1
 248 253 l 1,8,-1
 95 253 l 1,9,-1
 115 377 l 1,10,-1
 268 377 l 1,11,-1
 300 583 l 1,12,-1
 96 583 l 1,13,-1
 119 730 l 1,14,-1
 698 730 l 1,15,-1
 675 583 l 1,0,-1
EndSplineSet
EndChar

StartChar: uni0162
Encoding: 354 354 158
Width: 627
GlyphClass: 2
Flags: W
AnchorPoint: "Anchor-8" 190 0 basechar 0
AnchorPoint: "Anchor-6" 278 730 basechar 0
AnchorPoint: "Anchor-4" 278 0 basechar 0
LayerCount: 2
Fore
SplineSet
446 583 m 1,0,-1
 357 19 l 1,1,2
 401 -35 401 -35 392 -92 c 0,3,4
 382 -153 382 -153 326.5 -186 c 128,-1,5
 271 -219 271 -219 179 -219 c 0,6,7
 111 -219 111 -219 63 -199 c 1,8,-1
 97 -80 l 1,9,10
 138 -100 138 -100 187 -100 c 0,11,12
 214 -100 214 -100 230 -92 c 128,-1,13
 246 -84 246 -84 248 -69 c 0,14,15
 253 -35 253 -35 183 0 c 1,16,-1
 276 583 l 1,17,-1
 72 583 l 1,18,-1
 95 730 l 1,19,-1
 674 730 l 1,20,-1
 651 583 l 1,21,-1
 446 583 l 1,0,-1
EndSplineSet
Substitution2: "'locl' Localized Forms in Latin lookup 4 subtable" uni021A
Substitution2: "'aalt' Access All Alternates in Latin lookup 0 subtable" uni021A
EndChar

StartChar: U
Encoding: 85 85 160
Width: 689
GlyphClass: 2
Flags: W
AnchorPoint: "Anchor-7" 580 690 basechar 0
AnchorPoint: "Anchor-6" 312 730 basechar 0
AnchorPoint: "Anchor-5" 442 10 basechar 0
AnchorPoint: "Anchor-4" 312 0 basechar 0
LayerCount: 2
Fore
SplineSet
96.5 62 m 128,-1,1
 34 134 34 134 55 270 c 2,2,-1
 128 730 l 1,3,-1
 295 730 l 1,4,-1
 225 291 l 2,5,6
 212 207 212 207 234 172 c 128,-1,7
 256 137 256 137 322 137 c 0,8,9
 388 137 388 137 421 172 c 128,-1,10
 454 207 454 207 467 291 c 2,11,-1
 537 730 l 1,12,-1
 703 730 l 1,13,-1
 630 270 l 2,14,15
 608 133 608 133 523.5 61.5 c 128,-1,16
 439 -10 439 -10 299 -10 c 256,17,0
 159 -10 159 -10 96.5 62 c 128,-1,1
EndSplineSet
EndChar

StartChar: Uhorn
Encoding: 431 431 169
Width: 832
GlyphClass: 2
Flags: W
AnchorPoint: "Anchor-7" 833 837 basechar 0
AnchorPoint: "Anchor-6" 312 730 basechar 0
AnchorPoint: "Anchor-5" 442 10 basechar 0
AnchorPoint: "Anchor-4" 312 0 basechar 0
LayerCount: 2
Fore
SplineSet
917 705 m 0,1,2
 904 623 904 623 859.5 579 c 128,-1,3
 815 535 815 535 746 535 c 0,4,5
 710 535 710 535 674 548 c 1,6,-1
 630 270 l 2,7,8
 608 133 608 133 523.5 61.5 c 128,-1,9
 439 -10 439 -10 299 -10 c 256,10,11
 159 -10 159 -10 96.5 62 c 128,-1,12
 34 134 34 134 55 270 c 2,13,-1
 128 730 l 1,14,-1
 295 730 l 1,15,-1
 225 291 l 2,16,17
 212 207 212 207 234 172 c 128,-1,18
 256 137 256 137 322 137 c 0,19,20
 388 137 388 137 421 172 c 128,-1,21
 454 207 454 207 467 291 c 2,22,-1
 537 730 l 1,23,-1
 703 730 l 1,24,-1
 693 666 l 1,25,26
 701 663 701 663 710 663 c 0,27,28
 733 663 733 663 748 678.5 c 128,-1,29
 763 694 763 694 768 722 c 0,30,31
 771 744 771 744 769 779 c 128,-1,32
 767 814 767 814 762 837 c 1,33,-1
 917 837 l 1,34,0
 928 772 928 772 917 705 c 0,1,2
EndSplineSet
EndChar

StartChar: Uogonek
Encoding: 370 370 178
Width: 689
GlyphClass: 2
Flags: W
AnchorPoint: "Anchor-7" 580 690 basechar 0
AnchorPoint: "Anchor-6" 312 730 basechar 0
AnchorPoint: "Anchor-5" 442 10 basechar 0
AnchorPoint: "Anchor-4" 312 0 basechar 0
LayerCount: 2
Fore
SplineSet
703 730 m 1,0,-1
 630 270 l 2,1,2
 614 168 614 168 562 101.5 c 128,-1,3
 510 35 510 35 424 8 c 1,4,5
 349 -26 349 -26 344 -59 c 0,6,7
 342 -74 342 -74 355 -82 c 128,-1,8
 368 -90 368 -90 394 -90 c 0,9,10
 443 -90 443 -90 490 -70 c 1,11,-1
 487 -189 l 1,12,13
 432 -209 432 -209 364 -209 c 0,14,15
 272 -209 272 -209 227 -176 c 128,-1,16
 182 -143 182 -143 191 -82 c 0,17,18
 197 -41 197 -41 229 -5 c 1,19,20
 125 12 125 12 80.5 82 c 128,-1,21
 36 152 36 152 55 270 c 2,22,-1
 128 730 l 1,23,-1
 295 730 l 1,24,-1
 225 291 l 2,25,26
 212 207 212 207 234 172 c 128,-1,27
 256 137 256 137 322 137 c 0,28,29
 388 137 388 137 421 172 c 128,-1,30
 454 207 454 207 467 291 c 2,31,-1
 537 730 l 1,32,-1
 703 730 l 1,0,-1
EndSplineSet
EndChar

StartChar: V
Encoding: 86 86 181
Width: 678
Flags: W
LayerCount: 2
Fore
SplineSet
79 730 m 1,0,-1
 262 730 l 1,1,-1
 320 170 l 1,2,-1
 322 170 l 1,3,-1
 558 730 l 1,4,-1
 741 730 l 1,5,-1
 403 0 l 1,6,-1
 186 0 l 1,7,-1
 79 730 l 1,0,-1
EndSplineSet
EndChar

StartChar: W
Encoding: 87 87 182
Width: 929
GlyphClass: 2
Flags: W
AnchorPoint: "Anchor-6" 431 730 basechar 0
AnchorPoint: "Anchor-4" 431 0 basechar 0
LayerCount: 2
Fore
SplineSet
507 557 m 1,0,-1
 505 557 l 1,1,-1
 327 0 l 1,2,-1
 132 0 l 1,3,-1
 90 730 l 1,4,-1
 258 730 l 1,5,-1
 260 173 l 1,6,-1
 262 173 l 1,7,-1
 435 730 l 1,8,-1
 637 730 l 1,9,-1
 633 173 l 1,10,-1
 635 173 l 1,11,-1
 813 730 l 1,12,-1
 978 730 l 1,13,-1
 704 0 l 1,14,-1
 509 0 l 1,15,-1
 507 557 l 1,0,-1
EndSplineSet
EndChar

StartChar: X
Encoding: 88 88 187
Width: 676
Flags: W
LayerCount: 2
Fore
SplineSet
226 366 m 1,0,-1
 103 730 l 1,1,-1
 291 730 l 1,2,-1
 365 460 l 1,3,-1
 367 460 l 1,4,-1
 527 730 l 1,5,-1
 715 730 l 1,6,-1
 475 366 l 1,7,-1
 600 0 l 1,8,-1
 412 0 l 1,9,-1
 337 271 l 1,10,-1
 335 271 l 1,11,-1
 174 0 l 1,12,-1
 -14 0 l 1,13,-1
 226 366 l 1,0,-1
EndSplineSet
EndChar

StartChar: Y
Encoding: 89 89 188
Width: 662
GlyphClass: 2
Flags: W
AnchorPoint: "Anchor-6" 293 730 basechar 0
AnchorPoint: "Anchor-4" 293 0 basechar 0
LayerCount: 2
Fore
SplineSet
243 278 m 1,0,-1
 75 730 l 1,1,-1
 260 730 l 1,2,-1
 352 425 l 1,3,-1
 354 425 l 1,4,-1
 544 730 l 1,5,-1
 729 730 l 1,6,-1
 417 278 l 1,7,-1
 373 0 l 1,8,-1
 199 0 l 1,9,-1
 243 278 l 1,0,-1
EndSplineSet
EndChar

StartChar: Z
Encoding: 90 90 197
Width: 621
GlyphClass: 2
Flags: W
AnchorPoint: "Anchor-6" 276 730 basechar 0
AnchorPoint: "Anchor-4" 276 0 basechar 0
LayerCount: 2
Fore
SplineSet
29 143 m 1,0,-1
 420 585 l 1,1,-1
 420 587 l 1,2,-1
 99 587 l 1,3,-1
 122 730 l 1,4,-1
 641 730 l 1,5,-1
 618 587 l 1,6,-1
 227 145 l 1,7,-1
 227 143 l 1,8,-1
 548 143 l 1,9,-1
 525 0 l 1,10,-1
 6 0 l 1,11,-1
 29 143 l 1,0,-1
EndSplineSet
EndChar

StartChar: a
Encoding: 97 97 201
Width: 534
GlyphClass: 2
Flags: W
AnchorPoint: "Anchor-6" 229 520 basechar 0
AnchorPoint: "Anchor-5" 470 0 basechar 0
AnchorPoint: "Anchor-4" 229 0 basechar 0
LayerCount: 2
Fore
SplineSet
464.5 482 m 128,-1,1
 507 434 507 434 489 322 c 2,2,-1
 438 0 l 1,3,-1
 290 0 l 1,4,-1
 298 63 l 1,5,-1
 296 63 l 1,6,7
 264 28 264 28 221.5 9 c 128,-1,8
 179 -10 179 -10 134 -10 c 0,9,10
 63 -10 63 -10 27 33.5 c 128,-1,11
 -9 77 -9 77 2 148 c 0,12,13
 16 237 16 237 95.5 285 c 128,-1,14
 175 333 175 333 306 333 c 2,15,-1
 335 333 l 1,16,17
 341 377 341 377 328.5 392 c 128,-1,18
 316 407 316 407 275 407 c 0,19,20
 186 407 186 407 85 363 c 1,21,-1
 70 481 l 1,22,23
 124 505 124 505 185 517.5 c 128,-1,24
 246 530 246 530 306 530 c 0,25,0
 422 530 422 530 464.5 482 c 128,-1,1
275.5 135 m 128,-1,27
 308 161 308 161 313 198 c 2,28,-1
 319 234 l 1,29,-1
 291 234 l 2,30,31
 160 234 160 234 149 165 c 0,32,33
 145 139 145 139 159.5 124 c 128,-1,34
 174 109 174 109 203 109 c 0,35,26
 243 109 243 109 275.5 135 c 128,-1,27
EndSplineSet
Substitution2: "Single Substitution lookup 21 subtable" ordfeminine
Substitution2: "'aalt' Access All Alternates in Latin lookup 0 subtable" ordfeminine
EndChar

StartChar: uni1EAF
Encoding: 7855 7855 204
Width: 534
GlyphClass: 2
Flags: W
AnchorPoint: "Anchor-6" 229 520 basechar 0
AnchorPoint: "Anchor-5" 470 0 basechar 0
AnchorPoint: "Anchor-4" 229 0 basechar 0
LayerCount: 2
Fore
SplineSet
191 584 m 128,-1,1
 145 610 145 610 123.5 656 c 128,-1,2
 102 702 102 702 110 761 c 1,3,-1
 233 761 l 1,4,-1
 329 960 l 1,5,-1
 518 960 l 1,6,-1
 370 750 l 1,7,-1
 255 750 l 1,8,9
 254 673 254 673 318 673 c 0,10,11
 353 673 353 673 375.5 694.5 c 128,-1,12
 398 716 398 716 411 761 c 1,13,-1
 554 761 l 1,14,15
 544 702 544 702 508 656 c 128,-1,16
 472 610 472 610 417.5 584 c 128,-1,17
 363 558 363 558 300 558 c 256,18,0
 237 558 237 558 191 584 c 128,-1,1
464.5 482 m 128,-1,20
 507 434 507 434 489 322 c 2,21,-1
 438 0 l 1,22,-1
 290 0 l 1,23,-1
 298 63 l 1,24,-1
 296 63 l 1,25,26
 264 28 264 28 221.5 9 c 128,-1,27
 179 -10 179 -10 134 -10 c 0,28,29
 63 -10 63 -10 27 33.5 c 128,-1,30
 -9 77 -9 77 2 148 c 0,31,32
 16 237 16 237 95.5 285 c 128,-1,33
 175 333 175 333 306 333 c 2,34,-1
 335 333 l 1,35,36
 341 377 341 377 328.5 392 c 128,-1,37
 316 407 316 407 275 407 c 0,38,39
 186 407 186 407 85 363 c 1,40,-1
 70 481 l 1,41,42
 124 505 124 505 185 517.5 c 128,-1,43
 246 530 246 530 306 530 c 0,44,19
 422 530 422 530 464.5 482 c 128,-1,20
275.5 135 m 128,-1,46
 308 161 308 161 313 198 c 2,47,-1
 319 234 l 1,48,-1
 291 234 l 2,49,50
 160 234 160 234 149 165 c 0,51,52
 145 139 145 139 159.5 124 c 128,-1,53
 174 109 174 109 203 109 c 0,54,45
 243 109 243 109 275.5 135 c 128,-1,46
EndSplineSet
EndChar

StartChar: uni1EB1
Encoding: 7857 7857 206
Width: 534
GlyphClass: 2
Flags: W
AnchorPoint: "Anchor-6" 229 520 basechar 0
AnchorPoint: "Anchor-5" 470 0 basechar 0
AnchorPoint: "Anchor-4" 229 0 basechar 0
LayerCount: 2
Fore
SplineSet
373 692 m 128,-1,1
 395 711 395 711 407 750 c 1,2,-1
 293 750 l 1,3,-1
 211 960 l 1,4,-1
 400 960 l 1,5,-1
 433 761 l 1,6,-1
 554 761 l 1,7,8
 544 702 544 702 508 656 c 128,-1,9
 472 610 472 610 417.5 584 c 128,-1,10
 363 558 363 558 300 558 c 256,11,12
 237 558 237 558 191 584 c 128,-1,13
 145 610 145 610 123.5 656 c 128,-1,14
 102 702 102 702 110 761 c 1,15,-1
 254 761 l 1,16,17
 252 716 252 716 267.5 694.5 c 128,-1,18
 283 673 283 673 318 673 c 0,19,0
 351 673 351 673 373 692 c 128,-1,1
464.5 482 m 128,-1,21
 507 434 507 434 489 322 c 2,22,-1
 438 0 l 1,23,-1
 290 0 l 1,24,-1
 298 63 l 1,25,-1
 296 63 l 1,26,27
 264 28 264 28 221.5 9 c 128,-1,28
 179 -10 179 -10 134 -10 c 0,29,30
 63 -10 63 -10 27 33.5 c 128,-1,31
 -9 77 -9 77 2 148 c 0,32,33
 16 237 16 237 95.5 285 c 128,-1,34
 175 333 175 333 306 333 c 2,35,-1
 335 333 l 1,36,37
 341 377 341 377 328.5 392 c 128,-1,38
 316 407 316 407 275 407 c 0,39,40
 186 407 186 407 85 363 c 1,41,-1
 70 481 l 1,42,43
 124 505 124 505 185 517.5 c 128,-1,44
 246 530 246 530 306 530 c 0,45,20
 422 530 422 530 464.5 482 c 128,-1,21
275.5 135 m 128,-1,47
 308 161 308 161 313 198 c 2,48,-1
 319 234 l 1,49,-1
 291 234 l 2,50,51
 160 234 160 234 149 165 c 0,52,53
 145 139 145 139 159.5 124 c 128,-1,54
 174 109 174 109 203 109 c 0,55,46
 243 109 243 109 275.5 135 c 128,-1,47
EndSplineSet
EndChar

StartChar: uni1EB3
Encoding: 7859 7859 207
Width: 534
GlyphClass: 2
Flags: W
AnchorPoint: "Anchor-6" 229 961 basechar 0
AnchorPoint: "Anchor-5" 469 0 basechar 0
AnchorPoint: "Anchor-4" 229 0 basechar 0
LayerCount: 2
Fore
SplineSet
372.5 692 m 128,-1,1
 394 711 394 711 407 751 c 1,2,-1
 346 751 l 1,3,4
 362 784 362 784 366 813 c 0,5,6
 369 832 369 832 359.5 838.5 c 128,-1,7
 350 845 350 845 322 845 c 0,8,9
 256 845 256 845 181 822 c 1,10,-1
 188 941 l 1,11,12
 228 950 228 950 275 955.5 c 128,-1,13
 322 961 322 961 364 961 c 0,14,15
 432 961 432 961 467.5 953 c 128,-1,16
 503 945 503 945 515.5 925.5 c 128,-1,17
 528 906 528 906 522 870 c 0,18,19
 518 845 518 845 508.5 815 c 128,-1,20
 499 785 499 785 487 761 c 1,21,-1
 553 761 l 1,22,23
 543 702 543 702 507 656 c 128,-1,24
 471 610 471 610 417 584 c 128,-1,25
 363 558 363 558 300 558 c 256,26,27
 237 558 237 558 191 584 c 128,-1,28
 145 610 145 610 123.5 656 c 128,-1,29
 102 702 102 702 110 761 c 1,30,-1
 254 761 l 1,31,32
 252 716 252 716 267.5 694.5 c 128,-1,33
 283 673 283 673 318 673 c 0,34,0
 351 673 351 673 372.5 692 c 128,-1,1
464 482 m 128,-1,36
 506 434 506 434 489 322 c 2,37,-1
 438 0 l 1,38,-1
 289 0 l 1,39,-1
 297 63 l 1,40,-1
 295 63 l 1,41,42
 263 28 263 28 221 9 c 128,-1,43
 179 -10 179 -10 134 -10 c 0,44,45
 63 -10 63 -10 27 33.5 c 128,-1,46
 -9 77 -9 77 2 148 c 0,47,48
 16 237 16 237 95.5 285 c 128,-1,49
 175 333 175 333 306 333 c 2,50,-1
 334 333 l 1,51,52
 340 377 340 377 328 392 c 128,-1,53
 316 407 316 407 274 407 c 0,54,55
 185 407 185 407 85 363 c 1,56,-1
 70 481 l 1,57,58
 124 505 124 505 184.5 517.5 c 128,-1,59
 245 530 245 530 306 530 c 0,60,35
 422 530 422 530 464 482 c 128,-1,36
275 135 m 128,-1,62
 307 161 307 161 313 198 c 2,63,-1
 319 234 l 1,64,-1
 290 234 l 2,65,66
 159 234 159 234 149 165 c 0,67,68
 145 139 145 139 159.5 124 c 128,-1,69
 174 109 174 109 203 109 c 0,70,61
 243 109 243 109 275 135 c 128,-1,62
EndSplineSet
EndChar

StartChar: uni1EA5
Encoding: 7845 7845 210
Width: 540
GlyphClass: 2
Flags: W
AnchorPoint: "Anchor-6" 229 520 basechar 0
AnchorPoint: "Anchor-5" 470 0 basechar 0
AnchorPoint: "Anchor-4" 229 0 basechar 0
LayerCount: 2
Fore
SplineSet
721 950 m 1,0,-1
 572 740 l 1,1,-1
 470 740 l 1,2,-1
 540 560 l 1,3,-1
 367 560 l 1,4,-1
 325 707 l 1,5,-1
 323 707 l 1,6,-1
 234 560 l 1,7,-1
 61 560 l 1,8,-1
 209 770 l 1,9,-1
 445 770 l 1,10,-1
 532 950 l 1,11,-1
 721 950 l 1,0,-1
464.5 482 m 128,-1,13
 507 434 507 434 489 322 c 2,14,-1
 438 0 l 1,15,-1
 290 0 l 1,16,-1
 298 63 l 1,17,-1
 296 63 l 1,18,19
 264 28 264 28 222 9 c 128,-1,20
 180 -10 180 -10 134 -10 c 0,21,22
 63 -10 63 -10 27 33.5 c 128,-1,23
 -9 77 -9 77 2 148 c 0,24,25
 16 237 16 237 95.5 285 c 128,-1,26
 175 333 175 333 307 333 c 2,27,-1
 335 333 l 1,28,29
 341 377 341 377 329 392 c 128,-1,30
 317 407 317 407 275 407 c 0,31,32
 186 407 186 407 85 363 c 1,33,-1
 70 481 l 1,34,35
 124 505 124 505 185 517.5 c 128,-1,36
 246 530 246 530 306 530 c 0,37,12
 422 530 422 530 464.5 482 c 128,-1,13
276 135 m 128,-1,39
 308 161 308 161 314 198 c 2,40,-1
 319 234 l 1,41,-1
 291 234 l 2,42,43
 160 234 160 234 149 165 c 0,44,45
 145 139 145 139 159.5 124 c 128,-1,46
 174 109 174 109 204 109 c 0,47,38
 244 109 244 109 276 135 c 128,-1,39
EndSplineSet
EndChar

StartChar: uni1EA7
Encoding: 7847 7847 212
Width: 540
GlyphClass: 2
Flags: W
AnchorPoint: "Anchor-6" 229 520 basechar 0
AnchorPoint: "Anchor-5" 470 0 basechar 0
AnchorPoint: "Anchor-4" 229 0 basechar 0
LayerCount: 2
Fore
SplineSet
239 560 m 1,0,-1
 66 560 l 1,1,-1
 193 740 l 1,2,-1
 93 740 l 1,3,-1
 10 950 l 1,4,-1
 199 950 l 1,5,-1
 229 770 l 1,6,-1
 464 770 l 1,7,-1
 545 560 l 1,8,-1
 372 560 l 1,9,-1
 330 707 l 1,10,-1
 328 707 l 1,11,-1
 239 560 l 1,0,-1
469.5 482 m 128,-1,13
 512 434 512 434 494 322 c 2,14,-1
 443 0 l 1,15,-1
 295 0 l 1,16,-1
 303 63 l 1,17,-1
 301 63 l 1,18,19
 269 28 269 28 227 9 c 128,-1,20
 185 -10 185 -10 139 -10 c 0,21,22
 68 -10 68 -10 32 33.5 c 128,-1,23
 -4 77 -4 77 7 148 c 0,24,25
 21 237 21 237 100.5 285 c 128,-1,26
 180 333 180 333 312 333 c 2,27,-1
 340 333 l 1,28,29
 346 377 346 377 334 392 c 128,-1,30
 322 407 322 407 280 407 c 0,31,32
 191 407 191 407 90 363 c 1,33,-1
 75 481 l 1,34,35
 129 505 129 505 190 517.5 c 128,-1,36
 251 530 251 530 311 530 c 0,37,12
 427 530 427 530 469.5 482 c 128,-1,13
281 135 m 128,-1,39
 313 161 313 161 319 198 c 2,40,-1
 324 234 l 1,41,-1
 296 234 l 2,42,43
 165 234 165 234 154 165 c 0,44,45
 150 139 150 139 164.5 124 c 128,-1,46
 179 109 179 109 209 109 c 0,47,38
 249 109 249 109 281 135 c 128,-1,39
EndSplineSet
EndChar

StartChar: uni1EA9
Encoding: 7849 7849 213
Width: 536
GlyphClass: 2
Flags: W
AnchorPoint: "Anchor-6" 323 950 basechar 0
AnchorPoint: "Anchor-5" 470 0 basechar 0
AnchorPoint: "Anchor-4" 229 0 basechar 0
LayerCount: 2
Fore
SplineSet
470 740 m 1,0,-1
 540 560 l 1,1,-1
 367 560 l 1,2,-1
 325 707 l 1,3,-1
 323 707 l 1,4,-1
 234 560 l 1,5,-1
 61 560 l 1,6,-1
 209 770 l 1,7,-1
 445 770 l 1,8,9
 451 788 451 788 453 802 c 0,10,11
 456 821 456 821 446.5 827.5 c 128,-1,12
 437 834 437 834 408 834 c 0,13,14
 342 834 342 834 267 811 c 1,15,-1
 274 930 l 1,16,17
 314 939 314 939 361 944.5 c 128,-1,18
 408 950 408 950 450 950 c 0,19,20
 518 950 518 950 553.5 942 c 128,-1,21
 589 934 589 934 601.5 914.5 c 128,-1,22
 614 895 614 895 608 859 c 0,23,24
 604 832 604 832 592.5 798.5 c 128,-1,25
 581 765 581 765 568 740 c 1,26,-1
 470 740 l 1,0,-1
464.5 482 m 128,-1,28
 507 434 507 434 489 322 c 2,29,-1
 438 0 l 1,30,-1
 290 0 l 1,31,-1
 298 63 l 1,32,-1
 296 63 l 1,33,34
 264 28 264 28 222 9 c 128,-1,35
 180 -10 180 -10 134 -10 c 0,36,37
 63 -10 63 -10 27 33.5 c 128,-1,38
 -9 77 -9 77 2 148 c 0,39,40
 16 237 16 237 95.5 285 c 128,-1,41
 175 333 175 333 307 333 c 2,42,-1
 335 333 l 1,43,44
 341 377 341 377 329 392 c 128,-1,45
 317 407 317 407 275 407 c 0,46,47
 186 407 186 407 85 363 c 1,48,-1
 70 481 l 1,49,50
 124 505 124 505 185 517.5 c 128,-1,51
 246 530 246 530 306 530 c 0,52,27
 422 530 422 530 464.5 482 c 128,-1,28
276 135 m 128,-1,54
 308 161 308 161 314 198 c 2,55,-1
 319 234 l 1,56,-1
 291 234 l 2,57,58
 160 234 160 234 149 165 c 0,59,60
 145 139 145 139 159.5 124 c 128,-1,61
 174 109 174 109 204 109 c 0,62,53
 244 109 244 109 276 135 c 128,-1,54
EndSplineSet
EndChar

StartChar: aogonek
Encoding: 261 261 222
Width: 538
GlyphClass: 2
Flags: W
AnchorPoint: "Anchor-6" 229 520 basechar 0
AnchorPoint: "Anchor-5" 470 0 basechar 0
AnchorPoint: "Anchor-4" 229 0 basechar 0
LayerCount: 2
Fore
SplineSet
492 -199 m 1,0,1
 439 -219 439 -219 374 -219 c 0,2,3
 285 -219 285 -219 242 -186 c 128,-1,4
 199 -153 199 -153 209 -92 c 0,5,6
 214 -59 214 -59 234 -29.5 c 128,-1,7
 254 0 254 0 293 33 c 1,8,-1
 297 63 l 1,9,-1
 295 63 l 1,10,11
 263 28 263 28 221 9 c 128,-1,12
 179 -10 179 -10 134 -10 c 0,13,14
 63 -10 63 -10 27 33.5 c 128,-1,15
 -9 77 -9 77 2 148 c 0,16,17
 16 237 16 237 95.5 285 c 128,-1,18
 175 333 175 333 306 333 c 2,19,-1
 334 333 l 1,20,21
 340 377 340 377 328 392 c 128,-1,22
 316 407 316 407 274 407 c 0,23,24
 185 407 185 407 85 363 c 1,25,-1
 70 481 l 1,26,27
 124 505 124 505 184.5 517.5 c 128,-1,28
 245 530 245 530 306 530 c 0,29,30
 422 530 422 530 464 482 c 128,-1,31
 506 434 506 434 488 322 c 2,32,-1
 437 0 l 1,33,34
 360 -34 360 -34 355 -69 c 0,35,36
 353 -84 353 -84 365.5 -92 c 128,-1,37
 378 -100 378 -100 403 -100 c 0,38,39
 450 -100 450 -100 496 -80 c 1,40,-1
 492 -199 l 1,0,1
275 135 m 128,-1,42
 307 161 307 161 313 198 c 2,43,-1
 319 234 l 1,44,-1
 290 234 l 2,45,46
 159 234 159 234 149 165 c 0,47,48
 145 139 145 139 159.5 124 c 128,-1,49
 174 109 174 109 203 109 c 0,50,41
 243 109 243 109 275 135 c 128,-1,42
EndSplineSet
EndChar

StartChar: aring
Encoding: 229 229 223
Width: 534
GlyphClass: 2
Flags: W
AnchorPoint: "Anchor-6" 229 743 basechar 0
AnchorPoint: "Anchor-5" 469 0 basechar 0
AnchorPoint: "Anchor-4" 229 0 basechar 0
LayerCount: 2
Fore
SplineSet
477 464 m 128,-1,1
 504 416 504 416 489 322 c 2,2,-1
 438 0 l 1,3,-1
 289 0 l 1,4,-1
 297 63 l 1,5,-1
 295 63 l 1,6,7
 263 28 263 28 221 9 c 128,-1,8
 179 -10 179 -10 134 -10 c 0,9,10
 63 -10 63 -10 27 33.5 c 128,-1,11
 -9 77 -9 77 2 148 c 0,12,13
 16 237 16 237 95.5 285 c 128,-1,14
 175 333 175 333 306 333 c 2,15,-1
 334 333 l 1,16,17
 340 377 340 377 328 392 c 128,-1,18
 316 407 316 407 274 407 c 0,19,20
 185 407 185 407 85 363 c 1,21,-1
 70 481 l 1,22,23
 142 513 142 513 218 523 c 1,24,25
 186 545 186 545 171 582.5 c 128,-1,26
 156 620 156 620 163 665 c 0,27,28
 170 709 170 709 196.5 746.5 c 128,-1,29
 223 784 223 784 262 806 c 128,-1,30
 301 828 301 828 344 828 c 0,31,32
 386 828 386 828 417.5 806 c 128,-1,33
 449 784 449 784 463.5 746.5 c 128,-1,34
 478 709 478 709 472 665 c 256,35,36
 465 621 465 621 438.5 583.5 c 128,-1,37
 412 546 412 546 375 525 c 1,38,0
 450 512 450 512 477 464 c 128,-1,1
284 708 m 128,-1,40
 265 691 265 691 261 665 c 0,41,42
 257 640 257 640 270.5 622.5 c 128,-1,43
 284 605 284 605 308 605 c 256,44,45
 332 605 332 605 351.5 622.5 c 128,-1,46
 371 640 371 640 375 665 c 256,47,48
 379 690 379 690 365 707.5 c 128,-1,49
 351 725 351 725 327 725 c 256,50,39
 303 725 303 725 284 708 c 128,-1,40
275 135 m 128,-1,52
 307 161 307 161 313 198 c 2,53,-1
 319 234 l 1,54,-1
 290 234 l 2,55,56
 159 234 159 234 149 165 c 0,57,58
 145 139 145 139 159.5 124 c 128,-1,59
 174 109 174 109 203 109 c 0,60,51
 243 109 243 109 275 135 c 128,-1,52
EndSplineSet
EndChar

StartChar: aringacute
Encoding: 507 507 224
Width: 534
GlyphClass: 2
Flags: W
AnchorPoint: "Anchor-6" 229 743 basechar 0
AnchorPoint: "Anchor-5" 469 0 basechar 0
AnchorPoint: "Anchor-4" 229 0 basechar 0
LayerCount: 2
Fore
SplineSet
477 464 m 128,-1,1
 504 416 504 416 489 322 c 2,2,-1
 438 0 l 1,3,-1
 289 0 l 1,4,-1
 297 63 l 1,5,-1
 295 63 l 1,6,7
 263 28 263 28 221 9 c 128,-1,8
 179 -10 179 -10 134 -10 c 0,9,10
 63 -10 63 -10 27 33.5 c 128,-1,11
 -9 77 -9 77 2 148 c 0,12,13
 16 237 16 237 95.5 285 c 128,-1,14
 175 333 175 333 306 333 c 2,15,-1
 334 333 l 1,16,17
 340 377 340 377 328 392 c 128,-1,18
 316 407 316 407 274 407 c 0,19,20
 185 407 185 407 85 363 c 1,21,-1
 70 481 l 1,22,23
 142 513 142 513 218 523 c 1,24,25
 186 545 186 545 171 582.5 c 128,-1,26
 156 620 156 620 163 665 c 0,27,28
 169 701 169 701 187.5 732.5 c 128,-1,29
 206 764 206 764 234 787 c 1,30,-1
 334 993 l 1,31,-1
 523 993 l 1,32,-1
 399 817 l 1,33,34
 439 799 439 799 459.5 757.5 c 128,-1,35
 480 716 480 716 472 665 c 0,36,37
 465 621 465 621 438.5 583.5 c 128,-1,38
 412 546 412 546 375 525 c 1,39,0
 450 512 450 512 477 464 c 128,-1,1
351.5 622.5 m 128,-1,41
 371 640 371 640 375 665 c 256,42,43
 379 690 379 690 365 707.5 c 128,-1,44
 351 725 351 725 327 725 c 256,45,46
 303 725 303 725 284 708 c 128,-1,47
 265 691 265 691 261 665 c 0,48,49
 257 640 257 640 270.5 622.5 c 128,-1,50
 284 605 284 605 308 605 c 256,51,40
 332 605 332 605 351.5 622.5 c 128,-1,41
275 135 m 128,-1,53
 307 161 307 161 313 198 c 2,54,-1
 319 234 l 1,55,-1
 290 234 l 2,56,57
 159 234 159 234 149 165 c 0,58,59
 145 139 145 139 159.5 124 c 128,-1,60
 174 109 174 109 203 109 c 0,61,52
 243 109 243 109 275 135 c 128,-1,53
EndSplineSet
EndChar

StartChar: ae
Encoding: 230 230 226
Width: 843
GlyphClass: 2
Flags: W
AnchorPoint: "Anchor-6" 406 520 basechar 0
AnchorPoint: "Anchor-4" 406 0 basechar 0
LayerCount: 2
Fore
SplineSet
800 205 m 1,1,-1
 470 205 l 1,2,3
 467 156 467 156 495.5 133 c 128,-1,4
 524 110 524 110 588 110 c 0,5,6
 663 110 663 110 733 137 c 1,7,-1
 738 23 l 1,8,9
 702 7 702 7 654.5 -1.5 c 128,-1,10
 607 -10 607 -10 560 -10 c 0,11,12
 428 -10 428 -10 368 55 c 1,13,14
 289 -10 289 -10 173 -10 c 0,15,16
 76 -10 76 -10 33 30 c 128,-1,17
 -10 70 -10 70 2 148 c 0,18,19
 16 237 16 237 95.5 285 c 128,-1,20
 175 333 175 333 306 333 c 2,21,-1
 335 333 l 1,22,23
 341 377 341 377 328.5 392 c 128,-1,24
 316 407 316 407 275 407 c 0,25,26
 186 407 186 407 85 363 c 1,27,-1
 70 481 l 1,28,29
 124 505 124 505 185 517.5 c 128,-1,30
 246 530 246 530 307 530 c 0,31,32
 416 530 416 530 458 487 c 1,33,34
 527 530 527 530 615 530 c 0,35,36
 730 530 730 530 781.5 461 c 128,-1,37
 833 392 833 392 814 267 c 0,38,0
 807 227 807 227 800 205 c 1,1,-1
527 391 m 128,-1,40
 500 365 500 365 487 310 c 1,41,-1
 672 310 l 1,42,43
 676 365 676 365 658 391 c 128,-1,44
 640 417 640 417 597 417 c 256,45,39
 554 417 554 417 527 391 c 128,-1,40
275.5 135 m 128,-1,47
 308 161 308 161 313 198 c 2,48,-1
 319 234 l 1,49,-1
 291 234 l 2,50,51
 160 234 160 234 149 165 c 0,52,53
 145 139 145 139 159.5 124 c 128,-1,54
 174 109 174 109 203 109 c 0,55,46
 243 109 243 109 275.5 135 c 128,-1,47
EndSplineSet
EndChar

StartChar: b
Encoding: 98 98 228
Width: 585
Flags: W
LayerCount: 2
Fore
SplineSet
532.5 460.5 m 128,-1,1
 570 391 570 391 549 260 c 256,2,3
 528 129 528 129 469 59.5 c 128,-1,4
 410 -10 410 -10 319 -10 c 0,5,6
 228 -10 228 -10 175 64 c 1,7,-1
 173 64 l 1,8,-1
 162 0 l 1,9,-1
 12 0 l 1,10,-1
 131 750 l 1,11,-1
 288 750 l 1,12,-1
 242 456 l 1,13,-1
 243 456 l 1,14,15
 313 530 313 530 405 530 c 0,16,0
 495 530 495 530 532.5 460.5 c 128,-1,1
355 156.5 m 128,-1,18
 384 193 384 193 395 260 c 256,19,20
 406 327 406 327 388 363.5 c 128,-1,21
 370 400 370 400 328 400 c 0,22,23
 286 400 286 400 254 365.5 c 128,-1,24
 222 331 222 331 213 274 c 2,25,-1
 208 246 l 2,26,27
 199 189 199 189 220.5 154.5 c 128,-1,28
 242 120 242 120 283 120 c 0,29,17
 326 120 326 120 355 156.5 c 128,-1,18
EndSplineSet
EndChar

StartChar: c
Encoding: 99 99 229
Width: 512
GlyphClass: 2
Flags: W
AnchorPoint: "Anchor-6" 246 520 basechar 0
AnchorPoint: "Anchor-4" 246 0 basechar 0
LayerCount: 2
Fore
SplineSet
65 60 m 128,-1,1
 5 130 5 130 25 260 c 256,2,3
 46 390 46 390 128.5 460 c 128,-1,4
 211 530 211 530 343 530 c 0,5,6
 433 530 433 530 502 491 c 1,7,-1
 444 375 l 1,8,9
 391 407 391 407 333 407 c 0,10,11
 271 407 271 407 233.5 369.5 c 128,-1,12
 196 332 196 332 184 260 c 256,13,14
 173 188 173 188 199 150.5 c 128,-1,15
 225 113 225 113 286 113 c 0,16,17
 344 113 344 113 407 145 c 1,18,-1
 429 29 l 1,19,20
 348 -10 348 -10 257 -10 c 0,21,0
 125 -10 125 -10 65 60 c 128,-1,1
EndSplineSet
EndChar

StartChar: ccedilla
Encoding: 231 231 232
Width: 511
GlyphClass: 2
Flags: W
AnchorPoint: "Anchor-6" 246 520 basechar 0
AnchorPoint: "Anchor-4" 246 0 basechar 0
LayerCount: 2
Fore
SplineSet
427 29 m 1,0,1
 390 11 390 11 354 2 c 1,2,3
 383 -45 383 -45 376 -92 c 0,4,5
 366 -153 366 -153 312 -186 c 128,-1,6
 258 -219 258 -219 170 -219 c 0,7,8
 105 -219 105 -219 58 -199 c 1,9,-1
 92 -80 l 1,10,11
 131 -100 131 -100 179 -100 c 0,12,13
 205 -100 205 -100 219.5 -92 c 128,-1,14
 234 -84 234 -84 237 -69 c 0,15,16
 242 -36 242 -36 181 -3 c 1,17,18
 88 16 88 16 48 83.5 c 128,-1,19
 8 151 8 151 25 260 c 0,20,21
 46 390 46 390 128 460 c 128,-1,22
 210 530 210 530 342 530 c 0,23,24
 432 530 432 530 500 491 c 1,25,-1
 442 375 l 1,26,27
 389 407 389 407 332 407 c 0,28,29
 271 407 271 407 233.5 369.5 c 128,-1,30
 196 332 196 332 184 260 c 256,31,32
 173 188 173 188 198.5 150.5 c 128,-1,33
 224 113 224 113 286 113 c 0,34,35
 344 113 344 113 406 145 c 1,36,-1
 427 29 l 1,0,1
EndSplineSet
EndChar

StartChar: d
Encoding: 100 100 235
Width: 585
Flags: W
LayerCount: 2
Fore
SplineSet
602 750 m 1,0,-1
 483 0 l 1,1,-1
 334 0 l 1,2,-1
 343 64 l 1,3,-1
 341 64 l 1,4,5
 264 -10 264 -10 172 -10 c 0,6,7
 82 -10 82 -10 45 59.5 c 128,-1,8
 8 129 8 129 29 260 c 256,9,10
 50 391 50 391 109 460.5 c 128,-1,11
 168 530 168 530 258 530 c 0,12,13
 350 530 350 530 397 456 c 1,14,-1
 398 456 l 1,15,-1
 445 750 l 1,16,-1
 602 750 l 1,0,-1
324 154.5 m 128,-1,18
 356 189 356 189 365 246 c 2,19,-1
 370 274 l 2,20,21
 379 331 379 331 357.5 365.5 c 128,-1,22
 336 400 336 400 295 400 c 0,23,24
 252 400 252 400 223 363.5 c 128,-1,25
 194 327 194 327 183 260 c 256,26,27
 172 193 172 193 189.5 156.5 c 128,-1,28
 207 120 207 120 250 120 c 0,29,17
 292 120 292 120 324 154.5 c 128,-1,18
EndSplineSet
EndChar

StartChar: eth
Encoding: 240 240 236
Width: 574
Flags: W
LayerCount: 2
Fore
SplineSet
534 274 m 0,1,2
 489 -10 489 -10 235 -10 c 0,3,4
 117 -10 117 -10 60.5 58.5 c 128,-1,5
 4 127 4 127 23 248 c 0,6,7
 40 358 40 358 110.5 419 c 128,-1,8
 181 480 181 480 290 480 c 0,9,10
 350 480 350 480 387 458 c 1,11,-1
 389 459 l 1,12,13
 389 514 389 514 361 561 c 1,14,-1
 144 475 l 1,15,-1
 116 590 l 1,16,-1
 259 647 l 1,17,18
 211 669 211 669 149 673 c 1,19,-1
 199 790 l 1,20,21
 337 780 337 780 421 710 c 1,22,-1
 559 765 l 1,23,-1
 587 650 l 1,24,-1
 498 615 l 1,25,0
 567 484 567 484 534 274 c 0,1,2
374 248 m 0,27,28
 385 315 385 315 366.5 347.5 c 128,-1,29
 348 380 348 380 297 380 c 256,30,31
 247 380 247 380 218 347.5 c 128,-1,32
 189 315 189 315 178 248 c 0,33,34
 156 110 156 110 254 110 c 256,35,26
 352 110 352 110 374 248 c 0,27,28
EndSplineSet
EndChar

StartChar: dcroat
Encoding: 273 273 238
Width: 646
Flags: W
LayerCount: 2
Fore
SplineSet
670 563 m 1,0,-1
 572 563 l 1,1,-1
 483 0 l 1,2,-1
 334 0 l 1,3,-1
 343 64 l 1,4,-1
 341 64 l 1,5,6
 264 -10 264 -10 172 -10 c 0,7,8
 82 -10 82 -10 45 59.5 c 128,-1,9
 8 129 8 129 29 260 c 256,10,11
 50 391 50 391 109 460.5 c 128,-1,12
 168 530 168 530 258 530 c 0,13,14
 350 530 350 530 397 456 c 1,15,-1
 398 456 l 1,16,-1
 415 563 l 1,17,-1
 273 563 l 1,18,-1
 293 687 l 1,19,-1
 435 687 l 1,20,-1
 445 750 l 1,21,-1
 602 750 l 1,22,-1
 592 687 l 1,23,-1
 690 687 l 1,24,-1
 670 563 l 1,0,-1
324 154.5 m 128,-1,26
 356 189 356 189 365 246 c 2,27,-1
 370 274 l 2,28,29
 379 331 379 331 357.5 365.5 c 128,-1,30
 336 400 336 400 295 400 c 0,31,32
 252 400 252 400 223 363.5 c 128,-1,33
 194 327 194 327 183 260 c 256,34,35
 172 193 172 193 189.5 156.5 c 128,-1,36
 207 120 207 120 250 120 c 0,37,25
 292 120 292 120 324 154.5 c 128,-1,26
EndSplineSet
EndChar

StartChar: e
Encoding: 101 101 240
Width: 540
GlyphClass: 2
Flags: W
AnchorPoint: "Anchor-6" 249 520 basechar 0
AnchorPoint: "Anchor-5" 466 21 basechar 0
AnchorPoint: "Anchor-4" 249 0 basechar 0
LayerCount: 2
Fore
SplineSet
498 205 m 1,1,-1
 171 205 l 1,2,3
 169 156 169 156 198 133 c 128,-1,4
 227 110 227 110 292 110 c 0,5,6
 363 110 363 110 431 135 c 1,7,-1
 437 20 l 1,8,9
 402 6 402 6 355.5 -2 c 128,-1,10
 309 -10 309 -10 264 -10 c 0,11,12
 128 -10 128 -10 66.5 59.5 c 128,-1,13
 5 129 5 129 25 260 c 0,14,15
 45 387 45 387 122 458.5 c 128,-1,16
 199 530 199 530 315 530 c 0,17,18
 428 530 428 530 479 461 c 128,-1,19
 530 392 530 392 511 267 c 0,20,0
 504 222 504 222 498 205 c 1,1,-1
227.5 391 m 128,-1,22
 201 365 201 365 187 310 c 1,23,-1
 371 310 l 1,24,25
 375 365 375 365 357 391 c 128,-1,26
 339 417 339 417 297 417 c 0,27,21
 254 417 254 417 227.5 391 c 128,-1,22
EndSplineSet
EndChar

StartChar: uni1EBF
Encoding: 7871 7871 245
Width: 545
GlyphClass: 2
Flags: W
AnchorPoint: "Anchor-6" 249 520 basechar 0
AnchorPoint: "Anchor-5" 466 21 basechar 0
AnchorPoint: "Anchor-4" 249 0 basechar 0
LayerCount: 2
Fore
SplineSet
737 950 m 1,0,-1
 588 740 l 1,1,-1
 488 740 l 1,2,-1
 558 560 l 1,3,-1
 385 560 l 1,4,-1
 343 707 l 1,5,-1
 341 707 l 1,6,-1
 253 560 l 1,7,-1
 80 560 l 1,8,-1
 228 770 l 1,9,-1
 461 770 l 1,10,-1
 548 950 l 1,11,-1
 737 950 l 1,0,-1
479 461 m 128,-1,13
 530 392 530 392 511 267 c 0,14,15
 504 222 504 222 498 205 c 1,16,-1
 171 205 l 1,17,18
 169 156 169 156 198 133 c 128,-1,19
 227 110 227 110 292 110 c 0,20,21
 363 110 363 110 431 135 c 1,22,-1
 437 20 l 1,23,24
 402 6 402 6 355.5 -2 c 128,-1,25
 309 -10 309 -10 264 -10 c 0,26,27
 128 -10 128 -10 66.5 59.5 c 128,-1,28
 5 129 5 129 25 260 c 0,29,30
 45 387 45 387 122 458.5 c 128,-1,31
 199 530 199 530 315 530 c 0,32,12
 428 530 428 530 479 461 c 128,-1,13
227.5 391 m 128,-1,34
 201 365 201 365 187 310 c 1,35,-1
 371 310 l 1,36,37
 375 365 375 365 357 391 c 128,-1,38
 339 417 339 417 297 417 c 0,39,33
 254 417 254 417 227.5 391 c 128,-1,34
EndSplineSet
EndChar

StartChar: uni1EC1
Encoding: 7873 7873 247
Width: 545
GlyphClass: 2
Flags: W
AnchorPoint: "Anchor-6" 249 520 basechar 0
AnchorPoint: "Anchor-5" 466 21 basechar 0
AnchorPoint: "Anchor-4" 249 0 basechar 0
LayerCount: 2
Fore
SplineSet
212 740 m 1,0,-1
 112 740 l 1,1,-1
 29 950 l 1,2,-1
 218 950 l 1,3,-1
 248 770 l 1,4,-1
 481 770 l 1,5,-1
 563 560 l 1,6,-1
 390 560 l 1,7,-1
 348 707 l 1,8,-1
 346 707 l 1,9,-1
 258 560 l 1,10,-1
 85 560 l 1,11,-1
 212 740 l 1,0,-1
484 461 m 128,-1,13
 535 392 535 392 515 267 c 0,14,15
 508 222 508 222 503 205 c 1,16,-1
 175 205 l 1,17,18
 173 156 173 156 202.5 133 c 128,-1,19
 232 110 232 110 297 110 c 0,20,21
 368 110 368 110 436 135 c 1,22,-1
 441 20 l 1,23,24
 406 6 406 6 359.5 -2 c 128,-1,25
 313 -10 313 -10 268 -10 c 0,26,27
 132 -10 132 -10 70.5 59.5 c 128,-1,28
 9 129 9 129 30 260 c 0,29,30
 50 387 50 387 126.5 458.5 c 128,-1,31
 203 530 203 530 320 530 c 0,32,12
 433 530 433 530 484 461 c 128,-1,13
232 391 m 128,-1,34
 205 365 205 365 192 310 c 1,35,-1
 375 310 l 1,36,37
 379 365 379 365 361 391 c 128,-1,38
 343 417 343 417 302 417 c 0,39,33
 259 417 259 417 232 391 c 128,-1,34
EndSplineSet
EndChar

StartChar: uni1EC3
Encoding: 7875 7875 248
Width: 541
GlyphClass: 2
Flags: W
AnchorPoint: "Anchor-6" 342 950 basechar 0
AnchorPoint: "Anchor-5" 466 21 basechar 0
AnchorPoint: "Anchor-4" 249 0 basechar 0
LayerCount: 2
Fore
SplineSet
488 740 m 1,0,-1
 558 560 l 1,1,-1
 385 560 l 1,2,-1
 343 707 l 1,3,-1
 341 707 l 1,4,-1
 253 560 l 1,5,-1
 80 560 l 1,6,-1
 228 770 l 1,7,-1
 462 770 l 1,8,9
 468 788 468 788 470 802 c 0,10,11
 473 821 473 821 464 827.5 c 128,-1,12
 455 834 455 834 426 834 c 0,13,14
 360 834 360 834 286 811 c 1,15,-1
 293 930 l 1,16,17
 333 939 333 939 380 944.5 c 128,-1,18
 427 950 427 950 468 950 c 0,19,20
 536 950 536 950 571.5 942 c 128,-1,21
 607 934 607 934 619.5 914.5 c 128,-1,22
 632 895 632 895 626 859 c 0,23,24
 622 832 622 832 610.5 798.5 c 128,-1,25
 599 765 599 765 585 740 c 1,26,-1
 488 740 l 1,0,-1
479 461 m 128,-1,28
 530 392 530 392 511 267 c 0,29,30
 504 222 504 222 498 205 c 1,31,-1
 171 205 l 1,32,33
 169 156 169 156 198 133 c 128,-1,34
 227 110 227 110 292 110 c 0,35,36
 363 110 363 110 431 135 c 1,37,-1
 437 20 l 1,38,39
 402 6 402 6 355.5 -2 c 128,-1,40
 309 -10 309 -10 264 -10 c 0,41,42
 128 -10 128 -10 66.5 59.5 c 128,-1,43
 5 129 5 129 25 260 c 0,44,45
 45 387 45 387 122 458.5 c 128,-1,46
 199 530 199 530 315 530 c 0,47,27
 428 530 428 530 479 461 c 128,-1,28
227.5 391 m 128,-1,49
 201 365 201 365 187 310 c 1,50,-1
 371 310 l 1,51,52
 375 365 375 365 357 391 c 128,-1,53
 339 417 339 417 297 417 c 0,54,48
 254 417 254 417 227.5 391 c 128,-1,49
EndSplineSet
EndChar

StartChar: eogonek
Encoding: 281 281 258
Width: 542
GlyphClass: 2
Flags: W
AnchorPoint: "Anchor-6" 249 520 basechar 0
AnchorPoint: "Anchor-5" 466 21 basechar 0
AnchorPoint: "Anchor-4" 249 0 basechar 0
LayerCount: 2
Fore
SplineSet
492 -178 m 1,0,1
 439 -198 439 -198 374 -198 c 0,2,3
 285 -198 285 -198 242 -165 c 128,-1,4
 199 -132 199 -132 209 -71 c 0,5,6
 214 -38 214 -38 234 -9 c 1,7,8
 113 -2 113 -2 59.5 67.5 c 128,-1,9
 6 137 6 137 25 260 c 0,10,11
 45 387 45 387 122 458.5 c 128,-1,12
 199 530 199 530 315 530 c 0,13,14
 428 530 428 530 479 461 c 128,-1,15
 530 392 530 392 511 267 c 0,16,17
 504 222 504 222 498 205 c 1,18,-1
 171 205 l 1,19,20
 169 156 169 156 198 133 c 128,-1,21
 227 110 227 110 292 110 c 0,22,23
 363 110 363 110 431 135 c 1,24,-1
 437 21 l 1,25,-1
 438 21 l 1,26,27
 437.5 20.5 l 0,28,-1
 437 20 l 2,29,30
 433 18 433 18 431 18 c 0,31,32
 361 -15 361 -15 355 -48 c 0,33,34
 353 -63 353 -63 365.5 -71 c 128,-1,35
 378 -79 378 -79 403 -79 c 0,36,37
 450 -79 450 -79 496 -59 c 1,38,-1
 492 -178 l 1,0,1
227.5 391 m 128,-1,40
 201 365 201 365 187 310 c 1,41,-1
 371 310 l 1,42,43
 375 365 375 365 357 391 c 128,-1,44
 339 417 339 417 297 417 c 0,45,39
 254 417 254 417 227.5 391 c 128,-1,40
EndSplineSet
EndChar

StartChar: uni0259
Encoding: 601 601 260
Width: 541
GlyphClass: 2
Flags: W
AnchorPoint: "Anchor-6" 238 520 basechar 0
AnchorPoint: "Anchor-5" 22 499 basechar 0
AnchorPoint: "Anchor-4" 238 0 basechar 0
LayerCount: 2
Fore
SplineSet
467 460.5 m 128,-1,1
 528 391 528 391 508 260 c 0,2,3
 488 133 488 133 411 61.5 c 128,-1,4
 334 -10 334 -10 219 -10 c 0,5,6
 105 -10 105 -10 54 59 c 128,-1,7
 3 128 3 128 22 253 c 0,8,9
 27 282 27 282 35 315 c 1,10,-1
 362 315 l 1,11,12
 364 365 364 365 335.5 387.5 c 128,-1,13
 307 410 307 410 241 410 c 0,14,15
 170 410 170 410 102 385 c 1,16,-1
 96 500 l 1,17,18
 132 514 132 514 178.5 522 c 128,-1,19
 225 530 225 530 269 530 c 0,20,0
 406 530 406 530 467 460.5 c 128,-1,1
305.5 129 m 0,21,22
 331 155 331 155 345 210 c 1,23,-1
 162 210 l 1,24,25
 158 155 158 155 176 129 c 128,-1,26
 194 103 194 103 236 103 c 256,27,28
 279 103 279 103 305.5 129 c 0,21,22
EndSplineSet
EndChar

StartChar: f
Encoding: 102 102 261
Width: 465
Flags: W
LayerCount: 2
Fore
SplineSet
35 397 m 1,0,-1
 55 520 l 1,1,-1
 174 520 l 1,2,-1
 179 552 l 2,3,4
 195 654 195 654 252 707 c 128,-1,5
 309 760 309 760 402 760 c 0,6,7
 456 760 456 760 520 745 c 1,8,-1
 480 622 l 1,9,10
 445 637 445 637 410 637 c 0,11,12
 377 637 377 637 361.5 619 c 128,-1,13
 346 601 346 601 338 552 c 2,14,-1
 333 520 l 1,15,-1
 476 520 l 1,16,-1
 456 397 l 1,17,-1
 314 397 l 1,18,-1
 251 0 l 1,19,-1
 92 0 l 1,20,-1
 155 397 l 1,21,-1
 35 397 l 1,0,-1
EndSplineSet
EndChar

StartChar: g
Encoding: 103 103 262
Width: 585
GlyphClass: 2
Flags: W
AnchorPoint: "Anchor-6" 269 520 basechar 0
AnchorPoint: "Anchor-4" 269 -140 basechar 0
LayerCount: 2
Fore
SplineSet
565 520 m 1,0,-1
 491 55 l 2,1,2
 469 -82 469 -82 386.5 -156 c 128,-1,3
 304 -230 304 -230 173 -230 c 0,4,5
 74 -230 74 -230 -28 -190 c 1,6,-1
 20 -75 l 1,7,8
 111 -107 111 -107 169 -107 c 0,9,10
 309 -107 309 -107 335 55 c 2,11,-1
 336 64 l 1,12,-1
 334 64 l 1,13,14
 264 -10 264 -10 172 -10 c 0,15,16
 81 -10 81 -10 44 59.5 c 128,-1,17
 7 129 7 129 28 260 c 256,18,19
 49 391 49 391 108 460.5 c 128,-1,20
 167 530 167 530 258 530 c 0,21,22
 350 530 350 530 402 456 c 1,23,-1
 404 456 l 1,24,-1
 416 520 l 1,25,-1
 565 520 l 1,0,-1
324 154.5 m 128,-1,27
 356 189 356 189 365 246 c 2,28,-1
 370 274 l 2,29,30
 379 331 379 331 357.5 365.5 c 128,-1,31
 336 400 336 400 294 400 c 0,32,33
 251 400 251 400 222 363.5 c 128,-1,34
 193 327 193 327 182 260 c 256,35,36
 171 193 171 193 189 156.5 c 128,-1,37
 207 120 207 120 250 120 c 0,38,26
 292 120 292 120 324 154.5 c 128,-1,27
EndSplineSet
EndChar

StartChar: h
Encoding: 104 104 268
Width: 580
GlyphClass: 2
Flags: W
AnchorPoint: "Anchor-6" 260 750 basechar 0
AnchorPoint: "Anchor-4" 260 0 basechar 0
LayerCount: 2
Fore
SplineSet
522 480 m 128,-1,1
 552 430 552 430 535 320 c 2,2,-1
 484 0 l 1,3,-1
 328 0 l 1,4,-1
 373 287 l 2,5,6
 382 343 382 343 371.5 368 c 128,-1,7
 361 393 361 393 328 393 c 0,8,9
 289 393 289 393 255.5 362 c 128,-1,10
 222 331 222 331 215 288 c 2,11,-1
 169 0 l 1,12,-1
 12 0 l 1,13,-1
 131 750 l 1,14,-1
 288 750 l 1,15,-1
 241 455 l 1,16,-1
 243 455 l 1,17,18
 280 493 280 493 320.5 511.5 c 128,-1,19
 361 530 361 530 409 530 c 0,20,0
 492 530 492 530 522 480 c 128,-1,1
EndSplineSet
EndChar

StartChar: hbar
Encoding: 295 295 269
Width: 643
GlyphClass: 2
Flags: W
AnchorPoint: "Anchor-6" 324 750 basechar 0
AnchorPoint: "Anchor-4" 324 0 basechar 0
LayerCount: 2
Fore
SplineSet
584 479.5 m 128,-1,1
 614 429 614 429 597 320 c 2,2,-1
 546 0 l 1,3,-1
 389 0 l 1,4,-1
 435 287 l 2,5,6
 444 343 444 343 433 368 c 128,-1,7
 422 393 422 393 390 393 c 0,8,9
 351 393 351 393 317 362 c 128,-1,10
 283 331 283 331 276 288 c 2,11,-1
 231 0 l 1,12,-1
 75 0 l 1,13,-1
 164 563 l 1,14,-1
 65 563 l 1,15,-1
 85 687 l 1,16,-1
 184 687 l 1,17,-1
 194 750 l 1,18,-1
 350 750 l 1,19,-1
 340 687 l 1,20,-1
 482 687 l 1,21,-1
 462 563 l 1,22,-1
 320 563 l 1,23,-1
 303 455 l 1,24,-1
 305 455 l 1,25,26
 342 493 342 493 382 511.5 c 128,-1,27
 422 530 422 530 471 530 c 0,28,0
 554 530 554 530 584 479.5 c 128,-1,1
EndSplineSet
EndChar

StartChar: i
Encoding: 105 105 271
Width: 286
GlyphClass: 2
Flags: W
AnchorPoint: "Anchor-6" 110 520 basechar 0
AnchorPoint: "Anchor-5" 195 0 basechar 0
AnchorPoint: "Anchor-4" 110 0 basechar 0
LayerCount: 2
Fore
SplineSet
137 747 m 1,0,-1
 297 747 l 1,1,-1
 274 603 l 1,2,-1
 114 603 l 1,3,-1
 137 747 l 1,0,-1
101 520 m 1,4,-1
 261 520 l 1,5,-1
 179 0 l 1,6,-1
 19 0 l 1,7,-1
 101 520 l 1,4,-1
EndSplineSet
Substitution2: "Single Substitution lookup 19 subtable" dotlessi
Substitution2: "'locl' Localized Forms in Latin lookup 3 subtable" i.loclTRK
Substitution2: "'aalt' Access All Alternates in Latin lookup 0 subtable" i.loclTRK
EndChar

StartChar: dotlessi
Encoding: 305 305 272
Width: 286
GlyphClass: 2
Flags: W
AnchorPoint: "Anchor-6" 110 520 basechar 0
AnchorPoint: "Anchor-5" 195 0 basechar 0
AnchorPoint: "Anchor-4" 110 0 basechar 0
LayerCount: 2
Fore
SplineSet
101 520 m 1,0,-1
 261 520 l 1,1,-1
 179 0 l 1,2,-1
 19 0 l 1,3,-1
 101 520 l 1,0,-1
EndSplineSet
EndChar

StartChar: iogonek
Encoding: 303 303 284
Width: 291
GlyphClass: 2
Flags: W
AnchorPoint: "Anchor-6" 110 749 basechar 0
AnchorPoint: "Anchor-5" 195 0 basechar 0
AnchorPoint: "Anchor-4" 110 0 basechar 0
LayerCount: 2
Fore
SplineSet
298 749 m 1,0,-1
 271 581 l 1,1,-1
 113 581 l 1,2,-1
 140 749 l 1,3,-1
 298 749 l 1,0,-1
235 -199 m 1,4,5
 182 -219 182 -219 117 -219 c 0,6,7
 28 -219 28 -219 -15 -186 c 128,-1,8
 -58 -153 -58 -153 -49 -92 c 0,9,10
 -44 -62 -44 -62 -26.5 -34.5 c 128,-1,11
 -9 -7 -9 -7 24 23 c 1,12,-1
 103 520 l 1,13,-1
 263 520 l 1,14,-1
 180 0 l 1,15,16
 103 -34 103 -34 98 -69 c 0,17,18
 96 -84 96 -84 108 -92 c 128,-1,19
 120 -100 120 -100 146 -100 c 0,20,21
 193 -100 193 -100 239 -80 c 1,22,-1
 235 -199 l 1,4,5
EndSplineSet
EndChar

StartChar: j
Encoding: 106 106 286
Width: 339
GlyphClass: 2
Flags: W
AnchorPoint: "Anchor-6" 136 520 basechar 0
AnchorPoint: "Anchor-4" 136 -140 basechar 0
LayerCount: 2
Fore
SplineSet
189 747 m 1,0,-1
 349 747 l 1,1,-1
 326 603 l 1,2,-1
 166 603 l 1,3,-1
 189 747 l 1,0,-1
-2.5 -94 m 128,-1,5
 33 -85 33 -85 49.5 -57.5 c 128,-1,6
 66 -30 66 -30 76 33 c 2,7,-1
 153 520 l 1,8,-1
 313 520 l 1,9,-1
 236 33 l 2,10,11
 220 -71 220 -71 181.5 -127 c 128,-1,12
 143 -183 143 -183 70 -206.5 c 128,-1,13
 -3 -230 -3 -230 -130 -230 c 1,14,-1
 -118 -103 l 1,15,4
 -38 -103 -38 -103 -2.5 -94 c 128,-1,5
EndSplineSet
Substitution2: "Single Substitution lookup 19 subtable" uni0237
EndChar

StartChar: uni0237
Encoding: 567 567 287
Width: 339
GlyphClass: 2
Flags: W
AnchorPoint: "Anchor-6" 136 520 basechar 0
AnchorPoint: "Anchor-4" 136 -140 basechar 0
LayerCount: 2
Fore
SplineSet
-2.5 -94 m 128,-1,1
 33 -85 33 -85 49.5 -57.5 c 128,-1,2
 66 -30 66 -30 76 33 c 2,3,-1
 153 520 l 1,4,-1
 313 520 l 1,5,-1
 236 33 l 2,6,7
 220 -71 220 -71 181.5 -127 c 128,-1,8
 143 -183 143 -183 70 -206.5 c 128,-1,9
 -3 -230 -3 -230 -130 -230 c 1,10,-1
 -118 -103 l 1,11,0
 -38 -103 -38 -103 -2.5 -94 c 128,-1,1
EndSplineSet
EndChar

StartChar: k
Encoding: 107 107 289
Width: 575
GlyphClass: 2
Flags: W
AnchorPoint: "Anchor-6" 243 750 basechar 0
AnchorPoint: "Anchor-4" 243 0 basechar 0
LayerCount: 2
Fore
SplineSet
131 750 m 1,0,-1
 288 750 l 1,1,-1
 220 318 l 1,2,-1
 222 318 l 1,3,-1
 406 520 l 1,4,-1
 592 520 l 1,5,-1
 346 270 l 1,6,-1
 516 0 l 1,7,-1
 330 0 l 1,8,-1
 206 221 l 1,9,-1
 204 221 l 1,10,-1
 169 0 l 1,11,-1
 12 0 l 1,12,-1
 131 750 l 1,0,-1
EndSplineSet
EndChar

StartChar: kgreenlandic
Encoding: 312 312 291
Width: 575
GlyphClass: 2
Flags: W
AnchorPoint: "Anchor-6" 243 520 basechar 0
AnchorPoint: "Anchor-4" 243 0 basechar 0
LayerCount: 2
Fore
SplineSet
95 520 m 1,0,-1
 252 520 l 1,1,-1
 220 318 l 1,2,-1
 222 318 l 1,3,-1
 406 520 l 1,4,-1
 592 520 l 1,5,-1
 346 270 l 1,6,-1
 516 0 l 1,7,-1
 330 0 l 1,8,-1
 206 221 l 1,9,-1
 204 221 l 1,10,-1
 169 0 l 1,11,-1
 12 0 l 1,12,-1
 95 520 l 1,0,-1
EndSplineSet
EndChar

StartChar: l
Encoding: 108 108 292
Width: 286
GlyphClass: 2
Flags: W
AnchorPoint: "Anchor-7" 244 750 basechar 0
AnchorPoint: "Anchor-6" 110 750 basechar 0
AnchorPoint: "Anchor-4" 110 0 basechar 0
LayerCount: 2
Fore
SplineSet
137 750 m 1,0,-1
 297 750 l 1,1,-1
 179 0 l 1,2,-1
 19 0 l 1,3,-1
 137 750 l 1,0,-1
EndSplineSet
EndChar

StartChar: lslash
Encoding: 322 322 298
Width: 482
GlyphClass: 2
Flags: W
AnchorPoint: "Anchor-7" 347 750 basechar 0
AnchorPoint: "Anchor-6" 212 750 basechar 0
AnchorPoint: "Anchor-4" 212 0 basechar 0
LayerCount: 2
Fore
SplineSet
493 398 m 1,0,-1
 329 333 l 1,1,-1
 276 0 l 1,2,-1
 116 0 l 1,3,-1
 158 264 l 1,4,-1
 42 218 l 1,5,-1
 15 332 l 1,6,-1
 179 397 l 1,7,-1
 235 750 l 1,8,-1
 395 750 l 1,9,-1
 350 466 l 1,10,-1
 465 512 l 1,11,-1
 493 398 l 1,0,-1
EndSplineSet
EndChar

StartChar: m
Encoding: 109 109 299
Width: 811
Flags: W
LayerCount: 2
Fore
SplineSet
756.5 480 m 128,-1,1
 782 430 782 430 765 320 c 2,2,-1
 714 0 l 1,3,-1
 560 0 l 1,4,-1
 606 287 l 2,5,6
 615 342 615 342 607 367.5 c 128,-1,7
 599 393 599 393 574 393 c 0,8,9
 545 393 545 393 519 363 c 128,-1,10
 493 333 493 333 486 290 c 2,11,-1
 440 0 l 1,12,-1
 286 0 l 1,13,-1
 332 287 l 2,14,15
 341 342 341 342 333.5 367.5 c 128,-1,16
 326 393 326 393 300 393 c 0,17,18
 270 393 270 393 244.5 362 c 128,-1,19
 219 331 219 331 212 285 c 2,20,-1
 166 0 l 1,21,-1
 12 0 l 1,22,-1
 95 520 l 1,23,-1
 240 520 l 1,24,-1
 232 456 l 1,25,-1
 234 456 l 1,26,27
 267 494 267 494 303.5 512 c 128,-1,28
 340 530 340 530 384 530 c 0,29,30
 473 530 473 530 492 456 c 1,31,-1
 493 456 l 1,32,33
 566 530 566 530 657 530 c 0,34,0
 731 530 731 530 756.5 480 c 128,-1,1
EndSplineSet
EndChar

StartChar: n
Encoding: 110 110 300
Width: 580
GlyphClass: 2
Flags: W
AnchorPoint: "Anchor-6" 267 520 basechar 0
AnchorPoint: "Anchor-4" 267 0 basechar 0
LayerCount: 2
Fore
SplineSet
521 479.5 m 128,-1,1
 552 429 552 429 535 320 c 2,2,-1
 484 0 l 1,3,-1
 328 0 l 1,4,-1
 373 287 l 2,5,6
 382 342 382 342 371 367.5 c 128,-1,7
 360 393 360 393 327 393 c 0,8,9
 288 393 288 393 255 362 c 128,-1,10
 222 331 222 331 215 288 c 2,11,-1
 169 0 l 1,12,-1
 12 0 l 1,13,-1
 95 520 l 1,14,-1
 244 520 l 1,15,-1
 235 455 l 1,16,-1
 237 455 l 1,17,18
 275 493 275 493 316.5 511.5 c 128,-1,19
 358 530 358 530 407 530 c 0,20,0
 490 530 490 530 521 479.5 c 128,-1,1
EndSplineSet
EndChar

StartChar: eng
Encoding: 331 331 304
Width: 580
GlyphClass: 2
Flags: W
AnchorPoint: "Anchor-6" 267 520 basechar 0
AnchorPoint: "Anchor-4" 267 0 basechar 0
LayerCount: 2
Fore
SplineSet
521 479.5 m 128,-1,1
 552 429 552 429 535 320 c 2,2,-1
 484 -2 l 2,3,4
 471 -84 471 -84 444.5 -133 c 128,-1,5
 418 -182 418 -182 373.5 -204 c 128,-1,6
 329 -226 329 -226 259 -226 c 0,7,8
 196 -226 196 -226 134 -211 c 1,9,-1
 173 -77 l 1,10,11
 210 -89 210 -89 247 -89 c 256,12,13
 284 -89 284 -89 302 -70 c 128,-1,14
 320 -51 320 -51 328 -2 c 2,15,-1
 373 287 l 2,16,17
 382 342 382 342 371 367.5 c 128,-1,18
 360 393 360 393 327 393 c 0,19,20
 288 393 288 393 255 362 c 128,-1,21
 222 331 222 331 215 288 c 2,22,-1
 169 0 l 1,23,-1
 12 0 l 1,24,-1
 95 520 l 1,25,-1
 244 520 l 1,26,-1
 235 455 l 1,27,-1
 237 455 l 1,28,29
 275 493 275 493 316.5 511.5 c 128,-1,30
 358 530 358 530 407 530 c 0,31,0
 490 530 490 530 521 479.5 c 128,-1,1
EndSplineSet
EndChar

StartChar: o
Encoding: 111 111 307
Width: 563
GlyphClass: 2
Flags: W
AnchorPoint: "Anchor-7" 431 480 basechar 0
AnchorPoint: "Anchor-6" 256 520 basechar 0
AnchorPoint: "Anchor-5" 335 0 basechar 0
AnchorPoint: "Anchor-4" 256 0 basechar 0
LayerCount: 2
Fore
SplineSet
59 59.5 m 128,-1,1
 5 129 5 129 25 260 c 256,2,3
 46 391 46 391 122 460.5 c 128,-1,4
 198 530 198 530 321 530 c 0,5,6
 443 530 443 530 497 460 c 128,-1,7
 551 390 551 390 530 260 c 256,8,9
 509 130 509 130 433 60 c 128,-1,10
 357 -10 357 -10 235 -10 c 0,11,0
 113 -10 113 -10 59 59.5 c 128,-1,1
374 260 m 256,13,14
 397 407 397 407 302 407 c 0,15,16
 254 407 254 407 224 370.5 c 128,-1,17
 194 334 194 334 182 260 c 256,18,19
 170 186 170 186 188 149.5 c 128,-1,20
 206 113 206 113 255 113 c 0,21,12
 351 113 351 113 374 260 c 256,13,14
EndSplineSet
Substitution2: "Single Substitution lookup 21 subtable" ordmasculine
Substitution2: "'aalt' Access All Alternates in Latin lookup 0 subtable" ordmasculine
EndChar

StartChar: uni1ED1
Encoding: 7889 7889 311
Width: 567
GlyphClass: 2
Flags: W
AnchorPoint: "Anchor-7" 431 480 basechar 0
AnchorPoint: "Anchor-6" 256 520 basechar 0
AnchorPoint: "Anchor-5" 335 0 basechar 0
AnchorPoint: "Anchor-4" 256 0 basechar 0
LayerCount: 2
Fore
SplineSet
347 707 m 1,0,-1
 258 560 l 1,1,-1
 85 560 l 1,2,-1
 233 770 l 1,3,-1
 468 770 l 1,4,-1
 555 950 l 1,5,-1
 744 950 l 1,6,-1
 595 740 l 1,7,-1
 494 740 l 1,8,-1
 565 560 l 1,9,-1
 391 560 l 1,10,-1
 349 707 l 1,11,-1
 347 707 l 1,0,-1
497 460 m 128,-1,13
 551 390 551 390 530 260 c 256,14,15
 509 130 509 130 433 60 c 128,-1,16
 357 -10 357 -10 235 -10 c 0,17,18
 112 -10 112 -10 58.5 59.5 c 128,-1,19
 5 129 5 129 25 260 c 256,20,21
 46 391 46 391 122 460.5 c 128,-1,22
 198 530 198 530 321 530 c 0,23,12
 443 530 443 530 497 460 c 128,-1,13
374 260 m 256,25,26
 397 407 397 407 302 407 c 0,27,28
 254 407 254 407 224 370.5 c 128,-1,29
 194 334 194 334 182 260 c 256,30,31
 170 186 170 186 188 149.5 c 128,-1,32
 206 113 206 113 255 113 c 0,33,24
 351 113 351 113 374 260 c 256,25,26
EndSplineSet
EndChar

StartChar: uni1ED3
Encoding: 7891 7891 313
Width: 567
GlyphClass: 2
Flags: W
AnchorPoint: "Anchor-7" 431 480 basechar 0
AnchorPoint: "Anchor-6" 256 520 basechar 0
AnchorPoint: "Anchor-5" 335 0 basechar 0
AnchorPoint: "Anchor-4" 256 0 basechar 0
LayerCount: 2
Fore
SplineSet
217 740 m 1,0,-1
 116 740 l 1,1,-1
 34 950 l 1,2,-1
 223 950 l 1,3,-1
 252 770 l 1,4,-1
 488 770 l 1,5,-1
 569 560 l 1,6,-1
 396 560 l 1,7,-1
 353 707 l 1,8,-1
 352 707 l 1,9,-1
 263 560 l 1,10,-1
 89 560 l 1,11,-1
 217 740 l 1,0,-1
501 460 m 128,-1,13
 555 390 555 390 535 260 c 256,14,15
 514 130 514 130 438 60 c 128,-1,16
 362 -10 362 -10 240 -10 c 0,17,18
 117 -10 117 -10 63 59.5 c 128,-1,19
 9 129 9 129 30 260 c 256,20,21
 51 391 51 391 127 460.5 c 128,-1,22
 203 530 203 530 325 530 c 0,23,12
 447 530 447 530 501 460 c 128,-1,13
379 260 m 256,25,26
 402 407 402 407 306 407 c 0,27,28
 258 407 258 407 228 370.5 c 128,-1,29
 198 334 198 334 187 260 c 256,30,31
 175 186 175 186 193 149.5 c 128,-1,32
 211 113 211 113 259 113 c 0,33,24
 356 113 356 113 379 260 c 256,25,26
EndSplineSet
EndChar

StartChar: uni1ED5
Encoding: 7893 7893 314
Width: 563
GlyphClass: 2
Flags: W
AnchorPoint: "Anchor-7" 431 480 basechar 0
AnchorPoint: "Anchor-6" 349 950 basechar 0
AnchorPoint: "Anchor-5" 335 0 basechar 0
AnchorPoint: "Anchor-4" 256 0 basechar 0
LayerCount: 2
Fore
SplineSet
258 560 m 1,0,-1
 85 560 l 1,1,-1
 233 770 l 1,2,-1
 469 770 l 1,3,4
 475 788 475 788 477 802 c 0,5,6
 480 821 480 821 470.5 827.5 c 128,-1,7
 461 834 461 834 433 834 c 0,8,9
 367 834 367 834 291 811 c 1,10,-1
 298 930 l 1,11,12
 338 939 338 939 385 944.5 c 128,-1,13
 432 950 432 950 474 950 c 0,14,15
 542 950 542 950 577.5 942 c 128,-1,16
 613 934 613 934 625.5 914.5 c 128,-1,17
 638 895 638 895 633 859 c 0,18,19
 629 832 629 832 617.5 798.5 c 128,-1,20
 606 765 606 765 592 740 c 1,21,-1
 494 740 l 1,22,-1
 565 560 l 1,23,-1
 391 560 l 1,24,-1
 349 707 l 1,25,-1
 347 707 l 1,26,-1
 258 560 l 1,0,-1
497 460 m 128,-1,28
 551 390 551 390 530 260 c 256,29,30
 509 130 509 130 433 60 c 128,-1,31
 357 -10 357 -10 235 -10 c 0,32,33
 112 -10 112 -10 58.5 59.5 c 128,-1,34
 5 129 5 129 25 260 c 256,35,36
 46 391 46 391 122 460.5 c 128,-1,37
 198 530 198 530 321 530 c 0,38,27
 443 530 443 530 497 460 c 128,-1,28
374 260 m 256,40,41
 397 407 397 407 302 407 c 0,42,43
 254 407 254 407 224 370.5 c 128,-1,44
 194 334 194 334 182 260 c 256,45,46
 170 186 170 186 188 149.5 c 128,-1,47
 206 113 206 113 255 113 c 0,48,39
 351 113 351 113 374 260 c 256,40,41
EndSplineSet
EndChar

StartChar: ohorn
Encoding: 417 417 323
Width: 652
GlyphClass: 2
Flags: W
AnchorPoint: "Anchor-7" 684 627 basechar 0
AnchorPoint: "Anchor-6" 256 520 basechar 0
AnchorPoint: "Anchor-5" 335 0 basechar 0
AnchorPoint: "Anchor-4" 256 0 basechar 0
LayerCount: 2
Fore
SplineSet
712 495 m 0,1,2
 699 413 699 413 656.5 369 c 128,-1,3
 614 325 614 325 547 325 c 2,4,-1
 536 325 l 1,5,6
 535 292 535 292 530 260 c 0,7,8
 509 130 509 130 433 60 c 128,-1,9
 357 -10 357 -10 235 -10 c 0,10,11
 112 -10 112 -10 58.5 59.5 c 128,-1,12
 5 129 5 129 25 260 c 256,13,14
 46 391 46 391 122 460.5 c 128,-1,15
 198 530 198 530 321 530 c 0,16,17
 447 530 447 530 501 455 c 1,18,19
 510 453 510 453 514 453 c 0,20,21
 536 453 536 453 550.5 468.5 c 128,-1,22
 565 484 565 484 569 512 c 0,23,24
 572 534 572 534 571 569 c 128,-1,25
 570 604 570 604 565 627 c 1,26,-1
 713 627 l 1,27,0
 723 562 723 562 712 495 c 0,1,2
374 260 m 256,29,30
 397 407 397 407 302 407 c 0,31,32
 254 407 254 407 224 370.5 c 128,-1,33
 194 334 194 334 182 260 c 256,34,35
 170 186 170 186 188 149.5 c 128,-1,36
 206 113 206 113 255 113 c 0,37,28
 351 113 351 113 374 260 c 256,29,30
EndSplineSet
EndChar

StartChar: uni01EB
Encoding: 491 491 332
Width: 562
GlyphClass: 2
Flags: W
AnchorPoint: "Anchor-7" 430 480 basechar 0
AnchorPoint: "Anchor-6" 254 520 basechar 0
AnchorPoint: "Anchor-5" 334 0 basechar 0
AnchorPoint: "Anchor-4" 254 0 basechar 0
LayerCount: 2
Fore
SplineSet
227 -69 m 0,1,2
 225 -84 225 -84 237.5 -92 c 128,-1,3
 250 -100 250 -100 275 -100 c 0,4,5
 322 -100 322 -100 368 -80 c 1,6,-1
 364 -199 l 1,7,8
 311 -219 311 -219 246 -219 c 0,9,10
 157 -219 157 -219 114 -186 c 128,-1,11
 71 -153 71 -153 80 -92 c 0,12,13
 88 -41 88 -41 135 5 c 1,14,15
 65 30 65 30 37 95 c 128,-1,16
 9 160 9 160 25 260 c 0,17,18
 46 391 46 391 122 460.5 c 128,-1,19
 198 530 198 530 320 530 c 0,20,21
 441 530 441 530 495.5 460 c 128,-1,22
 550 390 550 390 529 260 c 0,23,24
 511 148 511 148 452.5 80.5 c 128,-1,25
 394 13 394 13 301 -4 c 1,26,0
 232 -37 232 -37 227 -69 c 0,1,2
223.5 370.5 m 128,-1,28
 194 334 194 334 182 260 c 256,29,30
 170 186 170 186 188 149.5 c 128,-1,31
 206 113 206 113 254 113 c 0,32,33
 349 113 349 113 373 260 c 256,34,35
 396 407 396 407 301 407 c 0,36,27
 253 407 253 407 223.5 370.5 c 128,-1,28
EndSplineSet
EndChar

StartChar: oslash
Encoding: 248 248 333
Width: 563
GlyphClass: 2
Flags: W
AnchorPoint: "Anchor-7" 431 480 basechar 0
AnchorPoint: "Anchor-6" 257 520 basechar 0
AnchorPoint: "Anchor-5" 335 0 basechar 0
AnchorPoint: "Anchor-4" 256 0 basechar 0
LayerCount: 2
Fore
SplineSet
530 260 m 0,1,2
 509 130 509 130 433 60 c 128,-1,3
 357 -10 357 -10 235 -10 c 0,4,5
 165 -10 165 -10 119 12 c 1,6,-1
 77 -38 l 1,7,-1
 15 18 l 1,8,-1
 54 64 l 1,9,10
 5 134 5 134 25 260 c 0,11,12
 46 391 46 391 122 460.5 c 128,-1,13
 198 530 198 530 321 530 c 0,14,15
 391 530 391 530 436 508 c 1,16,-1
 479 558 l 1,17,-1
 540 502 l 1,18,-1
 501 455 l 1,19,0
 550 386 550 386 530 260 c 0,1,2
178 208 m 1,21,-1
 342 398 l 1,22,23
 324 407 324 407 302 407 c 0,24,25
 254 407 254 407 224 370.5 c 128,-1,26
 194 334 194 334 182 260 c 0,27,20
 177 228 177 228 178 208 c 1,21,-1
374 260 m 0,29,30
 379 292 379 292 379 313 c 1,31,-1
 215 122 l 1,32,33
 231 113 231 113 255 113 c 0,34,28
 351 113 351 113 374 260 c 0,29,30
EndSplineSet
EndChar

StartChar: oe
Encoding: 339 339 337
Width: 889
Flags: W
LayerCount: 2
Fore
SplineSet
847 205 m 1,1,-1
 520 205 l 1,2,3
 517 156 517 156 544.5 133 c 128,-1,4
 572 110 572 110 636 110 c 0,5,6
 712 110 712 110 780 137 c 1,7,-1
 785 23 l 1,8,9
 749 7 749 7 702 -1.5 c 128,-1,10
 655 -10 655 -10 608 -10 c 0,11,12
 483 -10 483 -10 422 51 c 1,13,14
 347 -10 347 -10 236 -10 c 0,15,16
 113 -10 113 -10 59 59.5 c 128,-1,17
 5 129 5 129 25 260 c 256,18,19
 46 391 46 391 122 460.5 c 128,-1,20
 198 530 198 530 321 530 c 0,21,22
 432 530 432 530 486 471 c 1,23,24
 559 530 559 530 663 530 c 0,25,26
 777 530 777 530 828 461 c 128,-1,27
 879 392 879 392 859 267 c 0,28,0
 855 238 855 238 847 205 c 1,1,-1
576.5 391 m 128,-1,30
 550 365 550 365 536 310 c 1,31,-1
 720 310 l 1,32,33
 724 365 724 365 706 391 c 128,-1,34
 688 417 688 417 645 417 c 256,35,29
 603 417 603 417 576.5 391 c 128,-1,30
374 260 m 256,37,38
 397 407 397 407 302 407 c 0,39,40
 254 407 254 407 224 370.5 c 128,-1,41
 194 334 194 334 182 260 c 256,42,43
 170 186 170 186 188 149.5 c 128,-1,44
 206 113 206 113 255 113 c 0,45,36
 351 113 351 113 374 260 c 256,37,38
EndSplineSet
EndChar

StartChar: p
Encoding: 112 112 338
Width: 581
Flags: W
LayerCount: 2
Fore
SplineSet
532.5 460.5 m 128,-1,1
 570 391 570 391 549 260 c 256,2,3
 528 129 528 129 469 59.5 c 128,-1,4
 410 -10 410 -10 319 -10 c 0,5,6
 228 -10 228 -10 181 64 c 1,7,-1
 179 64 l 1,8,-1
 134 -220 l 1,9,-1
 -23 -220 l 1,10,-1
 95 520 l 1,11,-1
 244 520 l 1,12,-1
 235 456 l 1,13,-1
 237 456 l 1,14,15
 313 530 313 530 405 530 c 0,16,0
 495 530 495 530 532.5 460.5 c 128,-1,1
355 156.5 m 128,-1,18
 384 193 384 193 395 260 c 256,19,20
 406 327 406 327 388 363.5 c 128,-1,21
 370 400 370 400 328 400 c 0,22,23
 286 400 286 400 254 365.5 c 128,-1,24
 222 331 222 331 213 274 c 2,25,-1
 208 246 l 2,26,27
 199 189 199 189 220.5 154.5 c 128,-1,28
 242 120 242 120 283 120 c 0,29,17
 326 120 326 120 355 156.5 c 128,-1,18
EndSplineSet
EndChar

StartChar: thorn
Encoding: 254 254 339
Width: 585
Flags: W
LayerCount: 2
Fore
SplineSet
532.5 460.5 m 128,-1,1
 570 391 570 391 549 260 c 256,2,3
 528 129 528 129 469 59.5 c 128,-1,4
 410 -10 410 -10 319 -10 c 0,5,6
 228 -10 228 -10 181 64 c 1,7,-1
 179 64 l 1,8,-1
 134 -220 l 1,9,-1
 -23 -220 l 1,10,-1
 131 750 l 1,11,-1
 288 750 l 1,12,-1
 242 456 l 1,13,-1
 243 456 l 1,14,15
 313 530 313 530 405 530 c 0,16,0
 495 530 495 530 532.5 460.5 c 128,-1,1
355 156.5 m 128,-1,18
 384 193 384 193 395 260 c 256,19,20
 406 327 406 327 388 363.5 c 128,-1,21
 370 400 370 400 328 400 c 0,22,23
 286 400 286 400 254 365.5 c 128,-1,24
 222 331 222 331 213 274 c 2,25,-1
 208 246 l 2,26,27
 199 189 199 189 220.5 154.5 c 128,-1,28
 242 120 242 120 283 120 c 0,29,17
 326 120 326 120 355 156.5 c 128,-1,18
EndSplineSet
EndChar

StartChar: q
Encoding: 113 113 340
Width: 582
Flags: W
LayerCount: 2
Fore
SplineSet
562 520 m 1,0,-1
 445 -220 l 1,1,-1
 288 -220 l 1,2,-1
 333 64 l 1,3,-1
 331 64 l 1,4,5
 261 -10 261 -10 169 -10 c 0,6,7
 79 -10 79 -10 42 59.5 c 128,-1,8
 5 129 5 129 25 260 c 256,9,10
 46 391 46 391 105 460.5 c 128,-1,11
 164 530 164 530 254 530 c 0,12,13
 347 530 347 530 400 456 c 1,14,-1
 401 456 l 1,15,-1
 413 520 l 1,16,-1
 562 520 l 1,0,-1
321 154.5 m 128,-1,18
 353 189 353 189 362 246 c 2,19,-1
 366 274 l 2,20,21
 375 331 375 331 354.5 365.5 c 128,-1,22
 334 400 334 400 291 400 c 256,23,24
 248 400 248 400 219 363.5 c 128,-1,25
 190 327 190 327 179 260 c 256,26,27
 168 193 168 193 186 156.5 c 128,-1,28
 204 120 204 120 247 120 c 256,29,17
 289 120 289 120 321 154.5 c 128,-1,18
EndSplineSet
EndChar

StartChar: r
Encoding: 114 114 341
Width: 447
GlyphClass: 2
Flags: W
AnchorPoint: "Anchor-6" 206 520 basechar 0
AnchorPoint: "Anchor-4" 206 0 basechar 0
LayerCount: 2
Fore
SplineSet
344.5 503.5 m 128,-1,1
 405 530 405 530 470 530 c 1,2,-1
 448 392 l 1,3,4
 389 392 389 392 336.5 370.5 c 128,-1,5
 284 349 284 349 249.5 311.5 c 128,-1,6
 215 274 215 274 208 230 c 2,7,-1
 171 0 l 1,8,-1
 12 0 l 1,9,-1
 95 520 l 1,10,-1
 245 520 l 1,11,-1
 232 426 l 1,12,-1
 234 426 l 1,13,0
 284 477 284 477 344.5 503.5 c 128,-1,1
EndSplineSet
EndChar

StartChar: s
Encoding: 115 115 347
Width: 492
GlyphClass: 2
Flags: W
AnchorPoint: "Anchor-6" 219 520 basechar 0
AnchorPoint: "Anchor-4" 219 0 basechar 0
LayerCount: 2
Fore
SplineSet
-11 32 m 1,1,-1
 43 149 l 1,2,3
 126 113 126 113 201 113 c 0,4,5
 241 113 241 113 260.5 123 c 128,-1,6
 280 133 280 133 283 153 c 0,7,8
 286 170 286 170 273.5 180 c 128,-1,9
 261 190 261 190 219 201 c 0,10,11
 115 229 115 229 76 268.5 c 128,-1,12
 37 308 37 308 47 375 c 0,13,14
 59 451 59 451 119.5 490.5 c 128,-1,15
 180 530 180 530 285 530 c 0,16,17
 335 530 335 530 388 520.5 c 128,-1,18
 441 511 441 511 488 494 c 1,19,-1
 433 377 l 1,20,21
 390 394 390 394 356 401 c 128,-1,22
 322 408 322 408 286 408 c 0,23,24
 248 408 248 408 229 399.5 c 128,-1,25
 210 391 210 391 207 372 c 0,26,27
 204 354 204 354 216.5 344 c 128,-1,28
 229 334 229 334 270 324 c 0,29,30
 370 300 370 300 411.5 258.5 c 128,-1,31
 453 217 453 217 443 151 c 0,32,33
 431 76 431 76 367 33 c 128,-1,34
 303 -10 303 -10 203 -10 c 0,35,0
 78 -10 78 -10 -11 32 c 1,1,-1
EndSplineSet
EndChar

StartChar: scedilla
Encoding: 351 351 350
Width: 492
GlyphClass: 2
Flags: W
AnchorPoint: "Anchor-6" 219 520 basechar 0
AnchorPoint: "Anchor-4" 219 0 basechar 0
LayerCount: 2
Fore
SplineSet
400.5 62 m 128,-1,1
 367 25 367 25 313 7 c 1,2,3
 345 -41 345 -41 337 -92 c 0,4,5
 327 -153 327 -153 273.5 -186 c 128,-1,6
 220 -219 220 -219 131 -219 c 0,7,8
 65 -219 65 -219 20 -199 c 1,9,-1
 53 -80 l 1,10,11
 93 -100 93 -100 140 -100 c 0,12,13
 166 -100 166 -100 181 -92 c 128,-1,14
 196 -84 196 -84 199 -69 c 0,15,16
 204 -40 204 -40 151 -8 c 1,17,18
 56 0 56 0 -11 32 c 1,19,-1
 43 149 l 1,20,21
 126 113 126 113 201 113 c 0,22,23
 241 113 241 113 260 123 c 128,-1,24
 279 133 279 133 283 153 c 0,25,26
 286 170 286 170 273 180 c 128,-1,27
 260 190 260 190 219 201 c 0,28,29
 115 229 115 229 76 268.5 c 128,-1,30
 37 308 37 308 47 375 c 0,31,32
 59 451 59 451 119.5 490.5 c 128,-1,33
 180 530 180 530 285 530 c 0,34,35
 335 530 335 530 388 520.5 c 128,-1,36
 441 511 441 511 487 494 c 1,37,-1
 433 377 l 1,38,39
 390 394 390 394 356 401 c 128,-1,40
 322 408 322 408 286 408 c 0,41,42
 248 408 248 408 229 399.5 c 128,-1,43
 210 391 210 391 207 372 c 0,44,45
 204 354 204 354 216.5 344 c 128,-1,46
 229 334 229 334 270 324 c 0,47,48
 370 300 370 300 411.5 258.5 c 128,-1,49
 453 217 453 217 442 151 c 0,50,0
 434 99 434 99 400.5 62 c 128,-1,1
EndSplineSet
Substitution2: "'locl' Localized Forms in Latin lookup 4 subtable" uni0219
Substitution2: "'aalt' Access All Alternates in Latin lookup 0 subtable" uni0219
EndChar

StartChar: germandbls
Encoding: 223 223 353
Width: 585
Flags: W
LayerCount: 2
Fore
SplineSet
213 3 m 1,1,-1
 245 138 l 1,2,3
 282 125 282 125 313 125 c 0,4,5
 341 125 341 125 359 138 c 128,-1,6
 377 151 377 151 381 173 c 0,7,8
 384 190 384 190 374 212 c 128,-1,9
 364 234 364 234 333 283 c 0,10,11
 309 322 309 322 301.5 343 c 128,-1,12
 294 364 294 364 297 383 c 0,13,14
 300 401 300 401 313.5 421.5 c 128,-1,15
 327 442 327 442 361 479 c 0,16,17
 424 547 424 547 430 582 c 0,18,19
 436 622 436 622 356 622 c 0,20,21
 319 622 319 622 299 613.5 c 128,-1,22
 279 605 279 605 268.5 584 c 128,-1,23
 258 563 258 563 252 521 c 2,24,-1
 169 0 l 1,25,-1
 12 0 l 1,26,-1
 96 526 l 2,27,28
 115 647 115 647 181.5 703.5 c 128,-1,29
 248 760 248 760 369 760 c 0,30,31
 441 760 441 760 492.5 740 c 128,-1,32
 544 720 544 720 568 683.5 c 128,-1,33
 592 647 592 647 584 598 c 0,34,35
 580 571 580 571 563.5 542 c 128,-1,36
 547 513 547 513 510 466 c 0,37,38
 454 397 454 397 452 384 c 0,39,40
 451 375 451 375 460.5 352.5 c 128,-1,41
 470 330 470 330 489 300 c 0,42,43
 519 253 519 253 529 219 c 128,-1,44
 539 185 539 185 533 148 c 0,45,46
 521 73 521 73 464.5 31.5 c 128,-1,47
 408 -10 408 -10 319 -10 c 0,48,0
 272 -10 272 -10 213 3 c 1,1,-1
EndSplineSet
EndChar

StartChar: t
Encoding: 116 116 354
Width: 483
GlyphClass: 2
Flags: W
AnchorPoint: "Anchor-8" 191 0 basechar 0
AnchorPoint: "Anchor-7" 458 520 basechar 0
AnchorPoint: "Anchor-6" 215 520 basechar 0
AnchorPoint: "Anchor-4" 215 0 basechar 0
LayerCount: 2
Fore
SplineSet
123 32.5 m 128,-1,1
 89 75 89 75 104 173 c 2,2,-1
 140 397 l 1,3,-1
 32 397 l 1,4,-1
 51 520 l 1,5,-1
 159 520 l 1,6,-1
 189 710 l 1,7,-1
 348 710 l 1,8,-1
 318 520 l 1,9,-1
 472 520 l 1,10,-1
 453 397 l 1,11,-1
 299 397 l 1,12,-1
 267 197 l 2,13,14
 259 149 259 149 268 133 c 128,-1,15
 277 117 277 117 312 117 c 0,16,17
 353 117 353 117 395 131 c 1,18,-1
 393 9 l 1,19,20
 313 -10 313 -10 249 -10 c 0,21,0
 157 -10 157 -10 123 32.5 c 128,-1,1
EndSplineSet
EndChar

StartChar: tbar
Encoding: 359 359 355
Width: 478
GlyphClass: 2
Flags: W
AnchorPoint: "Anchor-8" 191 0 basechar 0
AnchorPoint: "Anchor-7" 458 520 basechar 0
AnchorPoint: "Anchor-6" 215 520 basechar 0
AnchorPoint: "Anchor-4" 215 0 basechar 0
LayerCount: 2
Fore
SplineSet
393 9 m 1,0,1
 313 -10 313 -10 249 -10 c 0,2,3
 156 -10 156 -10 122.5 32.5 c 128,-1,4
 89 75 89 75 104 173 c 2,5,-1
 107 188 l 1,6,-1
 -2 188 l 1,7,-1
 18 312 l 1,8,-1
 126 312 l 1,9,-1
 140 397 l 1,10,-1
 32 397 l 1,11,-1
 51 520 l 1,12,-1
 159 520 l 1,13,-1
 189 710 l 1,14,-1
 348 710 l 1,15,-1
 318 520 l 1,16,-1
 472 520 l 1,17,-1
 453 397 l 1,18,-1
 299 397 l 1,19,-1
 285 312 l 1,20,-1
 434 312 l 1,21,-1
 415 188 l 1,22,-1
 266 188 l 1,23,24
 260 145 260 145 269.5 131 c 128,-1,25
 279 117 279 117 312 117 c 0,26,27
 353 117 353 117 395 131 c 1,28,-1
 393 9 l 1,0,1
EndSplineSet
EndChar

StartChar: uni0163
Encoding: 355 355 357
Width: 481
GlyphClass: 2
Flags: W
AnchorPoint: "Anchor-8" 191 0 basechar 0
AnchorPoint: "Anchor-7" 456 520 basechar 0
AnchorPoint: "Anchor-6" 215 520 basechar 0
AnchorPoint: "Anchor-4" 215 0 basechar 0
LayerCount: 2
Fore
SplineSet
355 1 m 1,1,2
 384 -44 384 -44 376 -92 c 0,3,4
 366 -153 366 -153 312.5 -186 c 128,-1,5
 259 -219 259 -219 170 -219 c 0,6,7
 105 -219 105 -219 59 -199 c 1,8,-1
 92 -80 l 1,9,10
 131 -100 131 -100 179 -100 c 0,11,12
 205 -100 205 -100 220 -92 c 128,-1,13
 235 -84 235 -84 237 -69 c 0,14,15
 242 -36 242 -36 181 -3 c 1,16,17
 129 11 129 11 110.5 53 c 128,-1,18
 92 95 92 95 104 173 c 2,19,-1
 140 397 l 1,20,-1
 32 397 l 1,21,-1
 51 520 l 1,22,-1
 159 520 l 1,23,-1
 189 710 l 1,24,-1
 348 710 l 1,25,-1
 318 520 l 1,26,-1
 471 520 l 1,27,-1
 451 397 l 1,28,-1
 299 397 l 1,29,-1
 267 197 l 2,30,31
 259 149 259 149 268 133 c 128,-1,32
 277 117 277 117 312 117 c 0,33,34
 352 117 352 117 394 131 c 1,35,-1
 392 9 l 1,36,0
 365 3 365 3 355 1 c 1,1,2
EndSplineSet
Substitution2: "'locl' Localized Forms in Latin lookup 4 subtable" uni021B
Substitution2: "'aalt' Access All Alternates in Latin lookup 0 subtable" uni021B
EndChar

StartChar: u
Encoding: 117 117 359
Width: 571
GlyphClass: 2
Flags: W
AnchorPoint: "Anchor-7" 479 480 basechar 0
AnchorPoint: "Anchor-6" 262 520 basechar 0
AnchorPoint: "Anchor-5" 504 0 basechar 0
AnchorPoint: "Anchor-4" 262 0 basechar 0
LayerCount: 2
Fore
SplineSet
551 520 m 1,0,-1
 469 0 l 1,1,-1
 321 0 l 1,2,-1
 329 65 l 1,3,-1
 327 65 l 1,4,5
 291 27 291 27 250.5 8.5 c 128,-1,6
 210 -10 210 -10 162 -10 c 0,7,8
 80 -10 80 -10 50.5 40.5 c 128,-1,9
 21 91 21 91 39 200 c 2,10,-1
 89 520 l 1,11,-1
 246 520 l 1,12,-1
 201 233 l 2,13,14
 192 176 192 176 201.5 151.5 c 128,-1,15
 211 127 211 127 241 127 c 0,16,17
 279 127 279 127 310.5 158 c 128,-1,18
 342 189 342 189 349 232 c 2,19,-1
 394 520 l 1,20,-1
 551 520 l 1,0,-1
EndSplineSet
EndChar

StartChar: uhorn
Encoding: 432 432 368
Width: 695
GlyphClass: 2
Flags: W
AnchorPoint: "Anchor-7" 733 627 basechar 0
AnchorPoint: "Anchor-6" 262 520 basechar 0
AnchorPoint: "Anchor-5" 504 0 basechar 0
AnchorPoint: "Anchor-4" 262 0 basechar 0
LayerCount: 2
Fore
SplineSet
757 495 m 0,1,2
 744 413 744 413 701 369 c 128,-1,3
 658 325 658 325 591 325 c 0,4,5
 556 325 556 325 523 338 c 1,6,-1
 469 0 l 1,7,-1
 321 0 l 1,8,-1
 329 65 l 1,9,-1
 327 65 l 1,10,11
 291 27 291 27 250.5 8.5 c 128,-1,12
 210 -10 210 -10 162 -10 c 0,13,14
 80 -10 80 -10 50.5 40.5 c 128,-1,15
 21 91 21 91 39 200 c 2,16,-1
 89 520 l 1,17,-1
 246 520 l 1,18,-1
 201 233 l 2,19,20
 192 176 192 176 201.5 151.5 c 128,-1,21
 211 127 211 127 241 127 c 0,22,23
 279 127 279 127 310.5 158 c 128,-1,24
 342 189 342 189 349 232 c 2,25,-1
 394 520 l 1,26,-1
 551 520 l 1,27,-1
 541 456 l 1,28,29
 549 453 549 453 558 453 c 0,30,31
 580 453 580 453 594.5 468.5 c 128,-1,32
 609 484 609 484 614 512 c 0,33,34
 617 534 617 534 615.5 569 c 128,-1,35
 614 604 614 604 609 627 c 1,36,-1
 758 627 l 1,37,0
 768 562 768 562 757 495 c 0,1,2
EndSplineSet
EndChar

StartChar: uogonek
Encoding: 371 371 377
Width: 574
GlyphClass: 2
Flags: W
AnchorPoint: "Anchor-7" 479 480 basechar 0
AnchorPoint: "Anchor-6" 262 520 basechar 0
AnchorPoint: "Anchor-5" 504 0 basechar 0
AnchorPoint: "Anchor-4" 262 0 basechar 0
LayerCount: 2
Fore
SplineSet
523 -199 m 1,0,1
 470 -219 470 -219 405 -219 c 0,2,3
 316 -219 316 -219 273 -186 c 128,-1,4
 230 -153 230 -153 240 -92 c 0,5,6
 245 -59 245 -59 265 -29.5 c 128,-1,7
 285 0 285 0 324 33 c 1,8,-1
 328 65 l 1,9,-1
 326 65 l 1,10,11
 290 27 290 27 250 8.5 c 128,-1,12
 210 -10 210 -10 162 -10 c 0,13,14
 80 -10 80 -10 50.5 40.5 c 128,-1,15
 21 91 21 91 39 200 c 2,16,-1
 89 520 l 1,17,-1
 246 520 l 1,18,-1
 201 233 l 2,19,20
 192 176 192 176 201 151.5 c 128,-1,21
 210 127 210 127 241 127 c 0,22,23
 279 127 279 127 310 158 c 128,-1,24
 341 189 341 189 348 232 c 2,25,-1
 394 520 l 1,26,-1
 551 520 l 1,27,-1
 468 0 l 1,28,29
 391 -34 391 -34 386 -69 c 0,30,31
 384 -84 384 -84 396.5 -92 c 128,-1,32
 409 -100 409 -100 434 -100 c 0,33,34
 481 -100 481 -100 527 -80 c 1,35,-1
 523 -199 l 1,0,1
EndSplineSet
EndChar

StartChar: v
Encoding: 118 118 380
Width: 540
Flags: W
LayerCount: 2
Fore
SplineSet
44 520 m 1,0,-1
 209 520 l 1,1,-1
 241 106 l 1,2,-1
 243 106 l 1,3,-1
 407 520 l 1,4,-1
 572 520 l 1,5,-1
 337 0 l 1,6,-1
 114 0 l 1,7,-1
 44 520 l 1,0,-1
EndSplineSet
EndChar

StartChar: w
Encoding: 119 119 381
Width: 775
GlyphClass: 2
Flags: W
AnchorPoint: "Anchor-6" 368 520 basechar 0
AnchorPoint: "Anchor-4" 368 0 basechar 0
LayerCount: 2
Fore
SplineSet
53 520 m 1,0,-1
 213 520 l 1,1,-1
 210 148 l 1,2,-1
 211 148 l 1,3,-1
 327 520 l 1,4,-1
 523 520 l 1,5,-1
 521 148 l 1,6,-1
 523 148 l 1,7,-1
 637 520 l 1,8,-1
 798 520 l 1,9,-1
 593 0 l 1,10,-1
 400 0 l 1,11,-1
 402 368 l 1,12,-1
 400 368 l 1,13,-1
 286 0 l 1,14,-1
 93 0 l 1,15,-1
 53 520 l 1,0,-1
EndSplineSet
EndChar

StartChar: x
Encoding: 120 120 386
Width: 547
Flags: W
LayerCount: 2
Fore
SplineSet
160 261 m 1,0,-1
 64 520 l 1,1,-1
 231 520 l 1,2,-1
 283 347 l 1,3,-1
 284 347 l 1,4,-1
 391 520 l 1,5,-1
 558 520 l 1,6,-1
 380 261 l 1,7,-1
 478 0 l 1,8,-1
 311 0 l 1,9,-1
 257 175 l 1,10,-1
 255 175 l 1,11,-1
 146 0 l 1,12,-1
 -21 0 l 1,13,-1
 160 261 l 1,0,-1
EndSplineSet
EndChar

StartChar: y
Encoding: 121 121 387
Width: 544
GlyphClass: 2
Flags: W
AnchorPoint: "Anchor-6" 245 520 basechar 0
AnchorPoint: "Anchor-4" 245 0 basechar 0
LayerCount: 2
Fore
SplineSet
408 520 m 1,0,-1
 579 520 l 1,1,-1
 202 -220 l 1,2,-1
 35 -220 l 1,3,-1
 155 -20 l 1,4,-1
 41 520 l 1,5,-1
 212 520 l 1,6,-1
 253 153 l 1,7,-1
 255 153 l 1,8,-1
 408 520 l 1,0,-1
EndSplineSet
EndChar

StartChar: z
Encoding: 122 122 396
Width: 527
GlyphClass: 2
Flags: W
AnchorPoint: "Anchor-6" 238 520 basechar 0
AnchorPoint: "Anchor-4" 238 0 basechar 0
LayerCount: 2
Fore
SplineSet
23 123 m 1,0,-1
 298 395 l 1,1,-1
 298 397 l 1,2,-1
 66 397 l 1,3,-1
 86 520 l 1,4,-1
 517 520 l 1,5,-1
 497 397 l 1,6,-1
 223 125 l 1,7,-1
 222 123 l 1,8,-1
 454 123 l 1,9,-1
 435 0 l 1,10,-1
 3 0 l 1,11,-1
 23 123 l 1,0,-1
EndSplineSet
EndChar

StartChar: f_f
Encoding: 65538 -1 400
Width: 845
GlyphClass: 3
Flags: W
LayerCount: 2
Fore
SplineSet
713 520 m 1,0,-1
 857 520 l 1,1,-1
 837 397 l 1,2,-1
 694 397 l 1,3,-1
 631 0 l 1,4,-1
 473 0 l 1,5,-1
 536 397 l 1,6,-1
 314 397 l 1,7,-1
 251 0 l 1,8,-1
 92 0 l 1,9,-1
 155 397 l 1,10,-1
 35 397 l 1,11,-1
 55 520 l 1,12,-1
 174 520 l 1,13,-1
 179 552 l 2,14,15
 195 654 195 654 252 707 c 128,-1,16
 309 760 309 760 402 760 c 0,17,18
 456 760 456 760 520 745 c 1,19,-1
 480 622 l 1,20,21
 445 637 445 637 410 637 c 0,22,23
 377 637 377 637 361.5 619 c 128,-1,24
 346 601 346 601 338 552 c 2,25,-1
 333 520 l 1,26,-1
 556 520 l 1,27,-1
 561 552 l 2,28,29
 577 654 577 654 633.5 707 c 128,-1,30
 690 760 690 760 783 760 c 0,31,32
 837 760 837 760 901 745 c 1,33,-1
 861 622 l 1,34,35
 825 637 825 637 791 637 c 256,36,37
 757 637 757 637 741.5 619 c 128,-1,38
 726 601 726 601 718 552 c 2,39,-1
 713 520 l 1,0,-1
EndSplineSet
Ligature2: "'liga' Standard Ligatures in Latin lookup 14 subtable" f f
EndChar

StartChar: ordfeminine
Encoding: 170 170 405
Width: 450
Flags: W
LayerCount: 2
Fore
SplineSet
427 699 m 128,-1,1
 463 660 463 660 449 571 c 2,2,-1
 408 314 l 1,3,-1
 272 314 l 1,4,-1
 277 356 l 1,5,-1
 275 356 l 1,6,7
 252 332 252 332 220.5 319 c 128,-1,8
 189 306 189 306 155 306 c 0,9,10
 97 306 97 306 66.5 342.5 c 128,-1,11
 36 379 36 379 45 437 c 0,12,13
 56 508 56 508 121.5 547 c 128,-1,14
 187 586 187 586 296 586 c 2,15,-1
 309 586 l 1,16,17
 313 616 313 616 302.5 627 c 128,-1,18
 292 638 292 638 260 638 c 0,19,20
 226 638 226 638 186 628.5 c 128,-1,21
 146 619 146 619 109 602 c 1,22,-1
 107 701 l 1,23,24
 195 738 195 738 296 738 c 0,25,0
 391 738 391 738 427 699 c 128,-1,1
265 428 m 128,-1,27
 287 445 287 445 291 473 c 2,28,-1
 295 500 l 1,29,-1
 274 500 l 2,30,31
 224 500 224 500 199 488.5 c 128,-1,32
 174 477 174 477 170 451 c 0,33,34
 164 411 164 411 212 411 c 0,35,26
 243 411 243 411 265 428 c 128,-1,27
EndSplineSet
EndChar

StartChar: ordmasculine
Encoding: 186 186 406
Width: 471
Flags: W
LayerCount: 2
Fore
SplineSet
92.5 361.5 m 128,-1,1
 47 417 47 417 64 522 c 256,2,3
 81 627 81 627 143.5 682.5 c 128,-1,4
 206 738 206 738 308 738 c 256,5,6
 410 738 410 738 455 682.5 c 128,-1,7
 500 627 500 627 484 522 c 256,8,9
 467 417 467 417 404 361.5 c 128,-1,10
 341 306 341 306 240 306 c 256,11,0
 138 306 138 306 92.5 361.5 c 128,-1,1
340 522 m 256,13,14
 357 630 357 630 291 630 c 0,15,16
 257 630 257 630 236.5 603.5 c 128,-1,17
 216 577 216 577 207 522 c 256,18,19
 198 467 198 467 210 440.5 c 128,-1,20
 222 414 222 414 257 414 c 0,21,12
 323 414 323 414 340 522 c 256,13,14
EndSplineSet
EndChar

StartChar: zero.lf
Encoding: 65564 -1 417
Width: 632
Flags: W
LayerCount: 2
Fore
SplineSet
67 80.5 m 128,-1,1
 12 171 12 171 43 365 c 256,2,3
 74 559 74 559 157 649.5 c 128,-1,4
 240 740 240 740 388 740 c 256,5,6
 536 740 536 740 591 649.5 c 128,-1,7
 646 559 646 559 615 365 c 256,8,9
 584 171 584 171 501 80.5 c 128,-1,10
 418 -10 418 -10 270 -10 c 256,11,0
 122 -10 122 -10 67 80.5 c 128,-1,1
389 190.5 m 128,-1,13
 424 244 424 244 444 365 c 256,14,15
 463 486 463 486 444.5 539.5 c 128,-1,16
 426 593 426 593 365 593 c 256,17,18
 304 593 304 593 269 539.5 c 128,-1,19
 234 486 234 486 214 365 c 256,20,21
 195 244 195 244 213.5 190.5 c 128,-1,22
 232 137 232 137 293 137 c 256,23,12
 354 137 354 137 389 190.5 c 128,-1,13
EndSplineSet
Substitution2: "'tnum' Tabular Numbers in Latin lookup 11 subtable" zero
AlternateSubs2: "'aalt' Access All Alternates in Latin lookup 1 subtable" zero
EndChar

StartChar: one.lf
Encoding: 65565 -1 418
Width: 622
Flags: W
LayerCount: 2
Fore
SplineSet
330 518 m 1,0,-1
 329 518 l 1,1,-1
 114 344 l 1,2,-1
 64 483 l 1,3,-1
 360 730 l 1,4,-1
 535 730 l 1,5,-1
 419 0 l 1,6,-1
 248 0 l 1,7,-1
 330 518 l 1,0,-1
EndSplineSet
Substitution2: "'tnum' Tabular Numbers in Latin lookup 11 subtable" one
AlternateSubs2: "'aalt' Access All Alternates in Latin lookup 1 subtable" one
EndChar

StartChar: two.lf
Encoding: 65566 -1 419
Width: 628
Flags: W
LayerCount: 2
Fore
SplineSet
324 360.5 m 128,-1,1
 410 443 410 443 420 507 c 0,2,3
 426 548 426 548 403.5 570.5 c 128,-1,4
 381 593 381 593 333 593 c 0,5,6
 293 593 293 593 244 575 c 128,-1,7
 195 557 195 557 130 518 c 1,8,-1
 107 660 l 1,9,10
 163 696 163 696 237.5 718 c 128,-1,11
 312 740 312 740 381 740 c 0,12,13
 495 740 495 740 552 681.5 c 128,-1,14
 609 623 609 623 593 523 c 0,15,16
 578 429 578 429 500.5 337.5 c 128,-1,17
 423 246 423 246 274 145 c 1,18,-1
 274 143 l 1,19,-1
 538 143 l 1,20,-1
 516 0 l 1,21,-1
 21 0 l 1,22,-1
 44 143 l 1,23,0
 238 278 238 278 324 360.5 c 128,-1,1
EndSplineSet
Substitution2: "'tnum' Tabular Numbers in Latin lookup 11 subtable" two
AlternateSubs2: "'aalt' Access All Alternates in Latin lookup 1 subtable" two
EndChar

StartChar: three.lf
Encoding: 65567 -1 420
Width: 627
Flags: W
LayerCount: 2
Fore
SplineSet
16 50 m 1,1,-1
 81 183 l 1,2,3
 128 157 128 157 167 145 c 128,-1,4
 206 133 206 133 247 133 c 0,5,6
 362 133 362 133 376 224 c 0,7,8
 381 257 381 257 368 275.5 c 128,-1,9
 355 294 355 294 318 302 c 128,-1,10
 281 310 281 310 215 310 c 2,11,-1
 169 310 l 1,12,-1
 189 439 l 1,13,-1
 393 585 l 1,14,-1
 394 587 l 1,15,-1
 115 587 l 1,16,-1
 138 730 l 1,17,-1
 618 730 l 1,18,-1
 596 587 l 1,19,-1
 380 434 l 1,20,-1
 380 432 l 1,21,-1
 389 432 l 2,22,23
 480 432 480 432 522 378.5 c 128,-1,24
 564 325 564 325 549 228 c 0,25,26
 531 114 531 114 451 52 c 128,-1,27
 371 -10 371 -10 241 -10 c 0,28,0
 116 -10 116 -10 16 50 c 1,1,-1
EndSplineSet
Substitution2: "'tnum' Tabular Numbers in Latin lookup 11 subtable" three
AlternateSubs2: "'aalt' Access All Alternates in Latin lookup 1 subtable" three
EndChar

StartChar: four.lf
Encoding: 65568 -1 421
Width: 633
Flags: W
LayerCount: 2
Fore
SplineSet
313 131 m 1,0,-1
 -11 131 l 1,1,-1
 12 274 l 1,2,-1
 408 730 l 1,3,-1
 574 730 l 1,4,-1
 502 274 l 1,5,-1
 598 274 l 1,6,-1
 575 131 l 1,7,-1
 479 131 l 1,8,-1
 459 0 l 1,9,-1
 292 0 l 1,10,-1
 313 131 l 1,0,-1
341 268 m 1,11,-1
 379 506 l 1,12,-1
 377 506 l 1,13,-1
 172 270 l 1,14,-1
 172 268 l 1,15,-1
 341 268 l 1,11,-1
EndSplineSet
Substitution2: "'tnum' Tabular Numbers in Latin lookup 11 subtable" four
AlternateSubs2: "'aalt' Access All Alternates in Latin lookup 1 subtable" four
EndChar

StartChar: five.lf
Encoding: 65569 -1 422
Width: 628
Flags: W
LayerCount: 2
Fore
SplineSet
20 33 m 1,1,-1
 79 173 l 1,2,3
 123 152 123 152 161 142.5 c 128,-1,4
 199 133 199 133 239 133 c 0,5,6
 377 133 377 133 396 250 c 0,7,8
 410 341 410 341 326 341 c 0,9,10
 302 341 302 341 280.5 332.5 c 128,-1,11
 259 324 259 324 232 303 c 1,12,-1
 84 303 l 1,13,-1
 172 730 l 1,14,-1
 609 730 l 1,15,-1
 586 587 l 1,16,-1
 299 587 l 1,17,-1
 273 456 l 1,18,-1
 274 456 l 1,19,20
 297 467 297 467 318.5 471.5 c 128,-1,21
 340 476 340 476 368 476 c 0,22,23
 481 476 481 476 532 416 c 128,-1,24
 583 356 583 356 565 243 c 0,25,26
 545 118 545 118 458.5 54 c 128,-1,27
 372 -10 372 -10 224 -10 c 0,28,0
 112 -10 112 -10 20 33 c 1,1,-1
EndSplineSet
Substitution2: "'tnum' Tabular Numbers in Latin lookup 11 subtable" five
AlternateSubs2: "'aalt' Access All Alternates in Latin lookup 1 subtable" five
EndChar

StartChar: six.lf
Encoding: 65570 -1 423
Width: 631
Flags: W
LayerCount: 2
Fore
SplineSet
37 273 m 0,1,2
 58 406 58 406 124.5 508.5 c 128,-1,3
 191 611 191 611 292 670.5 c 128,-1,4
 393 730 393 730 518 738 c 1,5,-1
 526 600 l 1,6,7
 424 593 424 593 358.5 558.5 c 128,-1,8
 293 524 293 524 254 457 c 1,9,-1
 255 455 l 1,10,11
 288 474 288 474 320.5 482 c 128,-1,12
 353 490 353 490 389 490 c 0,13,14
 499 490 499 490 552 425 c 128,-1,15
 605 360 605 360 587 248 c 0,16,17
 574 169 574 169 531.5 110.5 c 128,-1,18
 489 52 489 52 421.5 21 c 128,-1,19
 354 -10 354 -10 269 -10 c 0,20,0
 -8 -10 -8 -10 37 273 c 0,1,2
376.5 157 m 128,-1,22
 411 188 411 188 420 244 c 256,23,24
 429 300 429 300 404.5 331 c 128,-1,25
 380 362 380 362 328 362 c 256,26,27
 276 362 276 362 242 331 c 128,-1,28
 208 300 208 300 199 244 c 256,29,30
 190 188 190 188 214.5 157 c 128,-1,31
 239 126 239 126 290 126 c 256,32,21
 342 126 342 126 376.5 157 c 128,-1,22
EndSplineSet
Substitution2: "'tnum' Tabular Numbers in Latin lookup 11 subtable" six
AlternateSubs2: "'aalt' Access All Alternates in Latin lookup 1 subtable" six
EndChar

StartChar: seven.lf
Encoding: 65571 -1 424
Width: 627
Flags: W
LayerCount: 2
Fore
SplineSet
423 579 m 1,1,-1
 424 583 l 1,2,-1
 112 583 l 1,3,-1
 135 730 l 1,4,-1
 642 730 l 1,5,-1
 620 593 l 1,6,7
 518 454 518 454 437.5 316.5 c 128,-1,8
 357 179 357 179 271 0 c 1,9,-1
 86 0 l 1,10,0
 232 310 232 310 423 579 c 1,1,-1
EndSplineSet
Substitution2: "'tnum' Tabular Numbers in Latin lookup 11 subtable" seven
AlternateSubs2: "'aalt' Access All Alternates in Latin lookup 1 subtable" seven
EndChar

StartChar: eight.lf
Encoding: 65572 -1 425
Width: 632
Flags: W
LayerCount: 2
Fore
SplineSet
121.5 15.5 m 128,-1,1
 61 41 61 41 33.5 87.5 c 128,-1,2
 6 134 6 134 16 198 c 0,3,4
 25 256 25 256 63 297 c 128,-1,5
 101 338 101 338 174 370 c 1,6,-1
 174 372 l 1,7,8
 128 405 128 405 107 453.5 c 128,-1,9
 86 502 86 502 94 554 c 0,10,11
 103 610 103 610 142 652.5 c 128,-1,12
 181 695 181 695 244.5 717.5 c 128,-1,13
 308 740 308 740 388 740 c 0,14,15
 466 740 466 740 523 717 c 128,-1,16
 580 694 580 694 606 651.5 c 128,-1,17
 632 609 632 609 624 554 c 0,18,19
 616 505 616 505 581 465.5 c 128,-1,20
 546 426 546 426 483 392 c 1,21,-1
 483 390 l 1,22,23
 609 328 609 328 589 198 c 0,24,25
 573 100 573 100 488.5 45 c 128,-1,26
 404 -10 404 -10 270 -10 c 0,27,0
 182 -10 182 -10 121.5 15.5 c 128,-1,1
454 538 m 0,29,30
 459 571 459 571 436.5 589.5 c 128,-1,31
 414 608 414 608 367 608 c 256,32,33
 321 608 321 608 292.5 589.5 c 128,-1,34
 264 571 264 571 258 538 c 0,35,36
 253 506 253 506 275 483.5 c 128,-1,37
 297 461 297 461 348 444 c 1,38,28
 445 479 445 479 454 538 c 0,29,30
377 145 m 128,-1,40
 412 168 412 168 419 207 c 0,41,42
 425 242 425 242 397.5 267 c 128,-1,43
 370 292 370 292 303 314 c 1,44,45
 253 295 253 295 224 267.5 c 128,-1,46
 195 240 195 240 189 207 c 0,47,48
 183 168 183 168 211 145 c 128,-1,49
 239 122 239 122 291 122 c 256,50,39
 342 122 342 122 377 145 c 128,-1,40
EndSplineSet
Substitution2: "'tnum' Tabular Numbers in Latin lookup 11 subtable" eight
AlternateSubs2: "'aalt' Access All Alternates in Latin lookup 1 subtable" eight
EndChar

StartChar: nine.lf
Encoding: 65573 -1 426
Width: 631
Flags: W
LayerCount: 2
Fore
SplineSet
619 457 m 0,1,2
 598 324 598 324 532 221.5 c 128,-1,3
 466 119 466 119 365 59.5 c 128,-1,4
 264 0 264 0 139 -8 c 1,5,-1
 130 130 l 1,6,7
 232 137 232 137 298 171.5 c 128,-1,8
 364 206 364 206 403 273 c 1,9,-1
 401 275 l 1,10,11
 368 256 368 256 336 248 c 128,-1,12
 304 240 304 240 267 240 c 0,13,14
 157 240 157 240 104.5 305 c 128,-1,15
 52 370 52 370 70 482 c 0,16,17
 83 561 83 561 125 619.5 c 128,-1,18
 167 678 167 678 235 709 c 128,-1,19
 303 740 303 740 388 740 c 0,20,0
 664 740 664 740 619 457 c 0,1,2
280 573 m 128,-1,22
 246 542 246 542 237 486 c 256,23,24
 228 430 228 430 252.5 399 c 128,-1,25
 277 368 277 368 329 368 c 256,26,27
 381 368 381 368 414.5 399 c 128,-1,28
 448 430 448 430 457 486 c 256,29,30
 466 542 466 542 442 573 c 128,-1,31
 418 604 418 604 366 604 c 256,32,21
 314 604 314 604 280 573 c 128,-1,22
EndSplineSet
Substitution2: "'tnum' Tabular Numbers in Latin lookup 11 subtable" nine
AlternateSubs2: "'aalt' Access All Alternates in Latin lookup 1 subtable" nine
EndChar

StartChar: uni2070
Encoding: 8304 8304 427
Width: 382
Flags: W
LayerCount: 2
Fore
SplineSet
70.5 340.5 m 128,-1,1
 38 395 38 395 56 511 c 256,2,3
 74 627 74 627 124 681.5 c 128,-1,4
 174 736 174 736 263 736 c 0,5,6
 351 736 351 736 384 681.5 c 128,-1,7
 417 627 417 627 399 511 c 256,8,9
 381 395 381 395 330.5 340.5 c 128,-1,10
 280 286 280 286 192 286 c 0,11,0
 103 286 103 286 70.5 340.5 c 128,-1,1
248 423.5 m 128,-1,13
 263 449 263 449 273 511 c 256,14,15
 283 573 283 573 276 598.5 c 128,-1,16
 269 624 269 624 245 624 c 0,17,18
 221 624 221 624 206.5 598.5 c 128,-1,19
 192 573 192 573 182 511 c 256,20,21
 172 449 172 449 178.5 423.5 c 128,-1,22
 185 398 185 398 210 398 c 0,23,12
 233 398 233 398 248 423.5 c 128,-1,13
EndSplineSet
EndChar

StartChar: uni00B9
Encoding: 185 185 428
Width: 372
Flags: W
LayerCount: 2
Fore
SplineSet
210 570 m 1,0,-1
 208 570 l 1,1,-1
 97 477 l 1,2,-1
 58 582 l 1,3,-1
 235 730 l 1,4,-1
 365 730 l 1,5,-1
 295 292 l 1,6,-1
 166 292 l 1,7,-1
 210 570 l 1,0,-1
EndSplineSet
EndChar

StartChar: uni00B2
Encoding: 178 178 429
Width: 379
Flags: W
LayerCount: 2
Fore
SplineSet
207 507.5 m 128,-1,1
 250 546 250 546 255 578 c 0,2,3
 258 600 258 600 246 612 c 128,-1,4
 234 624 234 624 210 624 c 0,5,6
 170 624 170 624 103 583 c 1,7,-1
 93 689 l 1,8,9
 126 711 126 711 170.5 723.5 c 128,-1,10
 215 736 215 736 257 736 c 0,11,12
 327 736 327 736 361 701 c 128,-1,13
 395 666 395 666 386 605 c 0,14,15
 370 503 370 503 231 403 c 1,16,-1
 231 401 l 1,17,-1
 356 401 l 1,18,-1
 339 292 l 1,19,-1
 42 292 l 1,20,-1
 59 401 l 1,21,0
 164 469 164 469 207 507.5 c 128,-1,1
EndSplineSet
EndChar

StartChar: uni00B3
Encoding: 179 179 430
Width: 379
Flags: W
LayerCount: 2
Fore
SplineSet
37 320 m 1,1,-1
 77 419 l 1,2,3
 124 395 124 395 165 395 c 0,4,5
 224 395 224 395 230 434 c 0,6,7
 233 455 233 455 215.5 463.5 c 128,-1,8
 198 472 198 472 150 472 c 2,9,-1
 127 472 l 1,10,-1
 141 558 l 1,11,-1
 229 619 l 1,12,-1
 229 621 l 1,13,-1
 92 621 l 1,14,-1
 109 730 l 1,15,-1
 398 730 l 1,16,-1
 380 621 l 1,17,-1
 280 550 l 1,18,-1
 280 548 l 1,19,20
 323 547 323 547 343.5 514.5 c 128,-1,21
 364 482 364 482 356 429 c 0,22,23
 345 361 345 361 297 323.5 c 128,-1,24
 249 286 249 286 172 286 c 0,25,0
 97 286 97 286 37 320 c 1,1,-1
EndSplineSet
EndChar

StartChar: uni2074
Encoding: 8308 8308 431
Width: 382
Flags: W
LayerCount: 2
Fore
SplineSet
199 359 m 1,0,-1
 16 359 l 1,1,-1
 34 468 l 1,2,-1
 265 730 l 1,3,-1
 382 730 l 1,4,-1
 340 468 l 1,5,-1
 385 468 l 1,6,-1
 368 359 l 1,7,-1
 323 359 l 1,8,-1
 313 292 l 1,9,-1
 188 292 l 1,10,-1
 199 359 l 1,0,-1
223 460 m 1,11,-1
 241 575 l 1,12,-1
 239 575 l 1,13,-1
 140 462 l 1,14,-1
 139 460 l 1,15,-1
 223 460 l 1,11,-1
EndSplineSet
EndChar

StartChar: fraction
Encoding: 8260 8260 432
Width: 526
Flags: W
LayerCount: 2
Fore
SplineSet
457 730 m 1,0,-1
 589 730 l 1,1,-1
 95 0 l 1,2,-1
 -37 0 l 1,3,-1
 457 730 l 1,0,-1
EndSplineSet
EndChar

StartChar: onehalf
Encoding: 189 189 433
Width: 899
Flags: W
LayerCount: 2
Fore
SplineSet
213 570 m 1,0,-1
 102 477 l 1,1,-1
 63 582 l 1,2,-1
 240 730 l 1,3,-1
 368 730 l 1,4,-1
 299 292 l 1,5,-1
 171 292 l 1,6,-1
 215 570 l 1,7,-1
 213 570 l 1,0,-1
642 730 m 1,8,-1
 774 730 l 1,9,-1
 279 0 l 1,10,-1
 147 0 l 1,11,-1
 642 730 l 1,8,-1
678.5 215.5 m 128,-1,13
 721 254 721 254 726 286 c 0,14,15
 729 308 729 308 717 320 c 128,-1,16
 705 332 705 332 682 332 c 0,17,18
 642 332 642 332 574 291 c 1,19,-1
 565 397 l 1,20,21
 598 419 598 419 642.5 431.5 c 128,-1,22
 687 444 687 444 729 444 c 0,23,24
 799 444 799 444 833 409 c 128,-1,25
 867 374 867 374 857 313 c 0,26,27
 841 211 841 211 702 111 c 1,28,-1
 702 109 l 1,29,-1
 828 109 l 1,30,-1
 810 0 l 1,31,-1
 513 0 l 1,32,-1
 531 109 l 1,33,12
 636 177 636 177 678.5 215.5 c 128,-1,13
EndSplineSet
Ligature2: "'frac' Diagonal Fractions in Latin lookup 7 subtable" one slash two
EndChar

StartChar: onequarter
Encoding: 188 188 434
Width: 867
Flags: W
LayerCount: 2
Fore
SplineSet
213 570 m 1,0,-1
 102 477 l 1,1,-1
 63 582 l 1,2,-1
 240 730 l 1,3,-1
 368 730 l 1,4,-1
 299 292 l 1,5,-1
 171 292 l 1,6,-1
 215 570 l 1,7,-1
 213 570 l 1,0,-1
642 730 m 1,8,-1
 774 730 l 1,9,-1
 279 0 l 1,10,-1
 147 0 l 1,11,-1
 642 730 l 1,8,-1
450 67 m 1,12,-1
 467 176 l 1,13,-1
 698 438 l 1,14,-1
 814 438 l 1,15,-1
 773 176 l 1,16,-1
 819 176 l 1,17,-1
 801 67 l 1,18,-1
 755 67 l 1,19,-1
 745 0 l 1,20,-1
 621 0 l 1,21,-1
 632 67 l 1,22,-1
 450 67 l 1,12,-1
674 283 m 1,23,-1
 672 283 l 1,24,-1
 573 170 l 1,25,-1
 572 168 l 1,26,-1
 656 168 l 1,27,-1
 674 283 l 1,23,-1
EndSplineSet
Ligature2: "'frac' Diagonal Fractions in Latin lookup 7 subtable" one slash four
EndChar

StartChar: threequarters
Encoding: 190 190 435
Width: 844
Flags: W
LayerCount: 2
Fore
SplineSet
38 320 m 1,1,-1
 79 419 l 1,2,3
 126 395 126 395 167 395 c 0,4,5
 225 395 225 395 231 434 c 0,6,7
 234 455 234 455 217 463.5 c 128,-1,8
 200 472 200 472 151 472 c 2,9,-1
 128 472 l 1,10,-1
 142 558 l 1,11,-1
 231 619 l 1,12,-1
 231 621 l 1,13,-1
 93 621 l 1,14,-1
 110 730 l 1,15,-1
 398 730 l 1,16,-1
 381 621 l 1,17,-1
 282 550 l 1,18,-1
 281 548 l 1,19,20
 324 547 324 547 344.5 514.5 c 128,-1,21
 365 482 365 482 357 429 c 0,22,23
 346 361 346 361 298.5 323.5 c 128,-1,24
 251 286 251 286 173 286 c 0,25,0
 98 286 98 286 38 320 c 1,1,-1
618 730 m 1,26,-1
 750 730 l 1,27,-1
 256 0 l 1,28,-1
 124 0 l 1,29,-1
 618 730 l 1,26,-1
426 67 m 1,30,-1
 443 176 l 1,31,-1
 675 438 l 1,32,-1
 791 438 l 1,33,-1
 750 176 l 1,34,-1
 795 176 l 1,35,-1
 778 67 l 1,36,-1
 732 67 l 1,37,-1
 722 0 l 1,38,-1
 597 0 l 1,39,-1
 608 67 l 1,40,-1
 426 67 l 1,30,-1
650 283 m 1,41,-1
 648 283 l 1,42,-1
 549 170 l 1,43,-1
 549 168 l 1,44,-1
 632 168 l 1,45,-1
 650 283 l 1,41,-1
EndSplineSet
Ligature2: "'frac' Diagonal Fractions in Latin lookup 7 subtable" three slash four
EndChar

StartChar: period
Encoding: 46 46 436
Width: 313
Flags: W
LayerCount: 2
Fore
SplineSet
53 177 m 1,0,-1
 227 177 l 1,1,-1
 199 0 l 1,2,-1
 25 0 l 1,3,-1
 53 177 l 1,0,-1
EndSplineSet
EndChar

StartChar: comma
Encoding: 44 44 437
Width: 288
Flags: W
LayerCount: 2
Fore
SplineSet
67 177 m 1,0,-1
 246 177 l 1,1,-1
 88 -123 l 1,2,-1
 -44 -123 l 1,3,-1
 67 177 l 1,0,-1
EndSplineSet
EndChar

StartChar: colon
Encoding: 58 58 438
Width: 313
Flags: W
LayerCount: 2
Fore
SplineSet
107 520 m 1,0,-1
 281 520 l 1,1,-1
 253 343 l 1,2,-1
 79 343 l 1,3,-1
 107 520 l 1,0,-1
53 177 m 1,4,-1
 227 177 l 1,5,-1
 199 0 l 1,6,-1
 25 0 l 1,7,-1
 53 177 l 1,4,-1
EndSplineSet
Substitution2: "'fwid' Full Widths in Latin lookup 15 subtable" uniFF1A
Substitution2: "'aalt' Access All Alternates in Latin lookup 0 subtable" uniFF1A
EndChar

StartChar: semicolon
Encoding: 59 59 439
Width: 331
Flags: W
LayerCount: 2
Fore
SplineSet
124 520 m 1,0,-1
 297 520 l 1,1,-1
 269 343 l 1,2,-1
 96 343 l 1,3,-1
 124 520 l 1,0,-1
72 177 m 1,4,-1
 252 177 l 1,5,-1
 88 -123 l 1,6,-1
 -43 -123 l 1,7,-1
 72 177 l 1,4,-1
EndSplineSet
EndChar

StartChar: exclam
Encoding: 33 33 441
Width: 340
Flags: W
LayerCount: 2
Fore
SplineSet
141 730 m 1,0,-1
 341 730 l 1,1,-1
 237 232 l 1,2,-1
 86 232 l 1,3,-1
 141 730 l 1,0,-1
64 157 m 1,4,-1
 236 157 l 1,5,-1
 211 0 l 1,6,-1
 39 0 l 1,7,-1
 64 157 l 1,4,-1
EndSplineSet
Substitution2: "'fwid' Full Widths in Latin lookup 15 subtable" uniFF01
Substitution2: "'aalt' Access All Alternates in Latin lookup 0 subtable" uniFF01
EndChar

StartChar: exclamdown
Encoding: 161 161 442
Width: 340
Flags: W
LayerCount: 2
Fore
SplineSet
121 520 m 1,0,-1
 294 520 l 1,1,-1
 269 363 l 1,2,-1
 96 363 l 1,3,-1
 121 520 l 1,0,-1
95 288 m 1,4,-1
 246 288 l 1,5,-1
 192 -210 l 1,6,-1
 -8 -210 l 1,7,-1
 95 288 l 1,4,-1
EndSplineSet
EndChar

StartChar: question
Encoding: 63 63 443
Width: 571
Flags: W
LayerCount: 2
Fore
SplineSet
195 337 m 128,-1,1
 235 386 235 386 316 441 c 0,2,3
 368 475 368 475 388.5 496 c 128,-1,4
 409 517 409 517 412 540 c 0,5,6
 417 570 417 570 393.5 583.5 c 128,-1,7
 370 597 370 597 312 597 c 0,8,9
 222 597 222 597 96 558 c 1,10,-1
 87 701 l 1,11,12
 151 719 151 719 221.5 729.5 c 128,-1,13
 292 740 292 740 359 740 c 0,14,15
 619 740 619 740 591 565 c 0,16,17
 582 508 582 508 547 463.5 c 128,-1,18
 512 419 512 419 437 371 c 0,19,20
 329 302 329 302 313 232 c 1,21,-1
 146 232 l 1,22,0
 155 288 155 288 195 337 c 128,-1,1
131 157 m 1,23,-1
 305 157 l 1,24,-1
 280 0 l 1,25,-1
 106 0 l 1,26,-1
 131 157 l 1,23,-1
EndSplineSet
Substitution2: "'fwid' Full Widths in Latin lookup 15 subtable" uniFF1F
Substitution2: "'aalt' Access All Alternates in Latin lookup 0 subtable" uniFF1F
EndChar

StartChar: questiondown
Encoding: 191 191 444
Width: 571
Flags: W
LayerCount: 2
Fore
SplineSet
259 363 m 1,0,-1
 284 520 l 1,1,-1
 458 520 l 1,2,-1
 433 363 l 1,3,-1
 259 363 l 1,0,-1
369 183 m 128,-1,5
 329 134 329 134 248 79 c 0,6,7
 196 45 196 45 175.5 24 c 128,-1,8
 155 3 155 3 152 -20 c 0,9,10
 147 -50 147 -50 170.5 -63.5 c 128,-1,11
 194 -77 194 -77 252 -77 c 0,12,13
 342 -77 342 -77 468 -38 c 1,14,-1
 477 -181 l 1,15,16
 413 -199 413 -199 342.5 -209.5 c 128,-1,17
 272 -220 272 -220 205 -220 c 0,18,19
 -55 -220 -55 -220 -27 -45 c 0,20,21
 -18 12 -18 12 17 56.5 c 128,-1,22
 52 101 52 101 127 149 c 0,23,24
 235 218 235 218 251 288 c 1,25,-1
 418 288 l 1,26,4
 409 232 409 232 369 183 c 128,-1,5
EndSplineSet
EndChar

StartChar: bullet
Encoding: 8226 8226 446
Width: 386
Flags: W
LayerCount: 2
Fore
SplineSet
106.5 169.5 m 128,-1,1
 78 188 78 188 64.5 220 c 128,-1,2
 51 252 51 252 57 290 c 256,3,4
 63 328 63 328 87 360 c 128,-1,5
 111 392 111 392 145 410.5 c 128,-1,6
 179 429 179 429 216 429 c 0,7,8
 253 429 253 429 281.5 410.5 c 128,-1,9
 310 392 310 392 323.5 360 c 128,-1,10
 337 328 337 328 331 290 c 256,11,12
 325 252 325 252 301 220 c 128,-1,13
 277 188 277 188 243 169.5 c 128,-1,14
 209 151 209 151 172 151 c 0,15,0
 135 151 135 151 106.5 169.5 c 128,-1,1
EndSplineSet
EndChar

StartChar: asterisk
Encoding: 42 42 447
Width: 515
Flags: W
LayerCount: 2
Fore
SplineSet
91 386 m 1,0,-1
 194 499 l 1,1,-1
 66 539 l 1,2,-1
 126 665 l 1,3,-1
 250 617 l 1,4,-1
 269 760 l 1,5,-1
 398 760 l 1,6,-1
 371 617 l 1,7,-1
 510 665 l 1,8,-1
 530 539 l 1,9,-1
 390 499 l 1,10,-1
 457 386 l 1,11,-1
 341 309 l 1,12,-1
 280 427 l 1,13,-1
 183 309 l 1,14,-1
 91 386 l 1,0,-1
EndSplineSet
EndChar

StartChar: numbersign
Encoding: 35 35 448
Width: 671
Flags: W
LayerCount: 2
Fore
SplineSet
667 455 m 1,0,-1
 569 455 l 1,1,-1
 515 295 l 1,2,-1
 589 295 l 1,3,-1
 568 163 l 1,4,-1
 470 163 l 1,5,-1
 417 0 l 1,6,-1
 266 0 l 1,7,-1
 320 163 l 1,8,-1
 239 163 l 1,9,-1
 185 0 l 1,10,-1
 35 0 l 1,11,-1
 88 163 l 1,12,-1
 13 163 l 1,13,-1
 34 295 l 1,14,-1
 133 295 l 1,15,-1
 185 455 l 1,16,-1
 111 455 l 1,17,-1
 132 587 l 1,18,-1
 229 587 l 1,19,-1
 277 730 l 1,20,-1
 427 730 l 1,21,-1
 380 587 l 1,22,-1
 461 587 l 1,23,-1
 508 730 l 1,24,-1
 659 730 l 1,25,-1
 612 587 l 1,26,-1
 687 587 l 1,27,-1
 667 455 l 1,0,-1
279 292 m 1,28,-1
 367 292 l 1,29,-1
 422 458 l 1,30,-1
 334 458 l 1,31,-1
 279 292 l 1,28,-1
EndSplineSet
EndChar

StartChar: slash
Encoding: 47 47 449
Width: 511
Flags: W
LayerCount: 2
Fore
SplineSet
423 750 m 1,0,-1
 577 750 l 1,1,-1
 111 -40 l 1,2,-1
 -43 -40 l 1,3,-1
 423 750 l 1,0,-1
EndSplineSet
EndChar

StartChar: backslash
Encoding: 92 92 450
Width: 511
Flags: W
LayerCount: 2
Fore
SplineSet
452 -40 m 1,0,-1
 298 -40 l 1,1,-1
 82 750 l 1,2,-1
 236 750 l 1,3,-1
 452 -40 l 1,0,-1
EndSplineSet
EndChar

StartChar: parenleft
Encoding: 40 40 452
Width: 382
Flags: W
LayerCount: 2
Fore
SplineSet
71.5 91 m 128,-1,1
 51 206 51 206 71 330 c 0,2,3
 91 455 91 455 147.5 569.5 c 128,-1,4
 204 684 204 684 289 770 c 1,5,-1
 431 770 l 1,6,7
 346 671 346 671 296 563.5 c 128,-1,8
 246 456 246 456 226 330 c 256,9,10
 206 204 206 204 221.5 96.5 c 128,-1,11
 237 -11 237 -11 291 -110 c 1,12,-1
 149 -110 l 1,13,0
 92 -24 92 -24 71.5 91 c 128,-1,1
EndSplineSet
Substitution2: "'fwid' Full Widths in Latin lookup 15 subtable" uniFF08
Substitution2: "'aalt' Access All Alternates in Latin lookup 0 subtable" uniFF08
EndChar

StartChar: parenright
Encoding: 41 41 453
Width: 382
Flags: W
LayerCount: 2
Fore
SplineSet
-33 -110 m 1,0,1
 52 -11 52 -11 102 96.5 c 128,-1,2
 152 204 152 204 172 330 c 256,3,4
 192 456 192 456 176 563.5 c 128,-1,5
 160 671 160 671 106 770 c 1,6,-1
 248 770 l 1,7,8
 305 684 305 684 325.5 569.5 c 128,-1,9
 346 455 346 455 326 330 c 0,10,11
 306 206 306 206 249.5 91 c 128,-1,12
 193 -24 193 -24 109 -110 c 1,13,-1
 -33 -110 l 1,0,1
EndSplineSet
Substitution2: "'fwid' Full Widths in Latin lookup 15 subtable" uniFF09
Substitution2: "'aalt' Access All Alternates in Latin lookup 0 subtable" uniFF09
EndChar

StartChar: braceleft
Encoding: 123 123 454
Width: 495
Flags: W
CounterMasks: 1 e0
LayerCount: 2
Fore
SplineSet
156.5 -71.5 m 128,-1,1
 125 -33 125 -33 139 55 c 2,2,-1
 154 147 l 2,3,4
 164 208 164 208 148.5 234 c 128,-1,5
 133 260 133 260 86 260 c 2,6,-1
 44 260 l 1,7,-1
 67 400 l 1,8,-1
 108 400 l 2,9,10
 155 400 155 400 178.5 426 c 128,-1,11
 202 452 202 452 212 513 c 2,12,-1
 226 605 l 2,13,14
 240 693 240 693 283.5 731.5 c 128,-1,15
 327 770 327 770 411 770 c 2,16,-1
 531 770 l 1,17,-1
 512 652 l 1,18,-1
 469 652 l 2,19,20
 427 652 427 652 408.5 645.5 c 128,-1,21
 390 639 390 639 381 620.5 c 128,-1,22
 372 602 372 602 365 557 c 2,23,-1
 356 499 l 2,24,25
 345 429 345 429 313 390 c 128,-1,26
 281 351 281 351 220 331 c 1,27,-1
 220 329 l 1,28,29
 275 309 275 309 294 270 c 128,-1,30
 313 231 313 231 302 161 c 2,31,-1
 293 103 l 2,32,33
 286 58 286 58 289 39.5 c 128,-1,34
 292 21 292 21 308.5 14.5 c 128,-1,35
 325 8 325 8 367 8 c 2,36,-1
 410 8 l 1,37,-1
 392 -110 l 1,38,-1
 272 -110 l 2,39,0
 188 -110 188 -110 156.5 -71.5 c 128,-1,1
EndSplineSet
EndChar

StartChar: braceright
Encoding: 125 125 455
Width: 495
Flags: W
CounterMasks: 1 e0
LayerCount: 2
Fore
SplineSet
-21 -110 m 1,0,-1
 -2 8 l 1,1,-1
 41 8 l 2,2,3
 83 8 83 8 102 14.5 c 128,-1,4
 121 21 121 21 129.5 39.5 c 128,-1,5
 138 58 138 58 145 103 c 2,6,-1
 155 161 l 2,7,8
 166 231 166 231 197.5 270 c 128,-1,9
 229 309 229 309 290 329 c 1,10,-1
 290 331 l 1,11,12
 235 351 235 351 216 390 c 128,-1,13
 197 429 197 429 208 499 c 2,14,-1
 217 557 l 2,15,16
 224 602 224 602 221.5 620.5 c 128,-1,17
 219 639 219 639 202 645.5 c 128,-1,18
 185 652 185 652 143 652 c 2,19,-1
 100 652 l 1,20,-1
 119 770 l 1,21,-1
 238 770 l 2,22,23
 322 770 322 770 353.5 731.5 c 128,-1,24
 385 693 385 693 371 605 c 2,25,-1
 356 513 l 2,26,27
 346 452 346 452 362 426 c 128,-1,28
 378 400 378 400 425 400 c 2,29,-1
 466 400 l 1,30,-1
 444 260 l 1,31,-1
 403 260 l 2,32,33
 356 260 356 260 332 234 c 128,-1,34
 308 208 308 208 298 147 c 2,35,-1
 284 55 l 2,36,37
 270 -33 270 -33 226.5 -71.5 c 128,-1,38
 183 -110 183 -110 99 -110 c 2,39,-1
 -21 -110 l 1,0,-1
EndSplineSet
EndChar

StartChar: bracketleft
Encoding: 91 91 456
Width: 436
Flags: W
LayerCount: 2
Fore
SplineSet
147 770 m 1,0,-1
 479 770 l 1,1,-1
 461 652 l 1,2,-1
 274 652 l 1,3,-1
 172 8 l 1,4,-1
 359 8 l 1,5,-1
 340 -110 l 1,6,-1
 8 -110 l 1,7,-1
 147 770 l 1,0,-1
EndSplineSet
EndChar

StartChar: bracketright
Encoding: 93 93 457
Width: 436
Flags: W
LayerCount: 2
Fore
SplineSet
304 -110 m 1,0,-1
 -27 -110 l 1,1,-1
 -8 8 l 1,2,-1
 178 8 l 1,3,-1
 280 652 l 1,4,-1
 94 652 l 1,5,-1
 112 770 l 1,6,-1
 444 770 l 1,7,-1
 304 -110 l 1,0,-1
EndSplineSet
EndChar

StartChar: hyphen
Encoding: 45 45 458
Width: 426
Flags: W
LayerCount: 2
Fore
SplineSet
61 363 m 1,0,-1
 391 363 l 1,1,-1
 368 217 l 1,2,-1
 38 217 l 1,3,-1
 61 363 l 1,0,-1
EndSplineSet
EndChar

StartChar: endash
Encoding: 8211 8211 460
Width: 490
Flags: W
LayerCount: 2
Fore
SplineSet
12 363 m 1,0,-1
 502 363 l 1,1,-1
 479 217 l 1,2,-1
 -11 217 l 1,3,-1
 12 363 l 1,0,-1
EndSplineSet
EndChar

StartChar: emdash
Encoding: 8212 8212 461
Width: 980
Flags: W
LayerCount: 2
Fore
SplineSet
12 363 m 1,0,-1
 992 363 l 1,1,-1
 969 217 l 1,2,-1
 -11 217 l 1,3,-1
 12 363 l 1,0,-1
EndSplineSet
EndChar

StartChar: uni2015
Encoding: 8213 8213 462
Width: 973
Flags: W
LayerCount: 2
Fore
SplineSet
69 433 m 1,0,-1
 951 433 l 1,1,-1
 928 287 l 1,2,-1
 46 287 l 1,3,-1
 69 433 l 1,0,-1
EndSplineSet
EndChar

StartChar: underscore
Encoding: 95 95 463
Width: 614
Flags: W
LayerCount: 2
Fore
SplineSet
-57 -73 m 1,0,-1
 558 -73 l 1,1,-1
 540 -188 l 1,2,-1
 -75 -188 l 1,3,-1
 -57 -73 l 1,0,-1
EndSplineSet
EndChar

StartChar: quoteleft
Encoding: 8216 8216 468
Width: 309
Flags: W
LayerCount: 2
Fore
SplineSet
233 470 m 1,0,-1
 52 470 l 1,1,-1
 216 770 l 1,2,-1
 347 770 l 1,3,-1
 233 470 l 1,0,-1
EndSplineSet
EndChar

StartChar: quoteright
Encoding: 8217 8217 469
Width: 309
Flags: W
LayerCount: 2
Fore
SplineSet
184 770 m 1,0,-1
 364 770 l 1,1,-1
 200 470 l 1,2,-1
 69 470 l 1,3,-1
 184 770 l 1,0,-1
EndSplineSet
EndChar

StartChar: guillemotleft
Encoding: 171 171 470
Width: 556
Flags: W
LayerCount: 2
Fore
SplineSet
6 290 m 1,0,-1
 195 520 l 1,1,-1
 341 520 l 1,2,-1
 148 290 l 1,3,-1
 268 60 l 1,4,-1
 122 60 l 1,5,-1
 6 290 l 1,0,-1
236 290 m 1,6,-1
 423 520 l 1,7,-1
 570 520 l 1,8,-1
 378 290 l 1,9,-1
 497 60 l 1,10,-1
 350 60 l 1,11,-1
 236 290 l 1,6,-1
EndSplineSet
EndChar

StartChar: guillemotright
Encoding: 187 187 471
Width: 556
Flags: W
LayerCount: 2
Fore
SplineSet
134 60 m 1,0,-1
 -12 60 l 1,1,-1
 180 290 l 1,2,-1
 61 520 l 1,3,-1
 207 520 l 1,4,-1
 323 290 l 1,5,-1
 134 60 l 1,0,-1
364 60 m 1,6,-1
 217 60 l 1,7,-1
 409 290 l 1,8,-1
 289 520 l 1,9,-1
 436 520 l 1,10,-1
 551 290 l 1,11,-1
 364 60 l 1,6,-1
EndSplineSet
EndChar

StartChar: guilsinglleft
Encoding: 8249 8249 472
Width: 337
Flags: W
LayerCount: 2
Fore
SplineSet
7 290 m 1,0,-1
 201 520 l 1,1,-1
 351 520 l 1,2,-1
 154 290 l 1,3,-1
 279 60 l 1,4,-1
 128 60 l 1,5,-1
 7 290 l 1,0,-1
EndSplineSet
EndChar

StartChar: guilsinglright
Encoding: 8250 8250 473
Width: 337
Flags: W
LayerCount: 2
Fore
SplineSet
140 60 m 1,0,-1
 -12 60 l 1,1,-1
 186 290 l 1,2,-1
 61 520 l 1,3,-1
 213 520 l 1,4,-1
 333 290 l 1,5,-1
 140 60 l 1,0,-1
EndSplineSet
EndChar

StartChar: quotedbl
Encoding: 34 34 474
Width: 537
Flags: W
LayerCount: 2
Fore
SplineSet
141 770 m 1,0,-1
 318 770 l 1,1,-1
 246 470 l 1,2,-1
 118 470 l 1,3,-1
 141 770 l 1,0,-1
373 770 m 1,4,-1
 550 770 l 1,5,-1
 479 470 l 1,6,-1
 350 470 l 1,7,-1
 373 770 l 1,4,-1
EndSplineSet
EndChar

StartChar: quotesingle
Encoding: 39 39 475
Width: 306
Flags: W
LayerCount: 2
Fore
SplineSet
141 770 m 1,0,-1
 320 770 l 1,1,-1
 248 470 l 1,2,-1
 118 470 l 1,3,-1
 141 770 l 1,0,-1
EndSplineSet
EndChar

StartChar: uni20B5
Encoding: 8373 8373 477
Width: 701
Flags: W
LayerCount: 2
Fore
SplineSet
627 56 m 1,0,1
 534 5 534 5 426 -7 c 1,2,-1
 410 -105 l 1,3,-1
 282 -105 l 1,4,-1
 297 -7 l 1,5,6
 150 10 150 10 84.5 106.5 c 128,-1,7
 19 203 19 203 45 365 c 0,8,9
 71 528 71 528 167 624 c 128,-1,10
 263 720 263 720 415 737 c 1,11,-1
 431 835 l 1,12,-1
 559 835 l 1,13,-1
 544 737 l 1,14,15
 648 725 648 725 725 674 c 1,16,-1
 636 541 l 1,17,18
 576 577 576 577 520 587 c 1,19,-1
 450 143 l 1,20,21
 509 153 509 153 580 189 c 1,22,-1
 627 56 l 1,0,1
222.5 218.5 m 128,-1,24
 252 162 252 162 321 144 c 1,25,-1
 391 586 l 1,26,27
 316 568 316 568 269 511.5 c 128,-1,28
 222 455 222 455 207 365 c 256,29,23
 193 275 193 275 222.5 218.5 c 128,-1,24
EndSplineSet
EndChar

StartChar: cent
Encoding: 162 162 478
Width: 554
Flags: W
LayerCount: 2
Fore
SplineSet
471 29 m 1,0,1
 417 5 417 5 360 -4 c 1,2,-1
 344 -105 l 1,3,-1
 226 -105 l 1,4,-1
 242 -8 l 1,5,6
 119 2 119 2 62.5 71.5 c 128,-1,7
 6 141 6 141 25 260 c 256,8,9
 44 379 44 379 122 448.5 c 128,-1,10
 200 518 200 518 326 528 c 1,11,-1
 342 625 l 1,12,-1
 459 625 l 1,13,-1
 443 524 l 1,14,15
 497 515 497 515 544 491 c 1,16,-1
 491 372 l 1,17,18
 454 390 454 390 423 398 c 1,19,-1
 380 122 l 1,20,21
 413 130 413 130 455 148 c 1,22,-1
 471 29 l 1,0,1
194.5 164.5 m 128,-1,24
 214 128 214 128 262 118 c 1,25,-1
 307 402 l 1,26,27
 256 392 256 392 224.5 355.5 c 128,-1,28
 193 319 193 319 184 260 c 256,29,23
 175 201 175 201 194.5 164.5 c 128,-1,24
EndSplineSet
EndChar

StartChar: colonmonetary
Encoding: 8353 8353 479
Width: 701
Flags: W
LayerCount: 2
Fore
SplineSet
627 56 m 1,0,1
 546 12 546 12 454 -3 c 1,2,-1
 429 -105 l 1,3,-1
 321 -105 l 1,4,-1
 344 -10 l 1,5,6
 309 -8 309 -8 292 -6 c 1,7,-1
 268 -105 l 1,8,-1
 160 -105 l 1,9,-1
 191 21 l 1,10,11
 99 61 99 61 61.5 148.5 c 128,-1,12
 24 236 24 236 45 365 c 0,13,14
 68 512 68 512 150 605.5 c 128,-1,15
 232 699 232 699 362 728 c 1,16,-1
 388 835 l 1,17,-1
 495 835 l 1,18,-1
 473 740 l 1,19,-1
 479 740 l 2,20,21
 494 740 494 740 525 738 c 1,22,-1
 548 835 l 1,23,-1
 656 835 l 1,24,-1
 628 719 l 1,25,26
 680 703 680 703 725 674 c 1,27,-1
 636 541 l 1,28,29
 615 553 615 553 591 565 c 1,30,-1
 491 153 l 1,31,32
 533 165 533 165 580 189 c 1,33,-1
 627 56 l 1,0,1
380 137 m 1,35,-1
 489 592 l 1,36,37
 479 593 479 593 459 593 c 0,38,39
 444 593 444 593 436 592 c 1,40,-1
 328 143 l 1,41,34
 352 137 352 137 380 137 c 1,35,-1
234 200 m 1,43,-1
 320 556 l 1,44,45
 275 528 275 528 246.5 479.5 c 128,-1,46
 218 431 218 431 207 365 c 0,47,42
 191 260 191 260 234 200 c 1,43,-1
EndSplineSet
EndChar

StartChar: currency
Encoding: 164 164 480
Width: 678
Flags: W
LayerCount: 2
Fore
SplineSet
542 245 m 1,1,-1
 614 157 l 1,2,-1
 507 63 l 1,3,-1
 435 151 l 1,4,5
 377 120 377 120 314 120 c 0,6,7
 251 120 251 120 201 152 c 1,8,-1
 100 63 l 1,9,-1
 24 157 l 1,10,-1
 124 245 l 1,11,12
 102 301 102 301 112 365 c 256,13,14
 122 429 122 429 162 485 c 1,15,-1
 89 573 l 1,16,-1
 195 666 l 1,17,-1
 268 578 l 1,18,19
 330 610 330 610 391 610 c 0,20,21
 455 610 455 610 503 579 c 1,22,-1
 603 667 l 1,23,-1
 680 573 l 1,24,-1
 580 485 l 1,25,26
 602 429 602 429 593 365 c 256,27,0
 582 301 582 301 542 245 c 1,1,-1
411.5 293 m 128,-1,29
 446 323 446 323 452 365 c 256,30,31
 459 407 459 407 434.5 437 c 128,-1,32
 410 467 410 467 369 467 c 256,33,34
 328 467 328 467 293.5 437 c 128,-1,35
 259 407 259 407 252 365 c 256,36,37
 245 323 245 323 270 293 c 128,-1,38
 295 263 295 263 336 263 c 256,39,28
 377 263 377 263 411.5 293 c 128,-1,29
EndSplineSet
EndChar

StartChar: dollar
Encoding: 36 36 481
Width: 635
Flags: W
LayerCount: 2
Fore
SplineSet
485.5 49.5 m 128,-1,1
 402 -9 402 -9 272 -10 c 1,2,-1
 257 -105 l 1,3,-1
 127 -105 l 1,4,-1
 144 3 l 1,5,6
 61 21 61 21 9 63 c 1,7,-1
 74 206 l 1,8,9
 114 176 114 176 168 155 c 1,10,-1
 197 338 l 1,11,12
 125 376 125 376 98 422.5 c 128,-1,13
 71 469 71 469 81 534 c 0,14,15
 97 632 97 632 176.5 685 c 128,-1,16
 256 738 256 738 389 740 c 1,17,-1
 404 835 l 1,18,-1
 534 835 l 1,19,-1
 517 729 l 1,20,21
 588 715 588 715 637 688 c 1,22,-1
 574 545 l 1,23,24
 531 569 531 569 493 580 c 1,25,-1
 466 404 l 1,26,27
 540 365 540 365 567.5 319 c 128,-1,28
 595 273 595 273 585 209 c 0,29,0
 569 108 569 108 485.5 49.5 c 128,-1,1
250 534 m 0,31,32
 246 509 246 509 267.5 491 c 128,-1,33
 289 473 289 473 344 455 c 1,34,-1
 367 597 l 1,35,30
 259 591 259 591 250 534 c 0,31,32
380 152.5 m 128,-1,37
 412 171 412 171 417 205 c 0,38,39
 421 233 421 233 400 251 c 128,-1,40
 379 269 379 269 319 288 c 1,41,-1
 294 133 l 1,42,36
 348 134 348 134 380 152.5 c 128,-1,37
EndSplineSet
EndChar

StartChar: dong
Encoding: 8363 8363 482
Width: 711
Flags: W
LayerCount: 2
Fore
SplineSet
730 701 m 1,0,-1
 714 599 l 1,1,-1
 613 599 l 1,2,-1
 541 150 l 1,3,-1
 386 150 l 1,4,-1
 391 190 l 1,5,-1
 389 190 l 1,6,7
 353 167 353 167 308.5 154.5 c 128,-1,8
 264 142 264 142 219 142 c 0,9,10
 127 142 127 142 85.5 198.5 c 128,-1,11
 44 255 44 255 60 358 c 256,12,13
 76 461 76 461 135.5 517.5 c 128,-1,14
 195 574 195 574 287 574 c 0,15,16
 332 574 332 574 371 561.5 c 128,-1,17
 410 549 410 549 435 526 c 1,18,-1
 437 526 l 1,19,-1
 449 599 l 1,20,-1
 302 599 l 1,21,-1
 318 701 l 1,22,-1
 465 701 l 1,23,-1
 473 750 l 1,24,-1
 637 750 l 1,25,-1
 629 701 l 1,26,-1
 730 701 l 1,0,-1
371 279 m 128,-1,28
 402 305 402 305 409 348 c 2,29,-1
 413 369 l 2,30,31
 420 411 420 411 397 437 c 128,-1,32
 374 463 374 463 329 463 c 256,33,34
 285 463 285 463 257 435.5 c 128,-1,35
 229 408 229 408 221 358 c 256,36,37
 213 308 213 308 232.5 280.5 c 128,-1,38
 252 253 252 253 296 253 c 256,39,27
 340 253 340 253 371 279 c 128,-1,28
8 0 m 1,40,-1
 24 101 l 1,41,-1
 635 101 l 1,42,-1
 619 0 l 1,43,-1
 8 0 l 1,40,-1
EndSplineSet
EndChar

StartChar: Euro
Encoding: 8364 8364 483
Width: 769
GlyphClass: 2
Flags: W
AnchorPoint: "Anchor-1" 431 730 basechar 0
AnchorPoint: "Anchor-0" 431 0 basechar 0
LayerCount: 2
Fore
SplineSet
648 189 m 1,1,-1
 695 56 l 1,2,3
 579 -10 579 -10 439 -10 c 0,4,5
 305 -10 305 -10 226.5 50.5 c 128,-1,6
 148 111 148 111 134 225 c 1,7,-1
 16 225 l 1,8,-1
 34 335 l 1,9,-1
 134 335 l 1,10,11
 135 345 135 345 138 365 c 256,12,13
 141 385 141 385 144 395 c 1,14,-1
 43 395 l 1,15,-1
 60 505 l 1,16,-1
 178 505 l 1,17,18
 228 619 228 619 326 679.5 c 128,-1,19
 424 740 424 740 558 740 c 0,20,21
 697 740 697 740 793 674 c 1,22,-1
 704 541 l 1,23,24
 625 593 625 593 543 593 c 0,25,26
 486 593 486 593 440.5 570.5 c 128,-1,27
 395 548 395 548 363 505 c 1,28,-1
 648 505 l 1,29,-1
 631 395 l 1,30,-1
 315 395 l 1,31,32
 312 385 312 385 310 365 c 256,33,34
 307 345 307 345 306 335 c 1,35,-1
 622 335 l 1,36,-1
 604 225 l 1,37,-1
 319 225 l 1,38,39
 337 182 337 182 375.5 159.5 c 128,-1,40
 414 137 414 137 471 137 c 0,41,0
 553 137 553 137 648 189 c 1,1,-1
EndSplineSet
EndChar

StartChar: florin
Encoding: 402 402 484
Width: 497
Flags: W
LayerCount: 2
Fore
SplineSet
-44 -105 m 1,1,-1
 -4 18 l 1,2,3
 33 3 33 3 66 3 c 0,4,5
 100 3 100 3 115 21 c 128,-1,6
 130 39 130 39 138 88 c 2,7,-1
 171 294 l 1,8,-1
 54 294 l 1,9,-1
 73 417 l 1,10,-1
 190 417 l 1,11,-1
 209 532 l 2,12,13
 225 634 225 634 281.5 687 c 128,-1,14
 338 740 338 740 431 740 c 0,15,16
 485 740 485 740 549 725 c 1,17,-1
 509 602 l 1,18,19
 474 617 474 617 439 617 c 0,20,21
 406 617 406 617 390.5 599 c 128,-1,22
 375 581 375 581 367 532 c 2,23,-1
 349 417 l 1,24,-1
 493 417 l 1,25,-1
 473 294 l 1,26,-1
 330 294 l 1,27,-1
 297 88 l 2,28,29
 281 -14 281 -14 224.5 -67 c 128,-1,30
 168 -120 168 -120 74 -120 c 0,31,0
 20 -120 20 -120 -44 -105 c 1,1,-1
EndSplineSet
EndChar

StartChar: franc
Encoding: 8355 8355 485
Width: 639
Flags: W
LayerCount: 2
Fore
SplineSet
642 587 m 1,0,-1
 339 587 l 1,1,-1
 318 453 l 1,2,-1
 601 453 l 1,3,-1
 579 314 l 1,4,-1
 296 314 l 1,5,-1
 279 207 l 1,6,-1
 486 207 l 1,7,-1
 466 83 l 1,8,-1
 260 83 l 1,9,-1
 246 0 l 1,10,-1
 80 0 l 1,11,-1
 93 83 l 1,12,-1
 -11 83 l 1,13,-1
 9 207 l 1,14,-1
 113 207 l 1,15,-1
 195 730 l 1,16,-1
 665 730 l 1,17,-1
 642 587 l 1,0,-1
EndSplineSet
EndChar

StartChar: uni20B2
Encoding: 8370 8370 486
Width: 773
Flags: W
LayerCount: 2
Fore
SplineSet
682 49 m 1,0,1
 623 21 623 21 548 6 c 128,-1,2
 473 -9 473 -9 394 -10 c 1,3,-1
 379 -105 l 1,4,-1
 250 -105 l 1,5,-1
 267 3 l 1,6,7
 138 32 138 32 80 126 c 128,-1,8
 22 220 22 220 45 365 c 256,9,10
 68 510 68 510 155.5 604 c 128,-1,11
 243 698 243 698 381 727 c 1,12,-1
 398 835 l 1,13,-1
 528 835 l 1,14,-1
 513 740 l 1,15,16
 667 738 667 738 755 675 c 1,17,-1
 672 546 l 1,18,19
 592 594 592 594 490 597 c 1,20,-1
 466 444 l 1,21,-1
 744 444 l 1,22,-1
 682 49 l 1,0,1
291 154 m 1,24,-1
 357 576 l 1,25,26
 232 524 232 524 207 365 c 256,27,23
 183 206 183 206 291 154 c 1,24,-1
417 133 m 1,28,29
 479 135 479 135 531 152 c 1,30,-1
 555 302 l 1,31,-1
 443 302 l 1,32,-1
 417 133 l 1,28,29
EndSplineSet
EndChar

StartChar: uni20AD
Encoding: 8365 8365 487
Width: 768
GlyphClass: 2
Flags: W
AnchorPoint: "Anchor-1" 344 730 basechar 0
AnchorPoint: "Anchor-0" 344 0 basechar 0
LayerCount: 2
Fore
SplineSet
743 443 m 1,0,-1
 723 320 l 1,1,-1
 498 320 l 1,2,-1
 673 0 l 1,3,-1
 479 0 l 1,4,-1
 315 320 l 1,5,-1
 297 320 l 1,6,-1
 246 0 l 1,7,-1
 80 0 l 1,8,-1
 130 320 l 1,9,-1
 27 320 l 1,10,-1
 46 443 l 1,11,-1
 150 443 l 1,12,-1
 195 730 l 1,13,-1
 362 730 l 1,14,-1
 317 443 l 1,15,-1
 335 443 l 1,16,-1
 584 730 l 1,17,-1
 779 730 l 1,18,-1
 519 443 l 1,19,-1
 743 443 l 1,0,-1
EndSplineSet
EndChar

StartChar: lira
Encoding: 8356 8356 488
Width: 642
Flags: W
LayerCount: 2
Fore
SplineSet
566 139 m 1,0,-1
 544 0 l 1,1,-1
 25 0 l 1,2,-1
 47 139 l 1,3,4
 84 141 84 141 110.5 167 c 128,-1,5
 137 193 137 193 152 238 c 1,6,-1
 63 238 l 1,7,-1
 80 348 l 1,8,-1
 173 348 l 1,9,-1
 183 408 l 1,10,-1
 90 408 l 1,11,-1
 107 518 l 1,12,-1
 200 518 l 1,13,-1
 201 525 l 2,14,15
 217 629 217 629 290.5 684.5 c 128,-1,16
 364 740 364 740 485 740 c 0,17,18
 560 740 560 740 636 715 c 1,19,-1
 591 576 l 1,20,21
 564 589 564 589 539 595 c 128,-1,22
 514 601 514 601 484 601 c 0,23,24
 431 601 431 601 404 581.5 c 128,-1,25
 377 562 377 562 367 518 c 1,26,-1
 564 518 l 1,27,-1
 546 408 l 1,28,-1
 349 408 l 1,29,-1
 340 348 l 1,30,-1
 537 348 l 1,31,-1
 519 238 l 1,32,-1
 319 238 l 1,33,34
 307 203 307 203 286.5 177.5 c 128,-1,35
 266 152 266 152 241 141 c 1,36,-1
 241 139 l 1,37,-1
 566 139 l 1,0,-1
EndSplineSet
EndChar

StartChar: uni20BA
Encoding: 8378 8378 489
Width: 673
Flags: W
LayerCount: 2
Fore
SplineSet
653 340 m 1,0,1
 634 217 634 217 571.5 140 c 128,-1,2
 509 63 509 63 398 26.5 c 128,-1,3
 287 -10 287 -10 117 -10 c 2,4,-1
 78 -10 l 1,5,-1
 130 320 l 1,6,-1
 24 302 l 1,7,-1
 41 412 l 1,8,-1
 148 430 l 1,9,-1
 157 490 l 1,10,-1
 51 472 l 1,11,-1
 68 582 l 1,12,-1
 175 600 l 1,13,-1
 195 730 l 1,14,-1
 366 730 l 1,15,-1
 350 630 l 1,16,-1
 537 662 l 1,17,-1
 520 552 l 1,18,-1
 333 520 l 1,19,-1
 323 460 l 1,20,-1
 511 492 l 1,21,-1
 493 382 l 1,22,-1
 306 350 l 1,23,-1
 274 147 l 1,24,-1
 278 147 l 2,25,26
 380 147 380 147 436.5 194.5 c 128,-1,27
 493 242 493 242 509 340 c 1,28,-1
 653 340 l 1,0,1
EndSplineSet
EndChar

StartChar: uni20BC
Encoding: 8380 8380 490
Width: 773
Flags: W
LayerCount: 2
Fore
SplineSet
708 662.5 m 128,-1,1
 764 591 764 591 744 460 c 2,2,-1
 671 0 l 1,3,-1
 511 0 l 1,4,-1
 581 439 l 2,5,6
 594 518 594 518 575 553 c 128,-1,7
 556 588 556 588 500 592 c 1,8,-1
 406 0 l 1,9,-1
 277 0 l 1,10,-1
 371 592 l 1,11,12
 315 588 315 588 285 553 c 128,-1,13
 255 518 255 518 243 439 c 2,14,-1
 173 0 l 1,15,-1
 12 0 l 1,16,-1
 85 460 l 2,17,18
 106 590 106 590 185 661.5 c 128,-1,19
 264 733 264 733 394 739 c 1,20,-1
 409 835 l 1,21,-1
 539 835 l 1,22,-1
 523 740 l 1,23,0
 652 734 652 734 708 662.5 c 128,-1,1
EndSplineSet
EndChar

StartChar: uni20A6
Encoding: 8358 8358 491
Width: 833
GlyphClass: 2
Flags: W
AnchorPoint: "Anchor-1" 382 730 basechar 0
AnchorPoint: "Anchor-0" 382 0 basechar 0
LayerCount: 2
Fore
SplineSet
829 395 m 1,0,-1
 725 395 l 1,1,-1
 716 335 l 1,2,-1
 820 335 l 1,3,-1
 802 225 l 1,4,-1
 699 225 l 1,5,-1
 663 0 l 1,6,-1
 493 0 l 1,7,-1
 320 450 l 1,8,-1
 318 450 l 1,9,-1
 246 0 l 1,10,-1
 80 0 l 1,11,-1
 115 225 l 1,12,-1
 12 225 l 1,13,-1
 29 335 l 1,14,-1
 133 335 l 1,15,-1
 142 395 l 1,16,-1
 38 395 l 1,17,-1
 56 505 l 1,18,-1
 160 505 l 1,19,-1
 195 730 l 1,20,-1
 366 730 l 1,21,-1
 539 280 l 1,22,-1
 541 280 l 1,23,-1
 612 730 l 1,24,-1
 779 730 l 1,25,-1
 743 505 l 1,26,-1
 847 505 l 1,27,-1
 829 395 l 1,0,-1
EndSplineSet
EndChar

StartChar: peseta
Encoding: 8359 8359 492
Width: 756
Flags: W
LayerCount: 2
Fore
SplineSet
767 407 m 1,0,-1
 677 407 l 1,1,2
 645 309 645 309 564 258.5 c 128,-1,3
 483 208 483 208 358 208 c 2,4,-1
 279 208 l 1,5,-1
 246 0 l 1,6,-1
 80 0 l 1,7,-1
 144 407 l 1,8,-1
 40 407 l 1,9,-1
 60 530 l 1,10,-1
 164 530 l 1,11,-1
 195 730 l 1,12,-1
 408 730 l 2,13,14
 553 730 553 730 624.5 680.5 c 128,-1,15
 696 631 696 631 697 530 c 1,16,-1
 786 530 l 1,17,-1
 767 407 l 1,0,-1
330 530 m 1,18,-1
 521 530 l 1,19,20
 513 565 513 565 482 581.5 c 128,-1,21
 451 598 451 598 395 598 c 2,22,-1
 341 598 l 1,23,-1
 330 530 l 1,18,-1
446.5 355.5 m 128,-1,25
 483 372 483 372 502 407 c 1,26,-1
 311 407 l 1,27,-1
 300 339 l 1,28,-1
 354 339 l 2,29,24
 410 339 410 339 446.5 355.5 c 128,-1,25
EndSplineSet
EndChar

StartChar: uni20B1
Encoding: 8369 8369 493
Width: 756
Flags: W
LayerCount: 2
Fore
SplineSet
781 499 m 1,0,-1
 696 499 l 1,1,2
 695 489 695 489 692 469 c 256,3,4
 689 449 689 449 686 439 c 1,5,-1
 772 439 l 1,6,-1
 754 329 l 1,7,-1
 639 329 l 1,8,9
 554 208 554 208 358 208 c 2,10,-1
 279 208 l 1,11,-1
 246 0 l 1,12,-1
 80 0 l 1,13,-1
 132 329 l 1,14,-1
 28 329 l 1,15,-1
 45 439 l 1,16,-1
 149 439 l 1,17,-1
 159 499 l 1,18,-1
 55 499 l 1,19,-1
 72 609 l 1,20,-1
 176 609 l 1,21,-1
 195 730 l 1,22,-1
 408 730 l 2,23,24
 521 730 521 730 589 700 c 128,-1,25
 657 670 657 670 683 609 c 1,26,-1
 799 609 l 1,27,-1
 781 499 l 1,0,-1
470.5 370.5 m 128,-1,29
 511 402 511 402 522 469 c 256,30,31
 533 536 533 536 502 567 c 128,-1,32
 471 598 471 598 395 598 c 2,33,-1
 341 598 l 1,34,-1
 300 339 l 1,35,-1
 354 339 l 2,36,28
 430 339 430 339 470.5 370.5 c 128,-1,29
EndSplineSet
EndChar

StartChar: uni20BD
Encoding: 8381 8381 494
Width: 686
Flags: W
LayerCount: 2
Fore
SplineSet
288 264 m 1,0,-1
 279 204 l 1,1,-1
 485 204 l 1,2,-1
 468 94 l 1,3,-1
 261 94 l 1,4,-1
 246 0 l 1,5,-1
 80 0 l 1,6,-1
 95 94 l 1,7,-1
 -9 94 l 1,8,-1
 8 204 l 1,9,-1
 112 204 l 1,10,-1
 122 264 l 1,11,-1
 18 264 l 1,12,-1
 35 374 l 1,13,-1
 139 374 l 1,14,-1
 195 730 l 1,15,-1
 408 730 l 2,16,17
 573 730 573 730 643.5 669 c 128,-1,18
 714 608 714 608 694 482 c 0,19,20
 677 374 677 374 594 319 c 128,-1,21
 511 264 511 264 367 264 c 2,22,-1
 288 264 l 1,0,-1
306 374 m 1,23,-1
 360 374 l 2,24,25
 436 374 436 374 475.5 400 c 128,-1,26
 515 426 515 426 524 482 c 256,27,28
 533 538 533 538 501.5 564 c 128,-1,29
 470 590 470 590 394 590 c 2,30,-1
 340 590 l 1,31,-1
 306 374 l 1,23,-1
EndSplineSet
EndChar

StartChar: uni20B9
Encoding: 8377 8377 495
Width: 614
Flags: W
LayerCount: 2
Fore
SplineSet
524 620 m 1,0,1
 538 588 538 588 537 550 c 1,2,-1
 626 550 l 1,3,-1
 608 440 l 1,4,-1
 517 440 l 1,5,6
 469 316 469 316 322 283 c 1,7,-1
 483 0 l 1,8,-1
 292 0 l 1,9,-1
 138 271 l 1,10,-1
 43 271 l 1,11,-1
 63 393 l 1,12,-1
 224 393 l 2,13,14
 309 393 309 393 342 440 c 1,15,-1
 70 440 l 1,16,-1
 88 550 l 1,17,-1
 359 550 l 1,18,19
 342 597 342 597 257 597 c 2,20,-1
 95 597 l 1,21,-1
 116 730 l 1,22,-1
 654 730 l 1,23,-1
 637 620 l 1,24,-1
 524 620 l 1,0,1
EndSplineSet
EndChar

StartChar: sterling
Encoding: 163 163 496
Width: 642
Flags: W
LayerCount: 2
Fore
SplineSet
566 139 m 1,0,-1
 544 0 l 1,1,-1
 25 0 l 1,2,-1
 47 139 l 1,3,4
 92 142 92 142 122.5 180.5 c 128,-1,5
 153 219 153 219 163 284 c 2,6,-1
 168 317 l 1,7,-1
 75 317 l 1,8,-1
 95 440 l 1,9,-1
 188 440 l 1,10,-1
 201 525 l 2,11,12
 217 629 217 629 290.5 684.5 c 128,-1,13
 364 740 364 740 485 740 c 0,14,15
 560 740 560 740 636 715 c 1,16,-1
 591 576 l 1,17,18
 564 589 564 589 539 595 c 128,-1,19
 514 601 514 601 484 601 c 0,20,21
 427 601 427 601 400 579 c 128,-1,22
 373 557 373 557 365 506 c 2,23,-1
 354 440 l 1,24,-1
 551 440 l 1,25,-1
 532 317 l 1,26,-1
 335 317 l 1,27,-1
 330 284 l 2,28,29
 322 233 322 233 298 194.5 c 128,-1,30
 274 156 274 156 241 141 c 1,31,-1
 241 139 l 1,32,-1
 566 139 l 1,0,-1
EndSplineSet
EndChar

StartChar: uni20A9
Encoding: 8361 8361 497
Width: 1022
GlyphClass: 2
Flags: W
AnchorPoint: "Anchor-1" 479 730 basechar 0
AnchorPoint: "Anchor-0" 479 0 basechar 0
LayerCount: 2
Fore
SplineSet
1018 395 m 1,0,-1
 903 395 l 1,1,-1
 881 335 l 1,2,-1
 1009 335 l 1,3,-1
 992 225 l 1,4,-1
 840 225 l 1,5,-1
 757 0 l 1,6,-1
 556 0 l 1,7,-1
 539 446 l 1,8,-1
 537 446 l 1,9,-1
 378 0 l 1,10,-1
 177 0 l 1,11,-1
 165 225 l 1,12,-1
 12 225 l 1,13,-1
 29 335 l 1,14,-1
 159 335 l 1,15,-1
 157 395 l 1,16,-1
 38 395 l 1,17,-1
 56 505 l 1,18,-1
 151 505 l 1,19,-1
 140 730 l 1,20,-1
 310 730 l 1,21,-1
 310 505 l 1,22,-1
 422 505 l 1,23,-1
 466 630 l 1,24,-1
 668 630 l 1,25,-1
 671 505 l 1,26,-1
 784 505 l 1,27,-1
 855 730 l 1,28,-1
 1026 730 l 1,29,-1
 944 505 l 1,30,-1
 1036 505 l 1,31,-1
 1018 395 l 1,0,-1
310 185 m 1,32,-1
 312 185 l 1,33,-1
 384 395 l 1,34,-1
 310 395 l 1,35,-1
 310 185 l 1,32,-1
682 185 m 1,36,-1
 749 395 l 1,37,-1
 675 395 l 1,38,-1
 680 185 l 1,39,-1
 682 185 l 1,36,-1
EndSplineSet
EndChar

StartChar: yen
Encoding: 165 165 498
Width: 662
Flags: W
LayerCount: 2
Fore
SplineSet
729 730 m 1,0,-1
 496 393 l 1,1,-1
 624 393 l 1,2,-1
 607 283 l 1,3,-1
 420 283 l 1,4,-1
 417 280 l 1,5,-1
 408 223 l 1,6,-1
 598 223 l 1,7,-1
 580 113 l 1,8,-1
 391 113 l 1,9,-1
 373 0 l 1,10,-1
 199 0 l 1,11,-1
 217 113 l 1,12,-1
 28 113 l 1,13,-1
 46 223 l 1,14,-1
 234 223 l 1,15,-1
 243 280 l 1,16,-1
 242 283 l 1,17,-1
 55 283 l 1,18,-1
 73 393 l 1,19,-1
 201 393 l 1,20,-1
 75 730 l 1,21,-1
 260 730 l 1,22,-1
 353 427 l 1,23,-1
 354 427 l 1,24,-1
 544 730 l 1,25,-1
 729 730 l 1,0,-1
EndSplineSet
EndChar

StartChar: uni2215
Encoding: 8725 8725 500
Width: 484
Flags: W
LayerCount: 2
Fore
SplineSet
394 730 m 1,0,-1
 548 730 l 1,1,-1
 117 0 l 1,2,-1
 -37 0 l 1,3,-1
 394 730 l 1,0,-1
EndSplineSet
EndChar

StartChar: plus
Encoding: 43 43 501
Width: 665
Flags: W
LayerCount: 2
Fore
SplineSet
250 217 m 1,0,-1
 38 217 l 1,1,-1
 61 363 l 1,2,-1
 273 363 l 1,3,-1
 308 580 l 1,4,-1
 452 580 l 1,5,-1
 417 363 l 1,6,-1
 629 363 l 1,7,-1
 606 217 l 1,8,-1
 394 217 l 1,9,-1
 360 0 l 1,10,-1
 216 0 l 1,11,-1
 250 217 l 1,0,-1
EndSplineSet
EndChar

StartChar: minus
Encoding: 8722 8722 502
Width: 665
Flags: W
LayerCount: 2
Fore
SplineSet
61 363 m 1,0,-1
 629 363 l 1,1,-1
 606 217 l 1,2,-1
 38 217 l 1,3,-1
 61 363 l 1,0,-1
EndSplineSet
EndChar

StartChar: multiply
Encoding: 215 215 503
Width: 624
Flags: W
LayerCount: 2
Fore
SplineSet
563 108 m 1,0,-1
 446 5 l 1,1,-1
 297 187 l 1,2,-1
 89 5 l 1,3,-1
 5 108 l 1,4,-1
 212 290 l 1,5,-1
 63 472 l 1,6,-1
 180 575 l 1,7,-1
 329 393 l 1,8,-1
 536 575 l 1,9,-1
 621 472 l 1,10,-1
 414 290 l 1,11,-1
 563 108 l 1,0,-1
EndSplineSet
EndChar

StartChar: divide
Encoding: 247 247 504
Width: 665
Flags: W
CounterMasks: 1 e0
LayerCount: 2
Fore
SplineSet
295.5 441 m 128,-1,1
 274 467 274 467 280 504 c 256,2,3
 286 541 286 541 315.5 567 c 128,-1,4
 345 593 345 593 381 593 c 256,5,6
 417 593 417 593 438.5 567 c 128,-1,7
 460 541 460 541 454 504 c 256,8,9
 448 467 448 467 418.5 441 c 128,-1,10
 389 415 389 415 353 415 c 256,11,0
 317 415 317 415 295.5 441 c 128,-1,1
61 363 m 1,12,-1
 629 363 l 1,13,-1
 606 217 l 1,14,-1
 38 217 l 1,15,-1
 61 363 l 1,12,-1
227.5 13 m 128,-1,17
 206 39 206 39 212 76 c 256,18,19
 218 113 218 113 247.5 139 c 128,-1,20
 277 165 277 165 314 165 c 256,21,22
 350 165 350 165 371.5 139 c 128,-1,23
 393 113 393 113 387 76 c 256,24,25
 381 39 381 39 351.5 13 c 128,-1,26
 322 -13 322 -13 285 -13 c 256,27,16
 249 -13 249 -13 227.5 13 c 128,-1,17
EndSplineSet
EndChar

StartChar: equal
Encoding: 61 61 505
Width: 709
Flags: W
LayerCount: 2
Fore
SplineSet
102 485 m 1,0,-1
 670 485 l 1,1,-1
 648 343 l 1,2,-1
 79 343 l 1,3,-1
 102 485 l 1,0,-1
63 237 m 1,4,-1
 631 237 l 1,5,-1
 609 95 l 1,6,-1
 40 95 l 1,7,-1
 63 237 l 1,4,-1
EndSplineSet
EndChar

StartChar: notequal
Encoding: 8800 8800 506
Width: 709
Flags: W
LayerCount: 2
Fore
SplineSet
648 343 m 1,0,-1
 457 343 l 1,1,-1
 407 237 l 1,2,-1
 631 237 l 1,3,-1
 609 95 l 1,4,-1
 340 95 l 1,5,-1
 273 -49 l 1,6,-1
 142 -5 l 1,7,-1
 189 95 l 1,8,-1
 40 95 l 1,9,-1
 63 237 l 1,10,-1
 255 237 l 1,11,-1
 305 343 l 1,12,-1
 79 343 l 1,13,-1
 102 485 l 1,14,-1
 371 485 l 1,15,-1
 438 629 l 1,16,-1
 570 585 l 1,17,-1
 522 485 l 1,18,-1
 670 485 l 1,19,-1
 648 343 l 1,0,-1
EndSplineSet
EndChar

StartChar: greater
Encoding: 62 62 507
Width: 680
Flags: W
LayerCount: 2
Fore
SplineSet
43 153 m 1,0,-1
 506 289 l 1,1,-1
 507 291 l 1,2,-1
 86 427 l 1,3,-1
 111 584 l 1,4,-1
 648 384 l 1,5,-1
 618 196 l 1,6,-1
 18 -4 l 1,7,-1
 43 153 l 1,0,-1
EndSplineSet
EndChar

StartChar: less
Encoding: 60 60 508
Width: 680
Flags: W
LayerCount: 2
Fore
SplineSet
34 196 m 1,0,-1
 64 384 l 1,1,-1
 664 584 l 1,2,-1
 639 427 l 1,3,-1
 176 291 l 1,4,-1
 175 289 l 1,5,-1
 596 153 l 1,6,-1
 571 -4 l 1,7,-1
 34 196 l 1,0,-1
EndSplineSet
EndChar

StartChar: greaterequal
Encoding: 8805 8805 509
Width: 674
Flags: W
LayerCount: 2
Fore
SplineSet
40 174 m 1,0,-1
 65 331 l 1,1,-1
 529 467 l 1,2,-1
 530 469 l 1,3,-1
 108 605 l 1,4,-1
 133 761 l 1,5,-1
 670 562 l 1,6,-1
 640 374 l 1,7,-1
 40 174 l 1,0,-1
12 0 m 1,8,-1
 35 142 l 1,9,-1
 603 142 l 1,10,-1
 581 0 l 1,11,-1
 12 0 l 1,8,-1
EndSplineSet
EndChar

StartChar: lessequal
Encoding: 8804 8804 510
Width: 674
Flags: W
LayerCount: 2
Fore
SplineSet
92 562 m 1,0,-1
 692 761 l 1,1,-1
 667 605 l 1,2,-1
 204 469 l 1,3,-1
 204 467 l 1,4,-1
 624 331 l 1,5,-1
 599 174 l 1,6,-1
 62 374 l 1,7,-1
 92 562 l 1,0,-1
26 142 m 1,8,-1
 594 142 l 1,9,-1
 572 0 l 1,10,-1
 3 0 l 1,11,-1
 26 142 l 1,8,-1
EndSplineSet
EndChar

StartChar: plusminus
Encoding: 177 177 511
Width: 709
Flags: W
LayerCount: 2
Fore
SplineSet
301 397 m 1,0,-1
 88 397 l 1,1,-1
 110 539 l 1,2,-1
 323 539 l 1,3,-1
 353 730 l 1,4,-1
 497 730 l 1,5,-1
 467 539 l 1,6,-1
 679 539 l 1,7,-1
 656 397 l 1,8,-1
 445 397 l 1,9,-1
 414 206 l 1,10,-1
 270 206 l 1,11,-1
 301 397 l 1,0,-1
48 142 m 1,12,-1
 616 142 l 1,13,-1
 593 0 l 1,14,-1
 25 0 l 1,15,-1
 48 142 l 1,12,-1
EndSplineSet
EndChar

StartChar: approxequal
Encoding: 8776 8776 512
Width: 727
Flags: W
LayerCount: 2
Fore
SplineSet
124 477.5 m 128,-1,1
 169 529 169 529 243 529 c 0,2,3
 326 529 326 529 436 476 c 0,4,5
 494 448 494 448 524 448 c 0,6,7
 545 448 545 448 555 463 c 128,-1,8
 565 478 565 478 572 519 c 1,9,-1
 708 519 l 1,10,11
 691 412 691 412 646 361.5 c 128,-1,12
 601 311 601 311 527 311 c 0,13,14
 443 311 443 311 335 364 c 0,15,16
 279 391 279 391 246 391 c 0,17,18
 225 391 225 391 215 375.5 c 128,-1,19
 205 360 205 360 197 314 c 1,20,-1
 61 314 l 1,21,0
 79 426 79 426 124 477.5 c 128,-1,1
82 215.5 m 128,-1,23
 127 267 127 267 202 267 c 0,24,25
 284 267 284 267 394 215 c 0,26,27
 452 187 452 187 483 187 c 0,28,29
 504 187 504 187 514 201.5 c 128,-1,30
 524 216 524 216 530 257 c 1,31,-1
 667 257 l 1,32,33
 650 151 650 151 604.5 100 c 128,-1,34
 559 49 559 49 486 49 c 0,35,36
 405 49 405 49 293 102 c 0,37,38
 235 130 235 130 204 130 c 0,39,40
 183 130 183 130 173 114.5 c 128,-1,41
 163 99 163 99 156 53 c 1,42,-1
 20 53 l 1,43,22
 37 164 37 164 82 215.5 c 128,-1,23
EndSplineSet
EndChar

StartChar: asciitilde
Encoding: 126 126 513
Width: 710
Flags: W
LayerCount: 2
Fore
SplineSet
98.5 366 m 128,-1,1
 144 419 144 419 218 419 c 0,2,3
 303 419 303 419 410 365 c 0,4,5
 468 336 468 336 498 336 c 0,6,7
 519 336 519 336 529 351 c 128,-1,8
 539 366 539 366 546 409 c 1,9,-1
 682 409 l 1,10,11
 665 299 665 299 619.5 246.5 c 128,-1,12
 574 194 574 194 500 194 c 0,13,14
 419 194 419 194 308 249 c 0,15,16
 250 277 250 277 220 277 c 0,17,18
 199 277 199 277 188.5 261 c 128,-1,19
 178 245 178 245 171 198 c 1,20,-1
 35 198 l 1,21,0
 53 313 53 313 98.5 366 c 128,-1,1
EndSplineSet
EndChar

StartChar: logicalnot
Encoding: 172 172 514
Width: 700
Flags: W
LayerCount: 2
Fore
SplineSet
495 338 m 1,0,-1
 57 338 l 1,1,-1
 80 485 l 1,2,-1
 662 485 l 1,3,-1
 600 95 l 1,4,-1
 456 95 l 1,5,-1
 495 338 l 1,0,-1
EndSplineSet
EndChar

StartChar: asciicircum
Encoding: 94 94 515
Width: 656
Flags: W
LayerCount: 2
Fore
SplineSet
290 730 m 1,0,-1
 507 730 l 1,1,-1
 647 280 l 1,2,-1
 464 280 l 1,3,-1
 380 611 l 1,4,-1
 378 611 l 1,5,-1
 191 280 l 1,6,-1
 8 280 l 1,7,-1
 290 730 l 1,0,-1
EndSplineSet
EndChar

StartChar: uni00B5
Encoding: 181 181 516
Width: 571
GlyphClass: 2
Flags: W
AnchorPoint: "Anchor-3" 479 480 basechar 0
AnchorPoint: "Anchor-2" 504 0 basechar 0
AnchorPoint: "Anchor-1" 262 520 basechar 0
AnchorPoint: "Anchor-0" 262 0 basechar 0
LayerCount: 2
Fore
SplineSet
551 520 m 1,0,-1
 469 0 l 1,1,-1
 321 0 l 1,2,-1
 329 65 l 1,3,-1
 327 65 l 1,4,5
 291 27 291 27 250.5 8.5 c 128,-1,6
 210 -10 210 -10 162 -10 c 1,7,-1
 129 -220 l 1,8,-1
 -28 -220 l 1,9,-1
 89 520 l 1,10,-1
 246 520 l 1,11,-1
 201 233 l 2,12,13
 192 176 192 176 201.5 151.5 c 128,-1,14
 211 127 211 127 241 127 c 0,15,16
 279 127 279 127 310.5 158 c 128,-1,17
 342 189 342 189 349 232 c 2,18,-1
 394 520 l 1,19,-1
 551 520 l 1,0,-1
EndSplineSet
EndChar

StartChar: percent
Encoding: 37 37 517
Width: 900
Flags: W
LayerCount: 2
Fore
SplineSet
82 340.5 m 128,-1,1
 49 395 49 395 68 511 c 256,2,3
 86 627 86 627 136.5 681.5 c 128,-1,4
 187 736 187 736 275 736 c 0,5,6
 364 736 364 736 396.5 681.5 c 128,-1,7
 429 627 429 627 411 511 c 256,8,9
 393 395 393 395 343 340.5 c 128,-1,10
 293 286 293 286 204 286 c 0,11,0
 115 286 115 286 82 340.5 c 128,-1,1
644 730 m 1,12,-1
 777 730 l 1,13,-1
 282 0 l 1,14,-1
 150 0 l 1,15,-1
 644 730 l 1,12,-1
260.5 423.5 m 128,-1,17
 275 449 275 449 284 511 c 256,18,19
 294 573 294 573 288 598.5 c 128,-1,20
 282 624 282 624 257 624 c 0,21,22
 233 624 233 624 218.5 598.5 c 128,-1,23
 204 573 204 573 194 511 c 256,24,25
 184 449 184 449 191 423.5 c 128,-1,26
 198 398 198 398 221 398 c 0,27,16
 246 398 246 398 260.5 423.5 c 128,-1,17
529 48.5 m 128,-1,29
 496 103 496 103 514 219 c 256,30,31
 532 335 532 335 582.5 389.5 c 128,-1,32
 633 444 633 444 722 444 c 0,33,34
 811 444 811 444 843.5 389.5 c 128,-1,35
 876 335 876 335 857 219 c 256,36,37
 839 103 839 103 789.5 48.5 c 128,-1,38
 740 -6 740 -6 650 -6 c 0,39,28
 562 -6 562 -6 529 48.5 c 128,-1,29
707 131.5 m 128,-1,41
 721 157 721 157 731 219 c 256,42,43
 741 281 741 281 734.5 306.5 c 128,-1,44
 728 332 728 332 704 332 c 0,45,46
 680 332 680 332 665.5 306.5 c 128,-1,47
 651 281 651 281 641 219 c 256,48,49
 631 157 631 157 638 131.5 c 128,-1,50
 645 106 645 106 668 106 c 0,51,40
 693 106 693 106 707 131.5 c 128,-1,41
EndSplineSet
EndChar

StartChar: at
Encoding: 64 64 519
Width: 796
Flags: W
LayerCount: 2
Fore
SplineSet
609 454 m 1,0,-1
 562 159 l 1,1,-1
 636 159 l 1,2,3
 661 208 661 208 670 260 c 0,4,5
 683 342 683 342 658.5 406 c 128,-1,6
 634 470 634 470 576.5 505.5 c 128,-1,7
 519 541 519 541 439 541 c 256,8,9
 359 541 359 541 290.5 505 c 128,-1,10
 222 469 222 469 177 405.5 c 128,-1,11
 132 342 132 342 119 260 c 256,12,13
 106 178 106 178 131 114.5 c 128,-1,14
 156 51 156 51 213 15 c 128,-1,15
 270 -21 270 -21 350 -21 c 0,16,17
 456 -21 456 -21 539 40 c 1,18,-1
 581 -35 l 1,19,20
 528 -73 528 -73 465.5 -93.5 c 128,-1,21
 403 -114 403 -114 335 -114 c 0,22,23
 230 -114 230 -114 154 -66 c 128,-1,24
 78 -18 78 -18 44.5 67.5 c 128,-1,25
 11 153 11 153 28 260 c 256,26,27
 45 367 45 367 105.5 452.5 c 128,-1,28
 166 538 166 538 257.5 586 c 128,-1,29
 349 634 349 634 454 634 c 256,30,31
 559 634 559 634 635 586 c 128,-1,32
 711 538 711 538 744.5 452.5 c 128,-1,33
 778 367 778 367 761 260 c 0,34,35
 743 149 743 149 681 66 c 1,36,-1
 428 66 l 1,37,-1
 435 120 l 1,38,-1
 433 120 l 1,39,40
 377 58 377 58 310 58 c 0,41,42
 243 58 243 58 209.5 111.5 c 128,-1,43
 176 165 176 165 191 260 c 256,44,45
 206 355 206 355 256 408.5 c 128,-1,46
 306 462 306 462 374 462 c 0,47,48
 409 462 409 462 434 447 c 128,-1,49
 459 432 459 432 477 400 c 1,50,-1
 479 400 l 1,51,-1
 489 454 l 1,52,-1
 609 454 l 1,0,-1
454 265 m 2,53,54
 461 312 461 312 446.5 337 c 128,-1,55
 432 362 432 362 401 362 c 0,56,57
 369 362 369 362 346 335.5 c 128,-1,58
 323 309 323 309 315 260 c 256,59,60
 307 211 307 211 321.5 184.5 c 128,-1,61
 336 158 336 158 369 158 c 0,62,63
 400 158 400 158 422.5 183 c 128,-1,64
 445 208 445 208 453 255 c 2,65,-1
 454 265 l 2,53,54
EndSplineSet
EndChar

StartChar: ampersand
Encoding: 38 38 520
Width: 713
Flags: W
LayerCount: 2
Fore
SplineSet
554 -16 m 1,0,-1
 497 47 l 1,1,2
 429 17 429 17 371 3.5 c 128,-1,3
 313 -10 313 -10 254 -10 c 0,4,5
 130 -10 130 -10 65.5 40.5 c 128,-1,6
 1 91 1 91 15 178 c 0,7,8
 24 235 24 235 64.5 280 c 128,-1,9
 105 325 105 325 196 379 c 1,10,11
 146 435 146 435 129 477 c 128,-1,12
 112 519 112 519 120 566 c 0,13,14
 133 649 133 649 203 694.5 c 128,-1,15
 273 740 273 740 385 740 c 0,16,17
 496 740 496 740 554 693 c 128,-1,18
 612 646 612 646 600 566 c 0,19,20
 591 510 591 510 546.5 462.5 c 128,-1,21
 502 415 502 415 408 361 c 1,22,-1
 494 264 l 1,23,-1
 514 388 l 1,24,-1
 665 388 l 1,25,-1
 621 121 l 1,26,-1
 676 59 l 1,27,-1
 554 -16 l 1,0,-1
307 607 m 128,-1,29
 282 591 282 591 278 562 c 0,30,31
 275 540 275 540 286 515.5 c 128,-1,32
 297 491 297 491 328 452 c 1,33,34
 387 486 387 486 411.5 510 c 128,-1,35
 436 534 436 534 440 562 c 0,36,37
 445 592 445 592 427.5 607.5 c 128,-1,38
 410 623 410 623 371 623 c 256,39,28
 332 623 332 623 307 607 c 128,-1,29
404 150 m 1,41,-1
 278 289 l 1,42,43
 235 262 235 262 213.5 239 c 128,-1,44
 192 216 192 216 188 191 c 0,45,46
 183 157 183 157 207.5 138.5 c 128,-1,47
 232 120 232 120 283 120 c 0,48,40
 342 120 342 120 404 150 c 1,41,-1
EndSplineSet
EndChar

StartChar: paragraph
Encoding: 182 182 521
Width: 660
Flags: W
LayerCount: 2
Fore
SplineSet
124.5 301 m 128,-1,1
 77 332 77 332 55 385 c 128,-1,2
 33 438 33 438 43 500 c 256,3,4
 53 562 53 562 92 615 c 128,-1,5
 131 668 131 668 187.5 699 c 128,-1,6
 244 730 244 730 305 730 c 2,7,-1
 668 730 l 1,8,-1
 535 -110 l 1,9,-1
 399 -110 l 1,10,-1
 513 608 l 1,11,-1
 422 608 l 1,12,-1
 308 -110 l 1,13,-1
 172 -110 l 1,14,-1
 232 270 l 1,15,0
 172 270 172 270 124.5 301 c 128,-1,1
EndSplineSet
EndChar

StartChar: section
Encoding: 167 167 522
Width: 568
Flags: W
LayerCount: 2
Fore
SplineSet
482 133 m 128,-1,1
 489 104 489 104 482 63 c 0,2,3
 469 -21 469 -21 400 -70.5 c 128,-1,4
 331 -120 331 -120 220 -120 c 0,5,6
 107 -120 107 -120 6 -78 c 1,7,-1
 59 50 l 1,8,9
 146 10 146 10 225 10 c 0,10,11
 273 10 273 10 298.5 24 c 128,-1,12
 324 38 324 38 328 63 c 0,13,14
 332 87 332 87 315 102 c 128,-1,15
 298 117 298 117 255 124 c 0,16,17
 140 143 140 143 93 190 c 128,-1,18
 46 237 46 237 59 315 c 0,19,20
 71 390 71 390 126 436 c 1,21,22
 103 458 103 458 96 487 c 128,-1,23
 89 516 89 516 95 557 c 0,24,25
 108 642 108 642 177 691 c 128,-1,26
 246 740 246 740 356 740 c 0,27,28
 469 740 469 740 570 698 c 1,29,-1
 519 570 l 1,30,31
 432 610 432 610 352 610 c 0,32,33
 304 610 304 610 278.5 596 c 128,-1,34
 253 582 253 582 249 557 c 0,35,36
 245 533 245 533 262 518 c 128,-1,37
 279 503 279 503 323 496 c 0,38,39
 437 477 437 477 483.5 430 c 128,-1,40
 530 383 530 383 518 305 c 0,41,42
 506 230 506 230 451 185 c 1,43,0
 475 162 475 162 482 133 c 128,-1,1
210 280.5 m 128,-1,45
 230 263 230 263 291 250 c 0,46,47
 330 241 330 241 354 234 c 1,48,49
 376 258 376 258 381 288 c 0,50,51
 385 311 385 311 378 325.5 c 128,-1,52
 371 340 371 340 349.5 350.5 c 128,-1,53
 328 361 328 361 285 370 c 0,54,55
 245 379 245 379 224 386 c 1,56,57
 201 363 201 363 196 332 c 0,58,44
 190 298 190 298 210 280.5 c 128,-1,45
EndSplineSet
EndChar

StartChar: copyright
Encoding: 169 169 523
Width: 794
Flags: W
LayerCount: 2
Fore
SplineSet
175.5 42 m 128,-1,1
 99 92 99 92 64 178 c 128,-1,2
 29 264 29 264 45 365 c 256,3,4
 61 466 61 466 123.5 552 c 128,-1,5
 186 638 186 638 278 688 c 128,-1,6
 370 738 370 738 469 738 c 256,7,8
 568 738 568 738 644.5 688 c 128,-1,9
 721 638 721 638 756.5 552 c 128,-1,10
 792 466 792 466 776 365 c 256,11,12
 760 264 760 264 697.5 178 c 128,-1,13
 635 92 635 92 542.5 42 c 128,-1,14
 450 -8 450 -8 351 -8 c 256,15,0
 252 -8 252 -8 175.5 42 c 128,-1,1
514 111.5 m 128,-1,17
 586 151 586 151 635.5 218 c 128,-1,18
 685 285 685 285 697 365 c 256,19,20
 710 445 710 445 682 512 c 128,-1,21
 654 579 654 579 594.5 618.5 c 128,-1,22
 535 658 535 658 457 658 c 256,23,24
 379 658 379 658 306.5 618.5 c 128,-1,25
 234 579 234 579 185 512 c 128,-1,26
 136 445 136 445 123 365 c 256,27,28
 110 285 110 285 138.5 218 c 128,-1,29
 167 151 167 151 226 111.5 c 128,-1,30
 285 72 285 72 364 72 c 256,31,16
 442 72 442 72 514 111.5 c 128,-1,17
237.5 199 m 128,-1,33
 190 258 190 258 207 365 c 256,34,35
 224 472 224 472 290.5 531 c 128,-1,36
 357 590 357 590 460 590 c 0,37,38
 544 590 544 590 600 550 c 1,39,-1
 531 450 l 1,40,41
 487 478 487 478 447 478 c 0,42,43
 401 478 401 478 372 449 c 128,-1,44
 343 420 343 420 335 365 c 256,45,46
 326 310 326 310 345.5 281 c 128,-1,47
 365 252 365 252 411 252 c 0,48,49
 456 252 456 252 504 279 c 1,50,-1
 541 179 l 1,51,52
 472 140 472 140 388 140 c 0,53,32
 285 140 285 140 237.5 199 c 128,-1,33
EndSplineSet
EndChar

StartChar: registered
Encoding: 174 174 524
Width: 794
Flags: W
LayerCount: 2
Fore
SplineSet
644.5 688 m 128,-1,1
 721 638 721 638 756.5 552 c 128,-1,2
 792 466 792 466 776 365 c 256,3,4
 760 264 760 264 697.5 178 c 128,-1,5
 635 92 635 92 542.5 42 c 128,-1,6
 450 -8 450 -8 351 -8 c 256,7,8
 252 -8 252 -8 175.5 42 c 128,-1,9
 99 92 99 92 64 178 c 128,-1,10
 29 264 29 264 45 365 c 256,11,12
 61 466 61 466 123.5 552 c 128,-1,13
 186 638 186 638 278 688 c 128,-1,14
 370 738 370 738 469 738 c 256,15,0
 568 738 568 738 644.5 688 c 128,-1,1
514 111.5 m 128,-1,17
 586 151 586 151 635.5 218 c 128,-1,18
 685 285 685 285 697 365 c 256,19,20
 710 445 710 445 682 512 c 128,-1,21
 654 579 654 579 594.5 618.5 c 128,-1,22
 535 658 535 658 457 658 c 256,23,24
 379 658 379 658 306.5 618.5 c 128,-1,25
 234 579 234 579 185 512 c 128,-1,26
 136 445 136 445 123 365 c 256,27,28
 110 285 110 285 138.5 218 c 128,-1,29
 167 151 167 151 226 111.5 c 128,-1,30
 285 72 285 72 364 72 c 256,31,16
 442 72 442 72 514 111.5 c 128,-1,17
565 358.5 m 128,-1,33
 537 325 537 325 492 310 c 1,34,-1
 559 146 l 1,35,-1
 418 146 l 1,36,-1
 371 291 l 1,37,-1
 348 146 l 1,38,-1
 224 146 l 1,39,-1
 293 584 l 1,40,-1
 428 584 l 2,41,42
 527 584 527 584 569.5 549 c 128,-1,43
 612 514 612 514 601 442 c 0,44,32
 593 392 593 392 565 358.5 c 128,-1,33
401 483 m 1,45,-1
 387 390 l 1,46,-1
 402 390 l 2,47,48
 435 390 435 390 452.5 401.5 c 128,-1,49
 470 413 470 413 474 437 c 0,50,51
 478 460 478 460 464 471.5 c 128,-1,52
 450 483 450 483 417 483 c 2,53,-1
 401 483 l 1,45,-1
EndSplineSet
EndChar

StartChar: trademark
Encoding: 8482 8482 525
Width: 757
Flags: W
LayerCount: 2
Fore
SplineSet
177 641 m 1,0,-1
 81 641 l 1,1,-1
 95 730 l 1,2,-1
 385 730 l 1,3,-1
 371 641 l 1,4,-1
 274 641 l 1,5,-1
 230 365 l 1,6,-1
 133 365 l 1,7,-1
 177 641 l 1,0,-1
432 730 m 1,8,-1
 557 730 l 1,9,-1
 589 571 l 1,10,-1
 590 571 l 1,11,-1
 674 730 l 1,12,-1
 798 730 l 1,13,-1
 740 365 l 1,14,-1
 646 365 l 1,15,-1
 678 565 l 1,16,-1
 677 565 l 1,17,-1
 612 443 l 1,18,-1
 527 443 l 1,19,-1
 502 565 l 1,20,-1
 501 565 l 1,21,-1
 470 365 l 1,22,-1
 375 365 l 1,23,-1
 432 730 l 1,8,-1
EndSplineSet
EndChar

StartChar: degree
Encoding: 176 176 526
Width: 415
Flags: W
LayerCount: 2
Fore
SplineSet
136 394.5 m 128,-1,1
 99 419 99 419 81.5 461 c 128,-1,2
 64 503 64 503 72 553 c 0,3,4
 80 602 80 602 110.5 644 c 128,-1,5
 141 686 141 686 186 710.5 c 128,-1,6
 231 735 231 735 280 735 c 0,7,8
 328 735 328 735 365 710.5 c 128,-1,9
 402 686 402 686 419.5 644 c 128,-1,10
 437 602 437 602 429 553 c 0,11,12
 421 503 421 503 390.5 461 c 128,-1,13
 360 419 360 419 315 394.5 c 128,-1,14
 270 370 270 370 222 370 c 0,15,0
 173 370 173 370 136 394.5 c 128,-1,1
297 496 m 128,-1,17
 323 519 323 519 328 553 c 0,18,19
 333 586 333 586 314.5 609 c 128,-1,20
 296 632 296 632 264 632 c 0,21,22
 231 632 231 632 204.5 609 c 128,-1,23
 178 586 178 586 173 553 c 0,24,25
 168 519 168 519 186.5 496 c 128,-1,26
 205 473 205 473 238 473 c 0,27,16
 271 473 271 473 297 496 c 128,-1,17
EndSplineSet
EndChar

StartChar: bar
Encoding: 124 124 527
Width: 286
Flags: W
LayerCount: 2
Fore
SplineSet
153 810 m 1,0,-1
 299 810 l 1,1,-1
 136 -220 l 1,2,-1
 -10 -220 l 1,3,-1
 153 810 l 1,0,-1
EndSplineSet
EndChar

StartChar: brokenbar
Encoding: 166 166 528
Width: 286
Flags: W
LayerCount: 2
Fore
SplineSet
153 810 m 1,0,-1
 299 810 l 1,1,-1
 230 370 l 1,2,-1
 84 370 l 1,3,-1
 153 810 l 1,0,-1
60 220 m 1,4,-1
 206 220 l 1,5,-1
 136 -220 l 1,6,-1
 -10 -220 l 1,7,-1
 60 220 l 1,4,-1
EndSplineSet
EndChar

StartChar: dagger
Encoding: 8224 8224 529
Width: 525
Flags: W
LayerCount: 2
Fore
SplineSet
208 397 m 1,0,-1
 42 397 l 1,1,-1
 62 520 l 1,2,-1
 228 520 l 1,3,-1
 261 730 l 1,4,-1
 406 730 l 1,5,-1
 373 520 l 1,6,-1
 538 520 l 1,7,-1
 519 397 l 1,8,-1
 353 397 l 1,9,-1
 273 -110 l 1,10,-1
 128 -110 l 1,11,-1
 208 397 l 1,0,-1
EndSplineSet
EndChar

StartChar: daggerdbl
Encoding: 8225 8225 530
Width: 543
Flags: W
LayerCount: 2
Fore
SplineSet
170 100 m 1,0,-1
 5 100 l 1,1,-1
 24 223 l 1,2,-1
 190 223 l 1,3,-1
 217 397 l 1,4,-1
 52 397 l 1,5,-1
 71 520 l 1,6,-1
 237 520 l 1,7,-1
 270 730 l 1,8,-1
 415 730 l 1,9,-1
 382 520 l 1,10,-1
 547 520 l 1,11,-1
 528 397 l 1,12,-1
 362 397 l 1,13,-1
 335 223 l 1,14,-1
 500 223 l 1,15,-1
 481 100 l 1,16,-1
 315 100 l 1,17,-1
 282 -110 l 1,18,-1
 137 -110 l 1,19,-1
 170 100 l 1,0,-1
EndSplineSet
EndChar

StartChar: uni2116
Encoding: 8470 8470 531
Width: 1185
GlyphClass: 2
Flags: W
AnchorPoint: "Anchor-1" 323 730 basechar 0
AnchorPoint: "Anchor-0" 323 0 basechar 0
LayerCount: 2
Fore
SplineSet
788 363.5 m 128,-1,1
 743 419 743 419 759 524 c 256,2,3
 776 629 776 629 838.5 684.5 c 128,-1,4
 901 740 901 740 1003 740 c 256,5,6
 1105 740 1105 740 1150 684.5 c 128,-1,7
 1195 629 1195 629 1179 524 c 256,8,9
 1162 419 1162 419 1099.5 363.5 c 128,-1,10
 1037 308 1037 308 935 308 c 256,11,0
 833 308 833 308 788 363.5 c 128,-1,1
305 730 m 1,12,-1
 478 280 l 1,13,-1
 480 280 l 1,14,-1
 551 730 l 1,15,-1
 717 730 l 1,16,-1
 602 0 l 1,17,-1
 431 0 l 1,18,-1
 259 450 l 1,19,-1
 257 450 l 1,20,-1
 185 0 l 1,21,-1
 19 0 l 1,22,-1
 134 730 l 1,23,-1
 305 730 l 1,12,-1
1036 524 m 256,25,26
 1053 632 1053 632 986 632 c 256,27,28
 919 632 919 632 902 524 c 256,29,30
 885 416 885 416 952 416 c 256,31,24
 1019 416 1019 416 1036 524 c 256,25,26
728 263 m 1,32,-1
 1128 263 l 1,33,-1
 1109 148 l 1,34,-1
 710 148 l 1,35,-1
 728 263 l 1,32,-1
EndSplineSet
Ligature2: "'ordn' Ordinals in Latin lookup 9 subtable" N o period
EndChar

StartChar: uni0308
Encoding: 776 776 534
Width: 30
GlyphClass: 4
Flags: W
AnchorPoint: "Anchor-10" -328 749 basemark 0
AnchorPoint: "Anchor-10" -328 520 mark 0
AnchorPoint: "Anchor-6" -328 520 mark 0
AnchorPoint: "Anchor-1" -328 520 mark 0
LayerCount: 2
Fore
SplineSet
-385 749 m 5,0,-1
 -220 749 l 5,1,-1
 -247 581 l 5,2,-1
 -412 581 l 5,3,-1
 -385 749 l 5,0,-1
-126 749 m 5,4,-1
 39 749 l 5,5,-1
 13 581 l 5,6,-1
 -153 581 l 5,7,-1
 -126 749 l 5,4,-1
EndSplineSet
EndChar

StartChar: uni0307
Encoding: 775 775 535
Width: 11
GlyphClass: 4
Flags: W
AnchorPoint: "Anchor-10" -156 749 basemark 0
AnchorPoint: "Anchor-10" -156 520 mark 0
AnchorPoint: "Anchor-6" -156 520 mark 0
AnchorPoint: "Anchor-1" -156 520 mark 0
LayerCount: 2
Fore
SplineSet
-104 749 m 1,0,-1
 61 749 l 1,1,-1
 34 581 l 1,2,-1
 -130 581 l 1,3,-1
 -104 749 l 1,0,-1
EndSplineSet
EndChar

StartChar: gravecomb
Encoding: 768 768 536
Width: 19
GlyphClass: 4
Flags: W
AnchorPoint: "Anchor-10" -248 520 mark 0
AnchorPoint: "Anchor-6" -248 520 mark 0
AnchorPoint: "Anchor-1" -248 520 mark 0
LayerCount: 2
Fore
SplineSet
-261 770 m 5,0,-1
 -65 770 l 5,1,-1
 -27 560 l 5,2,-1
 -174 560 l 5,3,-1
 -261 770 l 5,0,-1
EndSplineSet
EndChar

StartChar: acutecomb
Encoding: 769 769 537
Width: 19
GlyphClass: 4
Flags: W
AnchorPoint: "Anchor-10" -233 520 mark 0
AnchorPoint: "Anchor-6" -233 520 mark 0
AnchorPoint: "Anchor-1" -233 520 mark 0
LayerCount: 2
Fore
SplineSet
-80 560 m 1,0,-1
 -227 560 l 1,1,-1
 -123 770 l 1,2,-1
 73 770 l 1,3,-1
 -80 560 l 1,0,-1
EndSplineSet
EndChar

StartChar: uni0302
Encoding: 770 770 539
Width: 35
GlyphClass: 4
Flags: W
AnchorPoint: "Anchor-10" -364 520 mark 0
AnchorPoint: "Anchor-6" -364 520 mark 0
AnchorPoint: "Anchor-1" -364 520 mark 0
LayerCount: 2
Fore
SplineSet
-329 770 m 5,0,-1
 -70 770 l 5,1,-1
 17 560 l 5,2,-1
 -164 560 l 5,3,-1
 -208 707 l 5,4,-1
 -210 707 l 5,5,-1
 -301 560 l 5,6,-1
 -481 560 l 5,7,-1
 -329 770 l 5,0,-1
EndSplineSet
EndChar

StartChar: uni030C
Encoding: 780 780 540
Width: 35
GlyphClass: 4
Flags: W
AnchorPoint: "Anchor-10" -364 770 basemark 0
AnchorPoint: "Anchor-10" -364 520 mark 0
AnchorPoint: "Anchor-6" -364 520 mark 0
AnchorPoint: "Anchor-1" -364 520 mark 0
LayerCount: 2
Fore
SplineSet
-448 770 m 5,0,-1
 -268 770 l 5,1,-1
 -223 623 l 5,2,-1
 -221 623 l 5,3,-1
 -131 770 l 5,4,-1
 50 770 l 5,5,-1
 -103 560 l 5,6,-1
 -362 560 l 5,7,-1
 -448 770 l 5,0,-1
EndSplineSet
EndChar

StartChar: uni0306
Encoding: 774 774 541
Width: 32
GlyphClass: 4
Flags: WO
AnchorPoint: "Anchor-10" -296 520 mark 0
AnchorPoint: "Anchor-6" -296 520 mark 0
AnchorPoint: "Anchor-1" -296 520 mark 0
LayerCount: 2
Fore
SplineSet
-283 584 m 128,-1,1
 -331 610 -331 610 -353.5 656 c 128,-1,2
 -376 702 -376 702 -368 761 c 1,3,-1
 -218 761 l 1,4,5
 -220 716 -220 716 -204 694.5 c 128,-1,6
 -188 673 -188 673 -151 673 c 256,7,8
 -115 673 -115 673 -92 694.5 c 128,-1,9
 -69 716 -69 716 -56 761 c 1,10,-1
 93 761 l 1,11,12
 83 702 83 702 45.5 656 c 128,-1,13
 8 610 8 610 -48 584 c 128,-1,14
 -104 558 -104 558 -169 558 c 256,15,0
 -235 558 -235 558 -283 584 c 128,-1,1
EndSplineSet
EndChar

StartChar: uni030A
Encoding: 778 778 542
Width: 22
GlyphClass: 4
Flags: W
AnchorPoint: "Anchor-10" -230 743 basemark 0
AnchorPoint: "Anchor-10" -230 520 mark 0
AnchorPoint: "Anchor-6" -230 520 mark 0
AnchorPoint: "Anchor-1" -230 520 mark 0
LayerCount: 2
Fore
SplineSet
-199 524 m 128,-1,1
 -232 546 -232 546 -247.5 583.5 c 128,-1,2
 -263 621 -263 621 -256 665 c 256,3,4
 -249 709 -249 709 -221.5 746.5 c 128,-1,5
 -194 784 -194 784 -154 806 c 128,-1,6
 -114 828 -114 828 -70 828 c 0,7,8
 -27 828 -27 828 6.5 806 c 128,-1,9
 40 784 40 784 55.5 746.5 c 128,-1,10
 71 709 71 709 64 665 c 256,11,12
 57 621 57 621 29.5 583.5 c 128,-1,13
 2 546 2 546 -38 524 c 128,-1,14
 -78 502 -78 502 -121 502 c 0,15,0
 -166 502 -166 502 -199 524 c 128,-1,1
-61 622.5 m 128,-1,17
 -41 640 -41 640 -37 665 c 256,18,19
 -33 690 -33 690 -47.5 707.5 c 128,-1,20
 -62 725 -62 725 -86 725 c 0,21,22
 -111 725 -111 725 -130.5 708 c 128,-1,23
 -150 691 -150 691 -154 665 c 0,24,25
 -158 640 -158 640 -144.5 622.5 c 128,-1,26
 -131 605 -131 605 -105 605 c 0,27,16
 -81 605 -81 605 -61 622.5 c 128,-1,17
EndSplineSet
EndChar

StartChar: tildecomb
Encoding: 771 771 543
Width: 32
GlyphClass: 4
Flags: W
AnchorPoint: "Anchor-10" -357 771 basemark 0
AnchorPoint: "Anchor-10" -357 520 mark 0
AnchorPoint: "Anchor-6" -357 520 mark 0
AnchorPoint: "Anchor-1" -357 520 mark 0
LayerCount: 2
Fore
SplineSet
-237 608 m 4,1,2
 -272 632 -272 632 -293 632 c 4,3,4
 -307 632 -307 632 -314 619 c 132,-1,5
 -321 606 -321 606 -327 569 c 5,6,-1
 -456 569 l 5,7,8
 -440 672 -440 672 -404.5 721.5 c 132,-1,9
 -369 771 -369 771 -312 771 c 4,10,11
 -257 771 -257 771 -184 722 c 4,12,13
 -149 698 -149 698 -129 698 c 4,14,15
 -115 698 -115 698 -107.5 711 c 132,-1,16
 -100 724 -100 724 -95 761 c 5,17,-1
 35 761 l 5,18,19
 19 658 19 658 -17 608.5 c 132,-1,20
 -53 559 -53 559 -111 559 c 4,21,0
 -164 559 -164 559 -237 608 c 4,1,2
EndSplineSet
EndChar

StartChar: uni0304
Encoding: 772 772 544
Width: 28
GlyphClass: 4
Flags: W
AnchorPoint: "Anchor-10" -275 726 basemark 0
AnchorPoint: "Anchor-10" -275 520 mark 0
AnchorPoint: "Anchor-6" -275 520 mark 0
AnchorPoint: "Anchor-1" -275 520 mark 0
LayerCount: 2
Fore
SplineSet
-323 726 m 1,0,-1
 75 726 l 1,1,-1
 55 604 l 1,2,-1
 -342 604 l 1,3,-1
 -323 726 l 1,0,-1
EndSplineSet
EndChar

StartChar: uni0305
Encoding: 773 773 545
Width: 43
GlyphClass: 4
Flags: W
LayerCount: 2
Fore
SplineSet
-471 915 m 1,0,-1
 144 915 l 1,1,-1
 126 800 l 1,2,-1
 -489 800 l 1,3,-1
 -471 915 l 1,0,-1
EndSplineSet
EndChar

StartChar: hookabovecomb
Encoding: 777 777 546
Width: 25
GlyphClass: 4
Flags: W
AnchorPoint: "Anchor-10" -255 778 basemark 0
AnchorPoint: "Anchor-10" -255 520 mark 0
AnchorPoint: "Anchor-6" -255 520 mark 0
AnchorPoint: "Anchor-1" -255 520 mark 0
LayerCount: 2
Fore
SplineSet
-97 630 m 0,1,2
 -94 649 -94 649 -104 655.5 c 128,-1,3
 -114 662 -114 662 -143 662 c 0,4,5
 -212 662 -212 662 -289 639 c 1,6,-1
 -283 758 l 1,7,8
 -241 767 -241 767 -192 772.5 c 128,-1,9
 -143 778 -143 778 -100 778 c 0,10,11
 -29 778 -29 778 7.5 770 c 128,-1,12
 44 762 44 762 57.5 742.5 c 128,-1,13
 71 723 71 723 65 687 c 0,14,15
 61 660 61 660 49 626.5 c 128,-1,16
 37 593 37 593 23 568 c 1,17,-1
 -118 568 l 1,18,0
 -102 601 -102 601 -97 630 c 0,1,2
EndSplineSet
EndChar

StartChar: uni030F
Encoding: 783 783 547
Width: 36
GlyphClass: 4
Flags: W
AnchorPoint: "Anchor-10" -324 770 basemark 0
AnchorPoint: "Anchor-10" -324 520 mark 0
AnchorPoint: "Anchor-6" -324 520 mark 0
AnchorPoint: "Anchor-1" -324 520 mark 0
LayerCount: 2
Fore
SplineSet
-443 770 m 1,0,-1
 -247 770 l 1,1,-1
 -209 560 l 1,2,-1
 -356 560 l 1,3,-1
 -443 770 l 1,0,-1
-193 770 m 1,4,-1
 3 770 l 1,5,-1
 41 560 l 1,6,-1
 -106 560 l 1,7,-1
 -193 770 l 1,4,-1
EndSplineSet
EndChar

StartChar: uni0311
Encoding: 785 785 548
Width: 32
GlyphClass: 4
Flags: W
AnchorPoint: "Anchor-10" -296 772 basemark 0
AnchorPoint: "Anchor-10" -296 520 mark 0
AnchorPoint: "Anchor-6" -296 520 mark 0
AnchorPoint: "Anchor-1" -296 520 mark 0
LayerCount: 2
Fore
SplineSet
-22 746 m 128,-1,1
 26 720 26 720 48.5 674 c 128,-1,2
 71 628 71 628 63 569 c 1,3,-1
 -86 569 l 1,4,5
 -85 614 -85 614 -101.5 635.5 c 128,-1,6
 -118 657 -118 657 -154 657 c 256,7,8
 -190 657 -190 657 -213 635.5 c 128,-1,9
 -236 614 -236 614 -248 569 c 1,10,-1
 -398 569 l 1,11,12
 -388 628 -388 628 -350.5 674 c 128,-1,13
 -313 720 -313 720 -257 746 c 128,-1,14
 -201 772 -201 772 -136 772 c 256,15,0
 -70 772 -70 772 -22 746 c 128,-1,1
EndSplineSet
EndChar

StartChar: uni0312
Encoding: 786 786 549
Width: 19
GlyphClass: 4
Flags: W
AnchorPoint: "Anchor-10" -225 770 basemark 0
AnchorPoint: "Anchor-10" -225 520 mark 0
AnchorPoint: "Anchor-6" -225 520 mark 0
AnchorPoint: "Anchor-1" -225 520 mark 0
LayerCount: 2
Fore
SplineSet
-91 770 m 1,0,-1
 56 770 l 1,1,-1
 -48 560 l 1,2,-1
 -244 560 l 1,3,-1
 -91 770 l 1,0,-1
EndSplineSet
EndChar

StartChar: uni031B
Encoding: 795 795 550
Width: 19
GlyphClass: 4
Flags: W
AnchorPoint: "Anchor-11" -109 770 basemark 0
AnchorPoint: "Anchor-11" -362 623 mark 0
AnchorPoint: "Anchor-7" -362 623 mark 0
AnchorPoint: "Anchor-3" -362 623 mark 0
LayerCount: 2
Fore
SplineSet
-279 504 m 1,1,-1
 -233 623 l 1,2,3
 -233 612 -233 612 -222 604 c 128,-1,4
 -211 596 -211 596 -195 596 c 0,5,6
 -172 596 -172 596 -157 611.5 c 128,-1,7
 -142 627 -142 627 -138 655 c 0,8,9
 -135 677 -135 677 -136.5 712 c 128,-1,10
 -138 747 -138 747 -143 770 c 1,11,-1
 12 770 l 1,12,13
 22 705 22 705 12 638 c 0,14,15
 -1 556 -1 556 -45.5 512 c 128,-1,16
 -90 468 -90 468 -159 468 c 0,17,0
 -217 468 -217 468 -279 504 c 1,1,-1
EndSplineSet
EndChar

StartChar: uni0326
Encoding: 806 806 553
Width: 19
GlyphClass: 4
Flags: W
AnchorPoint: "Anchor-10" -233 -290 mark 0
AnchorPoint: "Anchor-9" -206 -210 basemark 0
AnchorPoint: "Anchor-6" -233 -290 mark 0
AnchorPoint: "Anchor-1" -233 -290 mark 0
LayerCount: 2
Fore
SplineSet
-208 -250 m 1,0,-1
 -355 -250 l 1,1,-1
 -251 -40 l 1,2,-1
 -55 -40 l 1,3,-1
 -208 -250 l 1,0,-1
EndSplineSet
EndChar

StartChar: uni0327
Encoding: 807 807 554
Width: 22
GlyphClass: 4
Flags: W
AnchorPoint: "Anchor-8" -326 0 mark 0
LayerCount: 2
Fore
SplineSet
-415 -199 m 1,1,-1
 -381 -80 l 1,2,3
 -340 -100 -340 -100 -291 -100 c 0,4,5
 -264 -100 -264 -100 -248 -92 c 128,-1,6
 -232 -84 -232 -84 -230 -69 c 0,7,8
 -225 -35 -225 -35 -294 0 c 1,9,-1
 -141 41 l 1,10,11
 -107 6 -107 6 -93.5 -25.5 c 128,-1,12
 -80 -57 -80 -57 -85 -92 c 0,13,14
 -95 -153 -95 -153 -151 -186 c 128,-1,15
 -207 -219 -207 -219 -299 -219 c 0,16,0
 -366 -219 -366 -219 -415 -199 c 1,1,-1
EndSplineSet
EndChar

StartChar: uni0328
Encoding: 808 808 555
Width: 22
GlyphClass: 4
Flags: W
AnchorPoint: "Anchor-5" -189 0 mark 0
AnchorPoint: "Anchor-2" -189 0 mark 0
LayerCount: 2
Fore
SplineSet
-362.5 -186 m 128,-1,1
 -408 -153 -408 -153 -398 -92 c 0,2,3
 -392 -57 -392 -57 -368.5 -25.5 c 128,-1,4
 -345 6 -345 6 -301 41 c 1,5,-1
 -160 0 l 1,6,7
 -240 -34 -240 -34 -245 -69 c 0,8,9
 -247 -84 -247 -84 -234.5 -92 c 128,-1,10
 -222 -100 -222 -100 -196 -100 c 0,11,12
 -147 -100 -147 -100 -99 -80 c 1,13,-1
 -102 -199 l 1,14,15
 -157 -219 -157 -219 -225 -219 c 0,16,0
 -317 -219 -317 -219 -362.5 -186 c 128,-1,1
EndSplineSet
EndChar

StartChar: uni0370
Encoding: 880 880 571
Width: 591
Flags: W
LayerCount: 2
Fore
SplineSet
584 444 m 1,0,-1
 564 315 l 1,1,-1
 245 315 l 1,2,-1
 195 0 l 1,3,-1
 24 0 l 1,4,-1
 140 730 l 1,5,-1
 310 730 l 1,6,-1
 265 444 l 1,7,-1
 584 444 l 1,0,-1
EndSplineSet
EndChar

StartChar: uni0371
Encoding: 881 881 572
Width: 458
Flags: W
LayerCount: 2
Fore
SplineSet
433 327 m 1,0,-1
 415 214 l 1,1,-1
 203 214 l 1,2,-1
 169 0 l 1,3,-1
 15 0 l 1,4,-1
 97 520 l 1,5,-1
 252 520 l 1,6,-1
 221 327 l 1,7,-1
 433 327 l 1,0,-1
EndSplineSet
EndChar

StartChar: uni0372
Encoding: 882 882 573
Width: 725
Flags: W
CounterMasks: 1 38
LayerCount: 2
Fore
SplineSet
328 589 m 1,0,-1
 237 589 l 1,1,-1
 195 323 l 1,2,-1
 57 323 l 1,3,-1
 122 730 l 1,4,-1
 745 730 l 1,5,-1
 680 323 l 1,6,-1
 542 323 l 1,7,-1
 584 589 l 1,8,-1
 494 589 l 1,9,-1
 401 0 l 1,10,-1
 234 0 l 1,11,-1
 328 589 l 1,0,-1
EndSplineSet
EndChar

StartChar: uni0373
Encoding: 883 883 574
Width: 596
Flags: W
LayerCount: 2
Fore
SplineSet
275 613 m 1,0,-1
 215 613 l 1,1,-1
 185 423 l 1,2,-1
 68 423 l 1,3,-1
 117 730 l 1,4,-1
 620 730 l 1,5,-1
 572 423 l 1,6,-1
 455 423 l 1,7,-1
 485 613 l 1,8,-1
 425 613 l 1,9,-1
 328 0 l 1,10,-1
 178 0 l 1,11,-1
 275 613 l 1,0,-1
EndSplineSet
EndChar

StartChar: uni0374
Encoding: 884 884 575
Width: 340
Flags: W
LayerCount: 2
Fore
SplineSet
384 770 m 1,0,-1
 222 470 l 1,1,-1
 85 470 l 1,2,-1
 195 770 l 1,3,-1
 384 770 l 1,0,-1
EndSplineSet
EndChar

StartChar: uni0375
Encoding: 885 885 576
Width: 339
Flags: W
LayerCount: 2
Fore
SplineSet
159 -110 m 1,0,-1
 -30 -110 l 1,1,-1
 132 190 l 1,2,-1
 269 190 l 1,3,-1
 159 -110 l 1,0,-1
EndSplineSet
EndChar

StartChar: uni0376
Encoding: 886 886 577
Width: 720
Flags: W
LayerCount: 2
Fore
SplineSet
606 0 m 1,0,-1
 444 0 l 1,1,-1
 515 448 l 1,2,-1
 513 448 l 1,3,-1
 187 0 l 1,4,-1
 24 0 l 1,5,-1
 140 730 l 1,6,-1
 302 730 l 1,7,-1
 232 282 l 1,8,-1
 233 282 l 1,9,-1
 559 730 l 1,10,-1
 722 730 l 1,11,-1
 606 0 l 1,0,-1
EndSplineSet
EndChar

StartChar: uni0377
Encoding: 887 887 578
Width: 590
Flags: W
LayerCount: 2
Fore
SplineSet
248 520 m 1,0,-1
 200 221 l 1,1,-1
 202 221 l 1,2,-1
 415 520 l 1,3,-1
 567 520 l 1,4,-1
 485 0 l 1,5,-1
 335 0 l 1,6,-1
 382 299 l 1,7,-1
 380 299 l 1,8,-1
 167 0 l 1,9,-1
 15 0 l 1,10,-1
 97 520 l 1,11,-1
 248 520 l 1,0,-1
EndSplineSet
EndChar

StartChar: uni037A
Encoding: 890 890 579
Width: 408
Flags: W
LayerCount: 2
Fore
SplineSet
161 -95 m 2,0,1
 154 -142 154 -142 162 -152.5 c 128,-1,2
 170 -163 170 -163 211 -163 c 0,3,4
 256 -163 256 -163 295 -149 c 1,5,-1
 291 -252 l 1,6,7
 226 -267 226 -267 165 -267 c 0,8,9
 57 -267 57 -267 25 -231 c 128,-1,10
 -7 -195 -7 -195 9 -95 c 2,11,-1
 15 -60 l 1,12,-1
 167 -60 l 1,13,-1
 161 -95 l 2,0,1
EndSplineSet
EndChar

StartChar: uni037B
Encoding: 891 891 580
Width: 518
Flags: W
LayerCount: 2
Fore
SplineSet
62 144 m 1,0,1
 116 107 116 107 182 107 c 0,2,3
 239 107 239 107 281 148 c 128,-1,4
 323 189 323 189 334 260 c 0,5,6
 346 334 346 334 318.5 372.5 c 128,-1,7
 291 411 291 411 230 411 c 0,8,9
 164 411 164 411 98 374 c 1,10,-1
 84 492 l 1,11,12
 168 530 168 530 256 530 c 0,13,14
 385 530 385 530 445.5 458 c 128,-1,15
 506 386 506 386 486 260 c 0,16,17
 466 135 466 135 380.5 62.5 c 128,-1,18
 295 -10 295 -10 170 -10 c 0,19,20
 82 -10 82 -10 10 28 c 1,21,-1
 62 144 l 1,0,1
EndSplineSet
EndChar

StartChar: uni037C
Encoding: 892 892 581
Width: 517
Flags: W
LayerCount: 2
Fore
SplineSet
246 197 m 1,0,-1
 265 323 l 1,1,-1
 385 323 l 1,2,-1
 365 197 l 1,3,-1
 246 197 l 1,0,-1
411 144 m 1,4,-1
 426 28 l 1,5,6
 343 -10 343 -10 254 -10 c 0,7,8
 129 -10 129 -10 67 62.5 c 128,-1,9
 5 135 5 135 24 260 c 0,10,11
 44 386 44 386 128 458 c 128,-1,12
 212 530 212 530 340 530 c 0,13,14
 428 530 428 530 499 492 c 1,15,-1
 447 374 l 1,16,17
 393 411 393 411 328 411 c 0,18,19
 268 411 268 411 228 372.5 c 128,-1,20
 188 334 188 334 177 260 c 0,21,22
 166 189 166 189 194.5 148 c 128,-1,23
 223 107 223 107 280 107 c 0,24,25
 346 107 346 107 411 144 c 1,4,-1
EndSplineSet
EndChar

StartChar: uni037D
Encoding: 893 893 582
Width: 517
Flags: W
LayerCount: 2
Fore
SplineSet
125 197 m 1,0,-1
 145 323 l 1,1,-1
 264 323 l 1,2,-1
 244 197 l 1,3,-1
 125 197 l 1,0,-1
62 144 m 1,4,5
 116 107 116 107 181 107 c 0,6,7
 238 107 238 107 280 148 c 128,-1,8
 322 189 322 189 333 260 c 0,9,10
 345 334 345 334 317.5 372.5 c 128,-1,11
 290 411 290 411 229 411 c 0,12,13
 164 411 164 411 98 374 c 1,14,-1
 84 492 l 1,15,16
 167 530 167 530 255 530 c 0,17,18
 383 530 383 530 444 458 c 128,-1,19
 505 386 505 386 485 260 c 0,20,21
 465 135 465 135 379.5 62.5 c 128,-1,22
 294 -10 294 -10 170 -10 c 0,23,24
 82 -10 82 -10 10 28 c 1,25,-1
 62 144 l 1,4,5
EndSplineSet
EndChar

StartChar: uni037E
Encoding: 894 894 583
Width: 425
Flags: W
LayerCount: 2
Fore
SplineSet
139 -110 m 1,0,-1
 2 -110 l 1,1,-1
 111 190 l 1,2,-1
 301 190 l 1,3,-1
 139 -110 l 1,0,-1
141 377 m 1,4,-1
 171 567 l 1,5,-1
 357 567 l 1,6,-1
 327 377 l 1,7,-1
 141 377 l 1,4,-1
EndSplineSet
EndChar

StartChar: tonos
Encoding: 900 900 584
Width: 379
Flags: W
LayerCount: 2
Fore
SplineSet
234 767 m 1,0,-1
 423 767 l 1,1,-1
 241 590 l 1,2,-1
 104 590 l 1,3,-1
 234 767 l 1,0,-1
EndSplineSet
EndChar

StartChar: dieresistonos
Encoding: 901 901 585
Width: 480
Flags: W
LayerCount: 2
Fore
SplineSet
339 967 m 1,0,-1
 529 967 l 1,1,-1
 347 790 l 1,2,-1
 210 790 l 1,3,-1
 339 967 l 1,0,-1
326 603 m 1,4,-1
 350 753 l 1,5,-1
 494 753 l 1,6,-1
 470 603 l 1,7,-1
 326 603 l 1,4,-1
111 603 m 1,8,-1
 134 753 l 1,9,-1
 278 753 l 1,10,-1
 255 603 l 1,11,-1
 111 603 l 1,8,-1
EndSplineSet
EndChar

